SplineFontDB: 3.0
FontName: SaratiEldamarRTLBarGlaemscrafu
FullName: Sarati Eldamar RTL Bar Glaemscrafu
FamilyName: Sarati Eldamar RTL Bar Glaemscrafu
Weight: Book
Copyright: Copyright (c) 2006 by Mans Bjo:rkman. All rights reserved.\nModified by Benjamin Babut for Glaemscrafu with authorization of its author.
Version: 2.000 2006 initial release
ItalicAngle: 0
UnderlinePosition: -113
UnderlineWidth: 20
Ascent: 800
Descent: 200
InvalidEm: 0
sfntRevision: 0x00020000
LayerCount: 2
Layer: 0 1 "Back" 1
Layer: 1 1 "Fore" 0
XUID: [1021 63 976991550 4709207]
FSType: 0
OS2Version: 3
OS2_WeightWidthSlopeOnly: 0
OS2_UseTypoMetrics: 1
CreationTime: 1139572831
ModificationTime: 1443639675
PfmFamily: 17
TTFWeight: 400
TTFWidth: 5
LineGap: 64
VLineGap: 0
Panose: 2 0 6 6 4 0 0 2 0 4
OS2TypoAscent: 486
OS2TypoAOffset: 0
OS2TypoDescent: -367
OS2TypoDOffset: 0
OS2TypoLinegap: 64
OS2WinAscent: 1065
OS2WinAOffset: 0
OS2WinDescent: 811
OS2WinDOffset: 0
HheadAscent: 486
HheadAOffset: 0
HheadDescent: -367
HheadDOffset: 0
OS2SubXSize: 700
OS2SubYSize: 650
OS2SubXOff: 0
OS2SubYOff: 140
OS2SupXSize: 700
OS2SupYSize: 650
OS2SupXOff: 0
OS2SupYOff: 477
OS2StrikeYSize: 50
OS2StrikeYPos: 250
OS2CapHeight: 0
OS2XHeight: 0
OS2Vendor: 'PYRS'
OS2CodePages: 00000001.00000000
OS2UnicodeRanges: 00000001.00000000.00000000.00000000
Lookup: 260 0 0 "Nasals" { "Nasals"  } ['mark' ('DFLT' <'dflt' > 'latn' <'dflt' > ) ]
Lookup: 260 0 0 "FinalSAndZ" { "SZ"  } ['mark' ('DFLT' <'dflt' > 'latn' <'dflt' > ) ]
Lookup: 260 0 0 "Tehtar" { "Common"  } ['mark' ('DFLT' <'dflt' > 'latn' <'dflt' > ) ]
Lookup: 262 0 0 "CombinedTehtar" { "CombinedCommon"  } ['mkmk' ('DFLT' <'dflt' > 'latn' <'dflt' > ) ]
MarkAttachClasses: 1
DEI: 91125
TtTable: prep
PUSHW_1
 0
CALL
SVTCA[y-axis]
PUSHW_3
 1
 10
 2
CALL
SVTCA[x-axis]
PUSHW_3
 11
 8
 2
CALL
SVTCA[x-axis]
PUSHW_8
 11
 70
 60
 49
 35
 22
 0
 8
CALL
PUSHW_8
 12
 55
 45
 35
 35
 22
 0
 8
CALL
PUSHW_8
 13
 54
 45
 35
 35
 22
 0
 8
CALL
PUSHW_8
 14
 85
 75
 49
 35
 22
 0
 8
CALL

StartChar: quotedbl
Encoding: 34 34 1
Width: 504
GlyphClass: 2
Flags: W
AnchorPoint: "SZLeft" 55 -30 basechar 0
AnchorPoint: "SZRight" 442 -17 basechar 0
AnchorPoint: "Nasal" 245 100 basechar 0
AnchorPoint: "TBottom" 255 -439 basechar 0
AnchorPoint: "TTop" 225 720 basechar 0
LayerCount: 2
Back
Fore
SplineSet
-93 480 m 1,0,-1
 489 480 l 1,1,-1
 598 390 l 1,2,-1
 295 390 l 1,3,4
 324 339 324 339 356.5 274.5 c 128,-1,5
 389 210 389 210 416 145 c 128,-1,6
 443 80 443 80 461 20.5 c 128,-1,7
 479 -39 479 -39 479 -79 c 0,8,9
 479 -106 479 -106 465.5 -136 c 128,-1,10
 452 -166 452 -166 430 -190.5 c 128,-1,11
 408 -215 408 -215 380 -231 c 128,-1,12
 352 -247 352 -247 324 -247 c 0,13,14
 300 -247 300 -247 268.5 -236.5 c 128,-1,15
 237 -226 237 -226 204 -207.5 c 128,-1,16
 171 -189 171 -189 138.5 -165 c 128,-1,17
 106 -141 106 -141 81 -114 c 128,-1,18
 56 -87 56 -87 40.5 -59 c 128,-1,19
 25 -31 25 -31 25 -5 c 0,20,21
 25 3 25 3 32 13 c 128,-1,22
 39 23 39 23 47 32 c 0,23,24
 57 43 57 43 69 54 c 1,25,-1
 134 -3 l 1,26,27
 121 -20 121 -20 112 -39 c 128,-1,28
 103 -58 103 -58 103 -79 c 256,29,30
 103 -100 103 -100 114 -117.5 c 128,-1,31
 125 -135 125 -135 141.5 -147 c 128,-1,32
 158 -159 158 -159 178.5 -166 c 128,-1,33
 199 -173 199 -173 217 -173 c 0,34,35
 249 -173 249 -173 282.5 -159 c 128,-1,36
 316 -145 316 -145 343.5 -121.5 c 128,-1,37
 371 -98 371 -98 388.5 -67 c 128,-1,38
 406 -36 406 -36 406 -3 c 0,39,40
 406 26 406 26 394 75.5 c 128,-1,41
 382 125 382 125 363.5 181.5 c 128,-1,42
 345 238 345 238 323 293.5 c 128,-1,43
 301 349 301 349 282 390 c 1,44,-1
 16 390 l 1,45,-1
 -93 480 l 1,0,-1
EndSplineSet
Validated: 1
EndChar

StartChar: numbersign
Encoding: 35 35 2
Width: 517
GlyphClass: 2
Flags: W
AnchorPoint: "SZLeft" -85 50 basechar 0
AnchorPoint: "SZRight" 453 -22 basechar 0
AnchorPoint: "Nasal" 225 170 basechar 0
AnchorPoint: "TBottom" 295 -460 basechar 0
AnchorPoint: "TTop" 225 720 basechar 0
LayerCount: 2
Back
Fore
SplineSet
-94 480 m 1,0,-1
 502 480 l 1,1,-1
 611 390 l 1,2,-1
 308 390 l 1,3,4
 337 339 337 339 369.5 274.5 c 128,-1,5
 402 210 402 210 429 145 c 128,-1,6
 456 80 456 80 474 20.5 c 128,-1,7
 492 -39 492 -39 492 -79 c 0,8,9
 492 -106 492 -106 478.5 -136 c 128,-1,10
 465 -166 465 -166 443 -190.5 c 128,-1,11
 421 -215 421 -215 393 -231 c 128,-1,12
 365 -247 365 -247 337 -247 c 0,13,14
 313 -247 313 -247 281.5 -237.5 c 128,-1,15
 250 -228 250 -228 216.5 -211 c 128,-1,16
 183 -194 183 -194 150.5 -171.5 c 128,-1,17
 118 -149 118 -149 92.5 -124 c 128,-1,18
 67 -99 67 -99 51 -71.5 c 128,-1,19
 35 -44 35 -44 35 -18 c 0,20,21
 35 -9 35 -9 41 0 c 1,22,-1
 25 0 l 2,23,24
 10 0 10 0 -15 2.5 c 128,-1,25
 -40 5 -40 5 -66 15 c 128,-1,26
 -92 25 -92 25 -114.5 43.5 c 128,-1,27
 -137 62 -137 62 -146 95 c 1,28,29
 -76 80 -76 80 -5.5 73 c 128,-1,30
 65 66 65 66 136 66 c 2,31,-1
 408 66 l 1,32,33
 399 101 399 101 386 144 c 128,-1,34
 373 187 373 187 357 231 c 128,-1,35
 341 275 341 275 325 316.5 c 128,-1,36
 309 358 309 358 294 390 c 1,37,-1
 15 390 l 1,38,-1
 -94 480 l 1,0,-1
115 -80 m 0,39,40
 115 -101 115 -101 126 -118.5 c 128,-1,41
 137 -136 137 -136 154.5 -148 c 128,-1,42
 172 -160 172 -160 192 -166.5 c 128,-1,43
 212 -173 212 -173 230 -173 c 0,44,45
 262 -173 262 -173 295.5 -159 c 128,-1,46
 329 -145 329 -145 356 -122 c 128,-1,47
 383 -99 383 -99 400.5 -68 c 128,-1,48
 418 -37 418 -37 418 -3 c 1,49,50
 418 -3 418 -3 413.5 -2.5 c 128,-1,51
 409 -2 409 -2 383.5 -1.5 c 128,-1,52
 358 -1 358 -1 302 -0.5 c 128,-1,53
 246 0 246 0 143 0 c 1,54,55
 132 -16 132 -16 123.5 -38.5 c 128,-1,56
 115 -61 115 -61 115 -80 c 0,39,40
EndSplineSet
Validated: 1
EndChar

StartChar: dollar
Encoding: 36 36 3
Width: 544
GlyphClass: 2
Flags: W
AnchorPoint: "SZLeft" -75 50 basechar 0
AnchorPoint: "SZRight" 475 -11 basechar 0
AnchorPoint: "Nasal" 255 -80 basechar 0
AnchorPoint: "TBottom" 295 -460 basechar 0
AnchorPoint: "TTop" 250 720 basechar 0
LayerCount: 2
Back
Fore
SplineSet
-94 480 m 1,0,-1
 529 480 l 1,1,-1
 638 390 l 1,2,-1
 335 390 l 1,3,4
 364 339 364 339 396.5 274.5 c 128,-1,5
 429 210 429 210 456 145 c 128,-1,6
 483 80 483 80 501 20.5 c 128,-1,7
 519 -39 519 -39 519 -79 c 0,8,9
 519 -106 519 -106 505.5 -136 c 128,-1,10
 492 -166 492 -166 470 -190.5 c 128,-1,11
 448 -215 448 -215 420 -231 c 128,-1,12
 392 -247 392 -247 364 -247 c 0,13,14
 340 -247 340 -247 308.5 -237.5 c 128,-1,15
 277 -228 277 -228 243.5 -211 c 128,-1,16
 210 -194 210 -194 177.5 -171.5 c 128,-1,17
 145 -149 145 -149 119.5 -124 c 128,-1,18
 94 -99 94 -99 78 -71.5 c 128,-1,19
 62 -44 62 -44 62 -18 c 0,20,21
 62 -9 62 -9 68 0 c 1,22,-1
 52 0 l 2,23,24
 37 0 37 0 12 2.5 c 128,-1,25
 -13 5 -13 5 -39 15 c 128,-1,26
 -65 25 -65 25 -87.5 43.5 c 128,-1,27
 -110 62 -110 62 -119 95 c 1,28,29
 -49 80 -49 80 21.5 73 c 128,-1,30
 92 66 92 66 163 66 c 2,31,-1
 435 66 l 1,32,33
 430 89 430 89 421.5 117 c 128,-1,34
 413 145 413 145 404 174 c 1,35,36
 338 171 338 171 263.5 167.5 c 128,-1,37
 189 164 189 164 123 164 c 0,38,39
 99 164 99 164 82.5 171 c 128,-1,40
 66 178 66 178 54.5 190.5 c 128,-1,41
 43 203 43 203 36.5 220 c 128,-1,42
 30 237 30 237 25 258 c 1,43,44
 65 250 65 250 109 244.5 c 128,-1,45
 153 239 153 239 198 236 c 128,-1,46
 243 233 243 233 287.5 231.5 c 128,-1,47
 332 230 332 230 374 229 c 2,48,-1
 385 229 l 1,49,50
 369 274 369 274 352.5 315.5 c 128,-1,51
 336 357 336 357 322 390 c 1,52,-1
 15 390 l 1,53,-1
 -94 480 l 1,0,-1
142 -80 m 0,54,55
 142 -101 142 -101 153 -118.5 c 128,-1,56
 164 -136 164 -136 181.5 -148 c 128,-1,57
 199 -160 199 -160 219 -166.5 c 128,-1,58
 239 -173 239 -173 257 -173 c 0,59,60
 289 -173 289 -173 322.5 -159 c 128,-1,61
 356 -145 356 -145 383 -122 c 128,-1,62
 410 -99 410 -99 427.5 -68 c 128,-1,63
 445 -37 445 -37 445 -3 c 1,64,65
 445 -3 445 -3 440.5 -2.5 c 128,-1,66
 436 -2 436 -2 410.5 -1.5 c 128,-1,67
 385 -1 385 -1 329 -0.5 c 128,-1,68
 273 0 273 0 170 0 c 1,69,70
 159 -16 159 -16 150.5 -38.5 c 128,-1,71
 142 -61 142 -61 142 -80 c 0,54,55
EndSplineSet
Validated: 1
EndChar

StartChar: percent
Encoding: 37 37 4
Width: 504
GlyphClass: 2
Flags: W
AnchorPoint: "SZLeft" 75 60 basechar 0
AnchorPoint: "SZRight" 415 -20 basechar 0
AnchorPoint: "Nasal" 235 120 basechar 0
AnchorPoint: "TBottom" 255 -670 basechar 0
AnchorPoint: "TTop" 245 720 basechar 0
LayerCount: 2
Back
Fore
SplineSet
-93 480 m 1,0,-1
 489 480 l 1,1,-1
 598 390 l 1,2,-1
 317 390 l 1,3,4
 344 358 344 358 373 319.5 c 128,-1,5
 402 281 402 281 425.5 241 c 128,-1,6
 449 201 449 201 464 160.5 c 128,-1,7
 479 120 479 120 479 83 c 0,8,9
 479 60 479 60 470 37 c 128,-1,10
 461 14 461 14 446 -7 c 128,-1,11
 431 -28 431 -28 412 -45 c 128,-1,12
 393 -62 393 -62 374 -72 c 1,13,14
 398 -96 398 -96 417 -117.5 c 128,-1,15
 436 -139 436 -139 450 -163 c 128,-1,16
 464 -187 464 -187 471.5 -215 c 128,-1,17
 479 -243 479 -243 479 -278 c 0,18,19
 479 -306 479 -306 465.5 -333.5 c 128,-1,20
 452 -361 452 -361 430 -382.5 c 128,-1,21
 408 -404 408 -404 380 -417.5 c 128,-1,22
 352 -431 352 -431 324 -431 c 0,23,24
 300 -431 300 -431 268.5 -420.5 c 128,-1,25
 237 -410 237 -410 204 -391.5 c 128,-1,26
 171 -373 171 -373 138.5 -349 c 128,-1,27
 106 -325 106 -325 81 -298 c 128,-1,28
 56 -271 56 -271 40.5 -243 c 128,-1,29
 25 -215 25 -215 25 -189 c 0,30,31
 25 -181 25 -181 32 -171 c 128,-1,32
 39 -161 39 -161 47 -152 c 0,33,34
 57 -141 57 -141 69 -130 c 1,35,-1
 134 -187 l 1,36,37
 121 -204 121 -204 112 -223 c 128,-1,38
 103 -242 103 -242 103 -263 c 256,39,40
 103 -284 103 -284 114 -301.5 c 128,-1,41
 125 -319 125 -319 141.5 -331 c 128,-1,42
 158 -343 158 -343 178.5 -350 c 128,-1,43
 199 -357 199 -357 217 -357 c 0,44,45
 248 -357 248 -357 281 -345.5 c 128,-1,46
 314 -334 314 -334 342 -313.5 c 128,-1,47
 370 -293 370 -293 388 -264.5 c 128,-1,48
 406 -236 406 -236 406 -202 c 0,49,50
 406 -191 406 -191 398 -171 c 128,-1,51
 390 -151 390 -151 377.5 -131.5 c 128,-1,52
 365 -112 365 -112 350.5 -98 c 128,-1,53
 336 -84 336 -84 324 -84 c 0,54,55
 300 -84 300 -84 268.5 -73.5 c 128,-1,56
 237 -63 237 -63 204 -44.5 c 128,-1,57
 171 -26 171 -26 138.5 -2 c 128,-1,58
 106 22 106 22 81 49 c 128,-1,59
 56 76 56 76 40.5 104 c 128,-1,60
 25 132 25 132 25 158 c 0,61,62
 25 166 25 166 32 176 c 128,-1,63
 39 186 39 186 47 195 c 0,64,65
 57 206 57 206 69 217 c 1,66,-1
 134 160 l 1,67,68
 121 143 121 143 112 124 c 128,-1,69
 103 105 103 105 103 84 c 256,70,71
 103 63 103 63 114 45.5 c 128,-1,72
 125 28 125 28 141.5 16 c 128,-1,73
 158 4 158 4 178.5 -3 c 128,-1,74
 199 -10 199 -10 217 -10 c 0,75,76
 248 -10 248 -10 281.5 4 c 128,-1,77
 315 18 315 18 343 41 c 128,-1,78
 371 64 371 64 388.5 95 c 128,-1,79
 406 126 406 126 406 159 c 0,80,81
 406 185 406 185 396 215 c 128,-1,82
 386 245 386 245 370 275.5 c 128,-1,83
 354 306 354 306 334.5 335.5 c 128,-1,84
 315 365 315 365 297 390 c 1,85,-1
 16 390 l 1,86,-1
 -93 480 l 1,0,-1
EndSplineSet
Validated: 1
EndChar

StartChar: ampersand
Encoding: 38 38 5
Width: 807
GlyphClass: 2
Flags: W
AnchorPoint: "SZLeft" -95 50 basechar 0
AnchorPoint: "SZRight" 747 -28 basechar 0
AnchorPoint: "Nasal" 375 230 basechar 0
AnchorPoint: "TBottom" 415 -480 basechar 0
AnchorPoint: "TTop" 375 720 basechar 0
LayerCount: 2
Back
Fore
SplineSet
-95 480 m 1,0,-1
 792 480 l 1,1,-1
 901 390 l 1,2,-1
 598 390 l 1,3,4
 627 339 627 339 659.5 274.5 c 128,-1,5
 692 210 692 210 719 145 c 128,-1,6
 746 80 746 80 764 20.5 c 128,-1,7
 782 -39 782 -39 782 -79 c 0,8,9
 782 -106 782 -106 768.5 -136 c 128,-1,10
 755 -166 755 -166 733 -190.5 c 128,-1,11
 711 -215 711 -215 683 -231 c 128,-1,12
 655 -247 655 -247 627 -247 c 0,13,14
 592 -247 592 -247 543.5 -227 c 128,-1,15
 495 -207 495 -207 447 -175 c 1,16,17
 424 -205 424 -205 393.5 -225.5 c 128,-1,18
 363 -246 363 -246 330 -246 c 0,19,20
 306 -246 306 -246 274.5 -236.5 c 128,-1,21
 243 -227 243 -227 209 -210.5 c 128,-1,22
 175 -194 175 -194 142 -171.5 c 128,-1,23
 109 -149 109 -149 83 -123.5 c 128,-1,24
 57 -98 57 -98 41 -71 c 128,-1,25
 25 -44 25 -44 25 -18 c 0,26,27
 25 -9 25 -9 31 0 c 1,28,-1
 15 0 l 2,29,30
 0 0 0 0 -25 2.5 c 128,-1,31
 -50 5 -50 5 -76 15 c 128,-1,32
 -102 25 -102 25 -124.5 43.5 c 128,-1,33
 -147 62 -147 62 -156 95 c 1,34,35
 -86 80 -86 80 -15.5 73 c 128,-1,36
 55 66 55 66 126 66 c 2,37,-1
 698 66 l 1,38,39
 689 101 689 101 676 144 c 128,-1,40
 663 187 663 187 647 231 c 128,-1,41
 631 275 631 275 615 316.5 c 128,-1,42
 599 358 599 358 584 390 c 1,43,-1
 14 390 l 1,44,-1
 -95 480 l 1,0,-1
433 0 m 1,45,46
 422 -16 422 -16 413.5 -38.5 c 128,-1,47
 405 -61 405 -61 405 -80 c 0,48,49
 405 -101 405 -101 416 -118.5 c 128,-1,50
 427 -136 427 -136 444.5 -148 c 128,-1,51
 462 -160 462 -160 482 -166.5 c 128,-1,52
 502 -173 502 -173 520 -173 c 0,53,54
 552 -173 552 -173 585.5 -159 c 128,-1,55
 619 -145 619 -145 646 -121.5 c 128,-1,56
 673 -98 673 -98 690.5 -66.5 c 128,-1,57
 708 -35 708 -35 708 0 c 1,58,-1
 433 0 l 1,45,46
105 -80 m 0,59,60
 105 -101 105 -101 116 -118.5 c 128,-1,61
 127 -136 127 -136 144.5 -148 c 128,-1,62
 162 -160 162 -160 182 -166.5 c 128,-1,63
 202 -173 202 -173 220 -173 c 0,64,65
 258 -173 258 -173 296.5 -154 c 128,-1,66
 335 -135 335 -135 364 -104 c 1,67,68
 346 -83 346 -83 335.5 -61 c 128,-1,69
 325 -39 325 -39 325 -18 c 0,70,71
 325 -9 325 -9 331 0 c 1,72,-1
 133 0 l 1,73,74
 122 -16 122 -16 113.5 -38.5 c 128,-1,75
 105 -61 105 -61 105 -80 c 0,59,60
EndSplineSet
Validated: 1
EndChar

StartChar: quotesingle
Encoding: 39 39 6
Width: 807
GlyphClass: 2
Flags: W
AnchorPoint: "SZLeft" -115 40 basechar 0
AnchorPoint: "SZRight" 736 -28 basechar 0
AnchorPoint: "Nasal" 215 -70 basechar 0
AnchorPoint: "TBottom" 425 -481 basechar 0
AnchorPoint: "TTop" 375 720 basechar 0
LayerCount: 2
Back
Fore
SplineSet
-94 480 m 1,0,-1
 792 480 l 1,1,-1
 901 390 l 1,2,-1
 598 390 l 1,3,4
 627 339 627 339 659.5 274.5 c 128,-1,5
 692 210 692 210 719 145 c 128,-1,6
 746 80 746 80 764 20.5 c 128,-1,7
 782 -39 782 -39 782 -79 c 0,8,9
 782 -106 782 -106 768.5 -136 c 128,-1,10
 755 -166 755 -166 733 -190.5 c 128,-1,11
 711 -215 711 -215 683 -231 c 128,-1,12
 655 -247 655 -247 627 -247 c 0,13,14
 592 -247 592 -247 543.5 -227 c 128,-1,15
 495 -207 495 -207 447 -175 c 1,16,17
 424 -205 424 -205 393.5 -225.5 c 128,-1,18
 363 -246 363 -246 330 -246 c 0,19,20
 306 -246 306 -246 274.5 -236.5 c 128,-1,21
 243 -227 243 -227 209 -210.5 c 128,-1,22
 175 -194 175 -194 142 -171.5 c 128,-1,23
 109 -149 109 -149 83 -123.5 c 128,-1,24
 57 -98 57 -98 41 -71 c 128,-1,25
 25 -44 25 -44 25 -18 c 0,26,27
 25 -9 25 -9 31 0 c 1,28,29
 -13 -2 -13 -2 -51 7 c 0,30,31
 -67 11 -67 11 -83.5 17.5 c 128,-1,32
 -100 24 -100 24 -114 34.5 c 128,-1,33
 -128 45 -128 45 -139 60 c 128,-1,34
 -150 75 -150 75 -156 95 c 1,35,36
 -86 80 -86 80 -15.5 73 c 128,-1,37
 55 66 55 66 126 66 c 2,38,-1
 698 66 l 1,39,40
 693 89 693 89 684.5 117 c 128,-1,41
 676 145 676 145 667 174 c 1,42,43
 645 173 645 173 607 172 c 128,-1,44
 569 171 569 171 524 170 c 128,-1,45
 479 169 479 169 429.5 167.5 c 128,-1,46
 380 166 380 166 335 165.5 c 128,-1,47
 290 165 290 165 252.5 164.5 c 128,-1,48
 215 164 215 164 193 164 c 0,49,50
 169 164 169 164 152.5 171 c 128,-1,51
 136 178 136 178 124.5 190.5 c 128,-1,52
 113 203 113 203 106.5 220 c 128,-1,53
 100 237 100 237 95 258 c 1,54,55
 122 252 122 252 166 248 c 128,-1,56
 210 244 210 244 262 241 c 128,-1,57
 314 238 314 238 370.5 236 c 128,-1,58
 427 234 427 234 479 232.5 c 128,-1,59
 531 231 531 231 575.5 230.5 c 128,-1,60
 620 230 620 230 648 229 c 1,61,62
 632 274 632 274 615.5 315.5 c 128,-1,63
 599 357 599 357 585 390 c 1,64,-1
 15 390 l 1,65,-1
 -94 480 l 1,0,-1
405 -80 m 0,66,67
 405 -101 405 -101 416 -118.5 c 128,-1,68
 427 -136 427 -136 444.5 -148 c 128,-1,69
 462 -160 462 -160 482 -166.5 c 128,-1,70
 502 -173 502 -173 520 -173 c 0,71,72
 553 -173 553 -173 586.5 -159 c 128,-1,73
 620 -145 620 -145 647.5 -121 c 128,-1,74
 675 -97 675 -97 692 -66 c 128,-1,75
 709 -35 709 -35 708 0 c 1,76,-1
 433 0 l 1,77,78
 422 -16 422 -16 413.5 -38.5 c 128,-1,79
 405 -61 405 -61 405 -80 c 0,66,67
105 -80 m 0,80,81
 105 -101 105 -101 116 -118.5 c 128,-1,82
 127 -136 127 -136 144.5 -148 c 128,-1,83
 162 -160 162 -160 182 -166.5 c 128,-1,84
 202 -173 202 -173 220 -173 c 0,85,86
 258 -173 258 -173 296.5 -154 c 128,-1,87
 335 -135 335 -135 364 -104 c 1,88,89
 346 -83 346 -83 335.5 -61 c 128,-1,90
 325 -39 325 -39 325 -18 c 0,91,92
 325 -9 325 -9 331 0 c 1,93,-1
 133 0 l 1,94,95
 122 -16 122 -16 113.5 -38.5 c 128,-1,96
 105 -61 105 -61 105 -80 c 0,80,81
EndSplineSet
Validated: 33
EndChar

StartChar: parenleft
Encoding: 40 40 7
Width: 802
GlyphClass: 2
Flags: W
AnchorPoint: "SZLeft" -35 20 basechar 0
AnchorPoint: "SZRight" 664 0 basechar 0
AnchorPoint: "Nasal" 365 220 basechar 0
AnchorPoint: "TBottom" 375 -290 basechar 0
AnchorPoint: "TTop" 375 720 basechar 0
LayerCount: 2
Back
Fore
SplineSet
-94 480 m 1,0,-1
 787 480 l 1,1,-1
 896 390 l 1,2,-1
 662 390 l 1,3,4
 685 364 685 364 706 337 c 128,-1,5
 727 310 727 310 742.5 280 c 128,-1,6
 758 250 758 250 767.5 217 c 128,-1,7
 777 184 777 184 777 145 c 0,8,9
 777 118 777 118 764.5 92 c 128,-1,10
 752 66 752 66 731.5 45.5 c 128,-1,11
 711 25 711 25 684.5 12 c 128,-1,12
 658 -1 658 -1 630 -1 c 2,13,-1
 136 0 l 2,14,15
 78 0 78 0 51.5 -33 c 128,-1,16
 25 -66 25 -66 25 -120 c 0,17,18
 25 -149 25 -149 38 -180 c 1,19,20
 24 -171 24 -171 5 -158.5 c 128,-1,21
 -14 -146 -14 -146 -31.5 -130 c 128,-1,22
 -49 -114 -49 -114 -61.5 -97 c 128,-1,23
 -74 -80 -74 -80 -74 -62 c 0,24,25
 -74 -14 -74 -14 -55.5 11 c 128,-1,26
 -37 36 -37 36 -7 47 c 128,-1,27
 23 58 23 58 59.5 59.5 c 128,-1,28
 96 61 96 61 132 61 c 2,29,-1
 520 60 l 2,30,31
 552 60 552 60 585 71.5 c 128,-1,32
 618 83 618 83 645 103 c 128,-1,33
 672 123 672 123 689 151 c 128,-1,34
 706 179 706 179 706 211 c 0,35,36
 706 271 706 271 693 312 c 128,-1,37
 680 353 680 353 652 390 c 1,38,-1
 15 390 l 1,39,-1
 -94 480 l 1,0,-1
EndSplineSet
Validated: 1
EndChar

StartChar: parenright
Encoding: 41 41 8
Width: 802
GlyphClass: 2
Flags: W
AnchorPoint: "SZLeft" -35 -10 basechar 0
AnchorPoint: "SZRight" 664 0 basechar 0
AnchorPoint: "Nasal" 255 240 basechar 0
AnchorPoint: "TBottom" 395 -250 basechar 0
AnchorPoint: "TTop" 385 720 basechar 0
LayerCount: 2
Back
Fore
SplineSet
-94 480 m 1,0,-1
 787 480 l 1,1,-1
 896 390 l 1,2,-1
 693 390 l 1,3,4
 726 360 726 360 751 327 c 128,-1,5
 776 294 776 294 776 260 c 0,6,7
 776 242 776 242 762 229 c 128,-1,8
 748 216 748 216 725 208 c 1,9,10
 748 183 748 183 762.5 157 c 128,-1,11
 777 131 777 131 777 105 c 0,12,13
 777 78 777 78 764.5 58.5 c 128,-1,14
 752 39 752 39 731.5 25.5 c 128,-1,15
 711 12 711 12 684.5 5.5 c 128,-1,16
 658 -1 658 -1 630 -1 c 2,17,-1
 136 0 l 2,18,19
 78 0 78 0 51.5 -33 c 128,-1,20
 25 -66 25 -66 25 -120 c 0,21,22
 25 -149 25 -149 38 -180 c 1,23,24
 24 -171 24 -171 5 -158.5 c 128,-1,25
 -14 -146 -14 -146 -31.5 -130 c 128,-1,26
 -49 -114 -49 -114 -61.5 -97 c 128,-1,27
 -74 -80 -74 -80 -74 -62 c 0,28,29
 -74 -14 -74 -14 -55.5 11 c 128,-1,30
 -37 36 -37 36 -7 47 c 128,-1,31
 23 58 23 58 59.5 59.5 c 128,-1,32
 96 61 96 61 132 61 c 2,33,-1
 520 60 l 2,34,35
 552 60 552 60 585 63.5 c 128,-1,36
 618 67 618 67 645 78 c 128,-1,37
 672 89 672 89 689 109 c 128,-1,38
 706 129 706 129 706 161 c 0,39,40
 706 183 706 183 700 201 c 1,41,42
 678 196 678 196 654 193 c 128,-1,43
 630 190 630 190 607.5 189 c 128,-1,44
 585 188 585 188 566 188 c 128,-1,45
 547 188 547 188 536 188 c 0,46,47
 490 189 490 189 450.5 205 c 128,-1,48
 411 221 411 221 382 269 c 1,49,50
 395 266 395 266 424.5 260 c 128,-1,51
 454 254 454 254 489.5 249 c 128,-1,52
 525 244 525 244 563 241.5 c 128,-1,53
 601 239 601 239 632.5 243 c 128,-1,54
 664 247 664 247 684 259.5 c 128,-1,55
 704 272 704 272 704 297 c 0,56,57
 704 325 704 325 694 348 c 128,-1,58
 684 371 684 371 670 390 c 1,59,-1
 15 390 l 1,60,-1
 -94 480 l 1,0,-1
EndSplineSet
Validated: 33
EndChar

StartChar: asterisk
Encoding: 42 42 9
Width: 802
GlyphClass: 2
Flags: W
AnchorPoint: "SZLeft" -25 0 basechar 0
AnchorPoint: "SZRight" 658 0 basechar 0
AnchorPoint: "Nasal" 454 137 basechar 0
AnchorPoint: "TBottom" 375 -259 basechar 0
AnchorPoint: "TTop" 385 720 basechar 0
LayerCount: 2
Back
Fore
SplineSet
-94 480 m 1,0,-1
 787 480 l 1,1,-1
 896 390 l 1,2,-1
 662 390 l 1,3,4
 685 364 685 364 706 337 c 128,-1,5
 727 310 727 310 742.5 280 c 128,-1,6
 758 250 758 250 767.5 217 c 128,-1,7
 777 184 777 184 777 145 c 0,8,9
 777 118 777 118 764.5 92 c 128,-1,10
 752 66 752 66 731.5 45.5 c 128,-1,11
 711 25 711 25 684.5 12 c 128,-1,12
 658 -1 658 -1 630 -1 c 2,13,-1
 136 0 l 2,14,15
 78 0 78 0 51.5 -33 c 128,-1,16
 25 -66 25 -66 25 -120 c 0,17,18
 25 -149 25 -149 38 -180 c 1,19,20
 24 -171 24 -171 5 -158.5 c 128,-1,21
 -14 -146 -14 -146 -31.5 -130 c 128,-1,22
 -49 -114 -49 -114 -61.5 -97 c 128,-1,23
 -74 -80 -74 -80 -74 -62 c 0,24,25
 -74 -14 -74 -14 -55.5 11 c 128,-1,26
 -37 36 -37 36 -7 47 c 128,-1,27
 23 58 23 58 59.5 59.5 c 128,-1,28
 96 61 96 61 132 61 c 2,29,-1
 520 60 l 2,30,31
 551 60 551 60 584 71 c 128,-1,32
 617 82 617 82 644 102 c 128,-1,33
 671 122 671 122 688 149 c 128,-1,34
 705 176 705 176 706 208 c 1,35,-1
 341 209 l 2,36,37
 324 209 324 209 307 205 c 128,-1,38
 290 201 290 201 276.5 192 c 128,-1,39
 263 183 263 183 254 169 c 128,-1,40
 245 155 245 155 245 136 c 0,41,42
 245 126 245 126 248 116 c 1,43,44
 235 126 235 126 221.5 137.5 c 128,-1,45
 208 149 208 149 197 162.5 c 128,-1,46
 186 176 186 176 179 191.5 c 128,-1,47
 172 207 172 207 172 225 c 0,48,49
 172 241 172 241 181.5 249.5 c 128,-1,50
 191 258 191 258 204.5 262 c 128,-1,51
 218 266 218 266 233.5 267 c 128,-1,52
 249 268 249 268 260 268 c 2,53,-1
 695 269 l 1,54,-1
 703 261 l 1,55,56
 698 300 698 300 685.5 330.5 c 128,-1,57
 673 361 673 361 652 390 c 1,58,-1
 15 390 l 1,59,-1
 -94 480 l 1,0,-1
EndSplineSet
Validated: 1
EndChar

StartChar: plus
Encoding: 43 43 10
Width: 802
GlyphClass: 2
Flags: W
AnchorPoint: "SZLeft" -25 0 basechar 0
AnchorPoint: "SZRight" 647 0 basechar 0
AnchorPoint: "Nasal" 507 230 basechar 0
AnchorPoint: "TBottom" 375 -230 basechar 0
AnchorPoint: "TTop" 385 720 basechar 0
LayerCount: 2
Back
Fore
SplineSet
-94 480 m 1,0,-1
 787 480 l 1,1,-1
 896 390 l 1,2,-1
 662 390 l 1,3,4
 685 364 685 364 706 337 c 128,-1,5
 727 310 727 310 742.5 280 c 128,-1,6
 758 250 758 250 767.5 217 c 128,-1,7
 777 184 777 184 777 145 c 0,8,9
 777 118 777 118 764.5 92 c 128,-1,10
 752 66 752 66 731.5 45.5 c 128,-1,11
 711 25 711 25 684.5 12 c 128,-1,12
 658 -1 658 -1 630 -1 c 2,13,-1
 136 0 l 2,14,15
 78 0 78 0 51.5 -33 c 128,-1,16
 25 -66 25 -66 25 -120 c 0,17,18
 25 -149 25 -149 38 -180 c 1,19,20
 24 -171 24 -171 5 -158.5 c 128,-1,21
 -14 -146 -14 -146 -31.5 -130 c 128,-1,22
 -49 -114 -49 -114 -61.5 -97 c 128,-1,23
 -74 -80 -74 -80 -74 -62 c 0,24,25
 -74 -14 -74 -14 -55.5 11 c 128,-1,26
 -37 36 -37 36 -7 47 c 128,-1,27
 23 58 23 58 59.5 59.5 c 128,-1,28
 96 61 96 61 132 61 c 2,29,-1
 253 60 l 1,30,-1
 253 390 l 1,31,-1
 15 390 l 1,32,-1
 -94 480 l 1,0,-1
520 60 m 2,33,34
 552 60 552 60 585 71.5 c 128,-1,35
 618 83 618 83 645 103 c 128,-1,36
 672 123 672 123 689 151 c 128,-1,37
 706 179 706 179 706 211 c 0,38,39
 706 271 706 271 693 312 c 128,-1,40
 680 353 680 353 652 390 c 1,41,-1
 350 390 l 1,42,43
 350 340 350 340 349.5 299.5 c 128,-1,44
 349 259 349 259 349 221.5 c 128,-1,45
 349 184 349 184 351 145 c 128,-1,46
 353 106 353 106 358 60 c 1,47,-1
 520 60 l 2,33,34
EndSplineSet
Validated: 1
EndChar

StartChar: comma
Encoding: 44 44 11
Width: 802
GlyphClass: 2
Flags: W
AnchorPoint: "SZLeft" -25 10 basechar 0
AnchorPoint: "SZRight" 653 0 basechar 0
AnchorPoint: "Nasal" 505 230 basechar 0
AnchorPoint: "TBottom" 365 -260 basechar 0
AnchorPoint: "TTop" 385 720 basechar 0
LayerCount: 2
Back
Fore
SplineSet
-94 480 m 1,0,-1
 787 480 l 1,1,-1
 896 390 l 1,2,-1
 662 390 l 1,3,4
 685 364 685 364 706 337 c 128,-1,5
 727 310 727 310 742.5 280 c 128,-1,6
 758 250 758 250 767.5 217 c 128,-1,7
 777 184 777 184 777 145 c 0,8,9
 777 118 777 118 764.5 92 c 128,-1,10
 752 66 752 66 731.5 45.5 c 128,-1,11
 711 25 711 25 684.5 12 c 128,-1,12
 658 -1 658 -1 630 -1 c 2,13,-1
 136 0 l 2,14,15
 78 0 78 0 51.5 -33 c 128,-1,16
 25 -66 25 -66 25 -120 c 0,17,18
 25 -149 25 -149 38 -180 c 1,19,20
 24 -171 24 -171 5 -158.5 c 128,-1,21
 -14 -146 -14 -146 -31.5 -130 c 128,-1,22
 -49 -114 -49 -114 -61.5 -97 c 128,-1,23
 -74 -80 -74 -80 -74 -62 c 0,24,25
 -74 -14 -74 -14 -55.5 11 c 128,-1,26
 -37 36 -37 36 -7 47 c 128,-1,27
 23 58 23 58 59.5 59.5 c 128,-1,28
 96 61 96 61 132 61 c 2,29,-1
 253 60 l 1,30,-1
 253 209 l 1,31,-1
 135 209 l 2,32,33
 118 209 118 209 101 205 c 128,-1,34
 84 201 84 201 70.5 192 c 128,-1,35
 57 183 57 183 48 169 c 128,-1,36
 39 155 39 155 39 136 c 0,37,38
 39 126 39 126 42 116 c 1,39,40
 29 126 29 126 15.5 137.5 c 128,-1,41
 2 149 2 149 -9 162.5 c 128,-1,42
 -20 176 -20 176 -27 191.5 c 128,-1,43
 -34 207 -34 207 -34 225 c 0,44,45
 -34 241 -34 241 -24.5 249.5 c 128,-1,46
 -15 258 -15 258 -1.5 262 c 128,-1,47
 12 266 12 266 27.5 267 c 128,-1,48
 43 268 43 268 54 268 c 2,49,-1
 244 268 l 1,50,-1
 253 261 l 1,51,-1
 253 390 l 1,52,-1
 15 390 l 1,53,-1
 -94 480 l 1,0,-1
520 60 m 2,54,55
 552 60 552 60 585 71.5 c 128,-1,56
 618 83 618 83 645 103 c 128,-1,57
 672 123 672 123 689 151 c 128,-1,58
 706 179 706 179 706 211 c 0,59,60
 706 271 706 271 693 312 c 128,-1,61
 680 353 680 353 652 390 c 1,62,-1
 350 390 l 1,63,64
 350 340 350 340 349.5 299.5 c 128,-1,65
 349 259 349 259 349 221.5 c 128,-1,66
 349 184 349 184 351 145 c 128,-1,67
 353 106 353 106 358 60 c 1,68,-1
 520 60 l 2,54,55
EndSplineSet
Validated: 1
EndChar

StartChar: hyphen
Encoding: 45 45 12
Width: 802
GlyphClass: 2
Flags: W
AnchorPoint: "SZLeft" -15 20 basechar 0
AnchorPoint: "SZRight" 647 0 basechar 0
AnchorPoint: "Nasal" 565 230 basechar 0
AnchorPoint: "TBottom" 375 -240 basechar 0
AnchorPoint: "TTop" 385 720 basechar 0
LayerCount: 2
Back
Fore
SplineSet
-94 480 m 1,0,-1
 787 480 l 1,1,-1
 896 390 l 1,2,-1
 662 390 l 1,3,4
 685 364 685 364 706 337 c 128,-1,5
 727 310 727 310 742.5 280 c 128,-1,6
 758 250 758 250 767.5 217 c 128,-1,7
 777 184 777 184 777 145 c 0,8,9
 777 118 777 118 764.5 92 c 128,-1,10
 752 66 752 66 731.5 45.5 c 128,-1,11
 711 25 711 25 684.5 12 c 128,-1,12
 658 -1 658 -1 630 -1 c 2,13,-1
 136 0 l 2,14,15
 78 0 78 0 51.5 -33 c 128,-1,16
 25 -66 25 -66 25 -120 c 0,17,18
 25 -149 25 -149 38 -180 c 1,19,20
 24 -171 24 -171 5 -158.5 c 128,-1,21
 -14 -146 -14 -146 -31.5 -130 c 128,-1,22
 -49 -114 -49 -114 -61.5 -97 c 128,-1,23
 -74 -80 -74 -80 -74 -62 c 0,24,25
 -74 -14 -74 -14 -55.5 11 c 128,-1,26
 -37 36 -37 36 -7 47 c 128,-1,27
 23 58 23 58 59.5 59.5 c 128,-1,28
 96 61 96 61 132 61 c 2,29,-1
 153 61 l 1,30,-1
 153 390 l 1,31,-1
 15 390 l 1,32,-1
 -94 480 l 1,0,-1
520 60 m 2,33,34
 552 60 552 60 585 71.5 c 128,-1,35
 618 83 618 83 645 103 c 128,-1,36
 672 123 672 123 689 151 c 128,-1,37
 706 179 706 179 706 211 c 0,38,39
 706 271 706 271 693 312 c 128,-1,40
 680 353 680 353 652 390 c 1,41,-1
 450 390 l 1,42,43
 450 340 450 340 449.5 299.5 c 128,-1,44
 449 259 449 259 449 221.5 c 128,-1,45
 449 184 449 184 451 145 c 128,-1,46
 453 106 453 106 458 60 c 1,47,-1
 520 60 l 2,33,34
353 60 m 1,48,-1
 353 390 l 1,49,-1
 250 390 l 1,50,51
 250 340 250 340 249.5 299.5 c 128,-1,52
 249 259 249 259 249 221.5 c 128,-1,53
 249 184 249 184 251 145 c 128,-1,54
 253 106 253 106 258 60 c 1,55,-1
 353 60 l 1,48,-1
EndSplineSet
Validated: 1
EndChar

StartChar: period
Encoding: 46 46 13
Width: 888
GlyphClass: 2
Flags: W
AnchorPoint: "SZLeft" 75 20 basechar 0
AnchorPoint: "SZRight" 736 0 basechar 0
AnchorPoint: "Nasal" 645 240 basechar 0
AnchorPoint: "TBottom" 445 -250 basechar 0
AnchorPoint: "TTop" 445 727 basechar 0
LayerCount: 2
Back
Fore
SplineSet
-94 480 m 1,0,-1
 873 480 l 1,1,-1
 982 390 l 1,2,-1
 748 390 l 1,3,4
 771 364 771 364 792 337 c 128,-1,5
 813 310 813 310 828.5 280 c 128,-1,6
 844 250 844 250 853.5 217 c 128,-1,7
 863 184 863 184 863 145 c 0,8,9
 863 118 863 118 850.5 92 c 128,-1,10
 838 66 838 66 817.5 45.5 c 128,-1,11
 797 25 797 25 770.5 12 c 128,-1,12
 744 -1 744 -1 716 -1 c 2,13,-1
 222 0 l 2,14,15
 164 0 164 0 137.5 -33 c 128,-1,16
 111 -66 111 -66 111 -120 c 0,17,18
 111 -149 111 -149 124 -180 c 1,19,20
 110 -171 110 -171 91 -158.5 c 128,-1,21
 72 -146 72 -146 54.5 -130 c 128,-1,22
 37 -114 37 -114 24.5 -97 c 128,-1,23
 12 -80 12 -80 12 -62 c 0,24,25
 12 -14 12 -14 30.5 11 c 128,-1,26
 49 36 49 36 79 47 c 128,-1,27
 109 58 109 58 145.5 59.5 c 128,-1,28
 182 61 182 61 218 61 c 2,29,-1
 239 61 l 1,30,-1
 239 209 l 1,31,-1
 121 209 l 2,32,33
 104 209 104 209 87 205 c 128,-1,34
 70 201 70 201 56.5 192 c 128,-1,35
 43 183 43 183 34 169 c 128,-1,36
 25 155 25 155 25 136 c 0,37,38
 25 126 25 126 28 116 c 1,39,40
 15 126 15 126 1.5 137.5 c 128,-1,41
 -12 149 -12 149 -23 162.5 c 128,-1,42
 -34 176 -34 176 -41 191.5 c 128,-1,43
 -48 207 -48 207 -48 225 c 0,44,45
 -48 241 -48 241 -38.5 249.5 c 128,-1,46
 -29 258 -29 258 -15.5 262 c 128,-1,47
 -2 266 -2 266 13.5 267 c 128,-1,48
 29 268 29 268 40 268 c 2,49,-1
 230 268 l 1,50,-1
 239 261 l 1,51,-1
 239 390 l 1,52,-1
 15 390 l 1,53,-1
 -94 480 l 1,0,-1
606 60 m 2,54,55
 638 60 638 60 671 71.5 c 128,-1,56
 704 83 704 83 731 103 c 128,-1,57
 758 123 758 123 775 151 c 128,-1,58
 792 179 792 179 792 211 c 0,59,60
 792 271 792 271 779 312 c 128,-1,61
 766 353 766 353 738 390 c 1,62,-1
 536 390 l 1,63,64
 536 340 536 340 535.5 299.5 c 128,-1,65
 535 259 535 259 535 221.5 c 128,-1,66
 535 184 535 184 537 145 c 128,-1,67
 539 106 539 106 544 60 c 1,68,-1
 606 60 l 2,54,55
439 60 m 1,69,-1
 439 390 l 1,70,-1
 336 390 l 1,71,72
 336 340 336 340 335.5 299.5 c 128,-1,73
 335 259 335 259 335 221.5 c 128,-1,74
 335 184 335 184 337 145 c 128,-1,75
 339 106 339 106 344 60 c 1,76,-1
 439 60 l 1,69,-1
EndSplineSet
Validated: 1
EndChar

StartChar: slash
Encoding: 47 47 14
Width: 888
GlyphClass: 2
Flags: W
AnchorPoint: "SZLeft" 45 -10 basechar 0
AnchorPoint: "SZRight" 742 0 basechar 0
AnchorPoint: "Nasal" 645 230 basechar 0
AnchorPoint: "TBottom" 455 -250 basechar 0
AnchorPoint: "TTop" 485 720 basechar 0
LayerCount: 2
Back
Fore
SplineSet
-94 480 m 1,0,-1
 873 480 l 1,1,-1
 982 390 l 1,2,-1
 748 390 l 1,3,4
 771 364 771 364 792 337 c 128,-1,5
 813 310 813 310 828.5 280 c 128,-1,6
 844 250 844 250 853.5 217 c 128,-1,7
 863 184 863 184 863 145 c 0,8,9
 863 118 863 118 850.5 92 c 128,-1,10
 838 66 838 66 817.5 45.5 c 128,-1,11
 797 25 797 25 770.5 12 c 128,-1,12
 744 -1 744 -1 716 -1 c 2,13,-1
 222 0 l 2,14,15
 164 0 164 0 137.5 -33 c 128,-1,16
 111 -66 111 -66 111 -120 c 0,17,18
 111 -149 111 -149 124 -180 c 1,19,20
 110 -171 110 -171 91 -158.5 c 128,-1,21
 72 -146 72 -146 54.5 -130 c 128,-1,22
 37 -114 37 -114 24.5 -97 c 128,-1,23
 12 -80 12 -80 12 -62 c 0,24,25
 12 -14 12 -14 30.5 11 c 128,-1,26
 49 36 49 36 79 47 c 128,-1,27
 109 58 109 58 145.5 59.5 c 128,-1,28
 182 61 182 61 218 61 c 2,29,-1
 239 61 l 1,30,-1
 239 209 l 1,31,-1
 121 209 l 2,32,33
 104 209 104 209 87 205 c 128,-1,34
 70 201 70 201 56.5 192 c 128,-1,35
 43 183 43 183 34 169 c 128,-1,36
 25 155 25 155 25 136 c 0,37,38
 25 126 25 126 28 116 c 1,39,40
 15 126 15 126 1.5 137.5 c 128,-1,41
 -12 149 -12 149 -23 162.5 c 128,-1,42
 -34 176 -34 176 -41 191.5 c 128,-1,43
 -48 207 -48 207 -48 225 c 0,44,45
 -48 241 -48 241 -38.5 249.5 c 128,-1,46
 -29 258 -29 258 -15.5 262 c 128,-1,47
 -2 266 -2 266 13.5 267 c 128,-1,48
 29 268 29 268 40 268 c 2,49,-1
 239 268 l 1,50,-1
 239 390 l 1,51,-1
 15 390 l 1,52,-1
 -94 480 l 1,0,-1
606 60 m 2,53,54
 638 60 638 60 671 71.5 c 128,-1,55
 704 83 704 83 731 103 c 128,-1,56
 758 123 758 123 775 151 c 128,-1,57
 792 179 792 179 792 211 c 0,58,59
 792 271 792 271 779 312 c 128,-1,60
 766 353 766 353 738 390 c 1,61,-1
 536 390 l 1,62,63
 536 340 536 340 535.5 299.5 c 128,-1,64
 535 259 535 259 535 221.5 c 128,-1,65
 535 184 535 184 537 145 c 128,-1,66
 539 106 539 106 544 60 c 1,67,-1
 606 60 l 2,53,54
335 209 m 1,68,69
 335 189 335 189 335.5 171.5 c 128,-1,70
 336 154 336 154 337 137 c 128,-1,71
 338 120 338 120 339.5 101.5 c 128,-1,72
 341 83 341 83 344 60 c 1,73,-1
 439 60 l 1,74,-1
 439 209 l 1,75,-1
 335 209 l 1,68,69
430 268 m 1,76,-1
 439 261 l 1,77,-1
 439 390 l 1,78,-1
 336 390 l 1,79,80
 336 356 336 356 335.5 326 c 128,-1,81
 335 296 335 296 335 268 c 1,82,-1
 430 268 l 1,76,-1
EndSplineSet
Validated: 1
EndChar

StartChar: zero
Encoding: 48 48 15
Width: 848
GlyphClass: 2
Flags: W
AnchorPoint: "SZLeft" 115 80 basechar 0
AnchorPoint: "SZRight" 836 -22 basechar 0
AnchorPoint: "Nasal" 275 230 basechar 0
AnchorPoint: "TBottom" 465 -240 basechar 0
AnchorPoint: "TTop" 445 720 basechar 0
LayerCount: 2
Back
Fore
SplineSet
-94 480 m 1,0,-1
 833 480 l 1,1,-1
 942 390 l 1,2,-1
 550 390 l 1,3,4
 550 340 550 340 549.5 299.5 c 128,-1,5
 549 259 549 259 549 221.5 c 128,-1,6
 549 184 549 184 551 145 c 128,-1,7
 553 106 553 106 558 60 c 1,8,-1
 706 60 l 2,9,10
 739 60 739 60 771 42 c 128,-1,11
 803 24 803 24 828.5 -4.5 c 128,-1,12
 854 -33 854 -33 870 -67 c 128,-1,13
 886 -101 886 -101 886 -134 c 0,14,15
 886 -160 886 -160 873 -184 c 1,16,-1
 784 -118 l 1,17,18
 798 -103 798 -103 810.5 -80 c 128,-1,19
 823 -57 823 -57 823 -35 c 0,20,21
 823 -21 823 -21 815 -13 c 128,-1,22
 807 -5 807 -5 795 -1 c 128,-1,23
 783 3 783 3 770 4 c 128,-1,24
 757 5 757 5 747 5 c 0,25,26
 722 5 722 5 697 3 c 128,-1,27
 672 1 672 1 646 1 c 2,28,-1
 266 0 l 2,29,30
 248 0 248 0 222.5 12 c 128,-1,31
 197 24 197 24 170.5 43.5 c 128,-1,32
 144 63 144 63 118 87.5 c 128,-1,33
 92 112 92 112 71 137.5 c 128,-1,34
 50 163 50 163 37.5 187.5 c 128,-1,35
 25 212 25 212 25 230 c 0,36,37
 25 275 25 275 34.5 315 c 128,-1,38
 44 355 44 355 68 390 c 1,39,-1
 15 390 l 1,40,-1
 -94 480 l 1,0,-1
453 60 m 1,41,-1
 453 390 l 1,42,-1
 227 390 l 1,43,44
 195 367 195 367 170.5 349.5 c 128,-1,45
 146 332 146 332 129.5 310 c 128,-1,46
 113 288 113 288 104.5 258.5 c 128,-1,47
 96 229 96 229 96 182 c 0,48,49
 96 159 96 159 106 137.5 c 128,-1,50
 116 116 116 116 133 98.5 c 128,-1,51
 150 81 150 81 172 70.5 c 128,-1,52
 194 60 194 60 219 60 c 2,53,-1
 453 60 l 1,41,-1
EndSplineSet
Validated: 1
EndChar

StartChar: one
Encoding: 49 49 16
Width: 848
GlyphClass: 2
Flags: W
AnchorPoint: "SZLeft" 135 70 basechar 0
AnchorPoint: "SZRight" 825 -6 basechar 0
AnchorPoint: "Nasal" 275 230 basechar 0
AnchorPoint: "TBottom" 475 -240 basechar 0
AnchorPoint: "TTop" 445 720 basechar 0
LayerCount: 2
Back
Fore
SplineSet
-94 480 m 1,0,-1
 833 480 l 1,1,-1
 942 390 l 1,2,-1
 550 390 l 1,3,4
 550 366 550 366 550 343.5 c 128,-1,5
 550 321 550 321 549 301 c 1,6,-1
 653 301 l 2,7,8
 684 301 684 301 716 284.5 c 128,-1,9
 748 268 748 268 773.5 241.5 c 128,-1,10
 799 215 799 215 815.5 182.5 c 128,-1,11
 832 150 832 150 832 118 c 0,12,13
 832 89 832 89 819 67 c 1,14,-1
 750 132 l 1,15,16
 763 145 763 145 776 160 c 128,-1,17
 789 175 789 175 789 195 c 0,18,19
 789 209 789 209 781 217 c 128,-1,20
 773 225 773 225 761.5 229 c 128,-1,21
 750 233 750 233 737 234 c 128,-1,22
 724 235 724 235 714 235 c 2,23,-1
 549 235 l 1,24,25
 549 211 549 211 549.5 190.5 c 128,-1,26
 550 170 550 170 550.5 150 c 128,-1,27
 551 130 551 130 553 108.5 c 128,-1,28
 555 87 555 87 558 60 c 1,29,-1
 706 60 l 2,30,31
 739 60 739 60 771 42 c 128,-1,32
 803 24 803 24 828.5 -4.5 c 128,-1,33
 854 -33 854 -33 870 -67 c 128,-1,34
 886 -101 886 -101 886 -134 c 0,35,36
 886 -160 886 -160 873 -184 c 1,37,-1
 784 -118 l 1,38,39
 798 -103 798 -103 810.5 -80 c 128,-1,40
 823 -57 823 -57 823 -35 c 0,41,42
 823 -21 823 -21 815 -13 c 128,-1,43
 807 -5 807 -5 795 -1 c 128,-1,44
 783 3 783 3 770 4 c 128,-1,45
 757 5 757 5 747 5 c 0,46,47
 722 5 722 5 697 3 c 128,-1,48
 672 1 672 1 646 1 c 2,49,-1
 266 0 l 2,50,51
 248 0 248 0 222.5 12 c 128,-1,52
 197 24 197 24 170.5 43.5 c 128,-1,53
 144 63 144 63 118 87.5 c 128,-1,54
 92 112 92 112 71 137.5 c 128,-1,55
 50 163 50 163 37.5 187.5 c 128,-1,56
 25 212 25 212 25 230 c 0,57,58
 25 275 25 275 34.5 315 c 128,-1,59
 44 355 44 355 68 390 c 1,60,-1
 15 390 l 1,61,-1
 -94 480 l 1,0,-1
453 60 m 1,62,-1
 453 390 l 1,63,-1
 227 390 l 1,64,65
 195 367 195 367 170.5 349.5 c 128,-1,66
 146 332 146 332 129.5 310 c 128,-1,67
 113 288 113 288 104.5 258.5 c 128,-1,68
 96 229 96 229 96 182 c 0,69,70
 96 159 96 159 106 137.5 c 128,-1,71
 116 116 116 116 133 98.5 c 128,-1,72
 150 81 150 81 172 70.5 c 128,-1,73
 194 60 194 60 219 60 c 2,74,-1
 453 60 l 1,62,-1
EndSplineSet
Validated: 1
EndChar

StartChar: two
Encoding: 50 50 17
Width: 582
GlyphClass: 2
Flags: W
AnchorPoint: "SZLeft" 155 70 basechar 0
AnchorPoint: "SZRight" 425 7 basechar 0
AnchorPoint: "Nasal" 275 230 basechar 0
AnchorPoint: "TBottom" 295 -240 basechar 0
AnchorPoint: "TTop" 285 720 basechar 0
LayerCount: 2
Back
Fore
SplineSet
-94 480 m 1,0,-1
 567 480 l 1,1,-1
 676 390 l 1,2,-1
 489 390 l 1,3,4
 516 360 516 360 536.5 326 c 128,-1,5
 557 292 557 292 557 262 c 0,6,7
 557 206 557 206 544 156.5 c 128,-1,8
 531 107 531 107 502.5 70 c 128,-1,9
 474 33 474 33 430 11.5 c 128,-1,10
 386 -10 386 -10 325 -10 c 0,11,12
 265 -10 265 -10 211 19.5 c 128,-1,13
 157 49 157 49 115.5 96 c 128,-1,14
 74 143 74 143 49.5 201 c 128,-1,15
 25 259 25 259 25 316 c 0,16,17
 25 335 25 335 29 353.5 c 128,-1,18
 33 372 33 372 40 390 c 1,19,-1
 15 390 l 1,20,-1
 -94 480 l 1,0,-1
106 242 m 0,21,22
 106 209 106 209 112 175 c 128,-1,23
 118 141 118 141 132.5 113.5 c 128,-1,24
 147 86 147 86 171.5 68 c 128,-1,25
 196 50 196 50 234 50 c 0,26,27
 302 50 302 50 348 69.5 c 128,-1,28
 394 89 394 89 421.5 125 c 128,-1,29
 449 161 449 161 460.5 212 c 128,-1,30
 472 263 472 263 472 326 c 0,31,32
 472 340 472 340 467.5 356.5 c 128,-1,33
 463 373 463 373 456 390 c 1,34,-1
 141 390 l 1,35,-1
 156 377 l 1,36,37
 147 364 147 364 138 347 c 128,-1,38
 129 330 129 330 122 312 c 128,-1,39
 115 294 115 294 110.5 276 c 128,-1,40
 106 258 106 258 106 242 c 0,21,22
EndSplineSet
Validated: 1
EndChar

StartChar: three
Encoding: 51 51 18
Width: 582
GlyphClass: 2
Flags: W
AnchorPoint: "SZLeft" 105 110 basechar 0
AnchorPoint: "SZRight" 425 0 basechar 0
AnchorPoint: "Nasal" 275 230 basechar 0
AnchorPoint: "TBottom" 255 -510 basechar 0
AnchorPoint: "TTop" 295 720 basechar 0
LayerCount: 2
Back
Fore
SplineSet
-94 480 m 1,0,-1
 567 480 l 1,1,-1
 676 390 l 1,2,-1
 489 390 l 1,3,4
 516 360 516 360 536.5 326 c 128,-1,5
 557 292 557 292 557 262 c 0,6,7
 557 206 557 206 544 156.5 c 128,-1,8
 531 107 531 107 502.5 70 c 128,-1,9
 474 33 474 33 430 11.5 c 128,-1,10
 386 -10 386 -10 325 -10 c 2,11,-1
 321 -10 l 1,12,13
 321 -34 321 -34 321.5 -58 c 128,-1,14
 322 -82 322 -82 322 -107 c 0,15,16
 322 -140 322 -140 322 -172.5 c 128,-1,17
 322 -205 322 -205 314 -231 c 128,-1,18
 306 -257 306 -257 287 -273.5 c 128,-1,19
 268 -290 268 -290 230 -290 c 0,20,21
 204 -290 204 -290 165 -267.5 c 128,-1,22
 126 -245 126 -245 89.5 -212.5 c 128,-1,23
 53 -180 53 -180 27 -144.5 c 128,-1,24
 1 -109 1 -109 1 -82 c 0,25,26
 1 -68 1 -68 13 -59 c 128,-1,27
 25 -50 25 -50 36 -44 c 1,28,-1
 110 -101 l 1,29,30
 99 -115 99 -115 89 -130.5 c 128,-1,31
 79 -146 79 -146 79 -165 c 0,32,33
 79 -182 79 -182 90 -194 c 128,-1,34
 101 -206 101 -206 117.5 -213.5 c 128,-1,35
 134 -221 134 -221 151.5 -224 c 128,-1,36
 169 -227 169 -227 183 -227 c 0,37,38
 210 -227 210 -227 225 -209.5 c 128,-1,39
 240 -192 240 -192 246.5 -166.5 c 128,-1,40
 253 -141 253 -141 254.5 -111.5 c 128,-1,41
 256 -82 256 -82 256 -58 c 0,42,43
 256 -43 256 -43 255 -28.5 c 128,-1,44
 254 -14 254 -14 253 1 c 1,45,46
 205 17 205 17 163.5 50 c 128,-1,47
 122 83 122 83 91.5 126 c 128,-1,48
 61 169 61 169 43 218.5 c 128,-1,49
 25 268 25 268 25 316 c 0,50,51
 25 335 25 335 29 353.5 c 128,-1,52
 33 372 33 372 40 390 c 1,53,-1
 15 390 l 1,54,-1
 -94 480 l 1,0,-1
106 242 m 0,55,56
 106 209 106 209 112 175 c 128,-1,57
 118 141 118 141 132.5 113.5 c 128,-1,58
 147 86 147 86 171.5 68 c 128,-1,59
 196 50 196 50 234 50 c 0,60,61
 302 50 302 50 348 69.5 c 128,-1,62
 394 89 394 89 421.5 125 c 128,-1,63
 449 161 449 161 460.5 212 c 128,-1,64
 472 263 472 263 472 326 c 0,65,66
 472 340 472 340 467.5 356.5 c 128,-1,67
 463 373 463 373 456 390 c 1,68,-1
 141 390 l 1,69,-1
 156 377 l 1,70,71
 147 364 147 364 138 347 c 128,-1,72
 129 330 129 330 122 312 c 128,-1,73
 115 294 115 294 110.5 276 c 128,-1,74
 106 258 106 258 106 242 c 0,55,56
EndSplineSet
Validated: 1
EndChar

StartChar: four
Encoding: 52 52 19
Width: 582
GlyphClass: 2
Flags: W
AnchorPoint: "SZLeft" 125 90 basechar 0
AnchorPoint: "SZRight" 425 0 basechar 0
AnchorPoint: "Nasal" 275 230 basechar 0
AnchorPoint: "TBottom" 315 -520 basechar 0
AnchorPoint: "TTop" 275 720 basechar 0
LayerCount: 2
Back
Fore
SplineSet
-94 480 m 1,0,-1
 567 480 l 1,1,-1
 676 390 l 1,2,-1
 489 390 l 1,3,4
 516 360 516 360 536.5 326 c 128,-1,5
 557 292 557 292 557 262 c 0,6,7
 557 206 557 206 544 156.5 c 128,-1,8
 531 107 531 107 502.5 70 c 128,-1,9
 474 33 474 33 430 11.5 c 128,-1,10
 386 -10 386 -10 325 -10 c 2,11,-1
 321 -10 l 1,12,13
 319 -31 319 -31 317.5 -52 c 128,-1,14
 316 -73 316 -73 316 -95 c 0,15,16
 316 -116 316 -116 318.5 -144 c 128,-1,17
 321 -172 321 -172 330 -197.5 c 128,-1,18
 339 -223 339 -223 355.5 -240.5 c 128,-1,19
 372 -258 372 -258 401 -258 c 0,20,21
 436 -258 436 -258 463 -241 c 128,-1,22
 490 -224 490 -224 501 -190 c 1,23,-1
 573 -245 l 1,24,25
 570 -262 570 -262 557.5 -272.5 c 128,-1,26
 545 -283 545 -283 529.5 -289 c 128,-1,27
 514 -295 514 -295 496.5 -297 c 128,-1,28
 479 -299 479 -299 466 -299 c 0,29,30
 428 -299 428 -299 390 -281 c 128,-1,31
 352 -263 352 -263 321.5 -233.5 c 128,-1,32
 291 -204 291 -204 272 -168 c 128,-1,33
 253 -132 253 -132 253 -96 c 2,34,-1
 253 1 l 1,35,36
 205 17 205 17 163.5 50 c 128,-1,37
 122 83 122 83 91.5 126 c 128,-1,38
 61 169 61 169 43 218.5 c 128,-1,39
 25 268 25 268 25 316 c 0,40,41
 25 335 25 335 29 353.5 c 128,-1,42
 33 372 33 372 40 390 c 1,43,-1
 15 390 l 1,44,-1
 -94 480 l 1,0,-1
106 242 m 0,45,46
 106 209 106 209 112 175 c 128,-1,47
 118 141 118 141 132.5 113.5 c 128,-1,48
 147 86 147 86 171.5 68 c 128,-1,49
 196 50 196 50 234 50 c 0,50,51
 302 50 302 50 348 69.5 c 128,-1,52
 394 89 394 89 421.5 125 c 128,-1,53
 449 161 449 161 460.5 212 c 128,-1,54
 472 263 472 263 472 326 c 0,55,56
 472 340 472 340 467.5 356.5 c 128,-1,57
 463 373 463 373 456 390 c 1,58,-1
 141 390 l 1,59,-1
 156 377 l 1,60,61
 147 364 147 364 138 347 c 128,-1,62
 129 330 129 330 122 312 c 128,-1,63
 115 294 115 294 110.5 276 c 128,-1,64
 106 258 106 258 106 242 c 0,45,46
EndSplineSet
Validated: 1
EndChar

StartChar: five
Encoding: 53 53 20
Width: 1028
GlyphClass: 2
Flags: W
AnchorPoint: "SZLeft" 125 100 basechar 0
AnchorPoint: "SZRight" 985 -187 basechar 0
AnchorPoint: "Nasal" 285 230 basechar 0
AnchorPoint: "TBottom" 305 -300 basechar 0
AnchorPoint: "TTop" 285 720 basechar 0
LayerCount: 2
Back
Fore
SplineSet
-94 480 m 1,0,-1
 1013 480 l 1,1,-1
 1122 390 l 1,2,-1
 489 390 l 1,3,4
 507 370 507 370 522.5 348.5 c 128,-1,5
 538 327 538 327 547 306 c 2,6,-1
 797 -91 l 2,7,8
 807 -106 807 -106 822 -118.5 c 128,-1,9
 837 -131 837 -131 854 -131 c 0,10,11
 886 -131 886 -131 910 -114 c 128,-1,12
 934 -97 934 -97 934 -68 c 0,13,14
 934 -55 934 -55 928 -41 c 1,15,16
 961 -63 961 -63 982 -90.5 c 128,-1,17
 1003 -118 1003 -118 1003 -160 c 0,18,19
 1003 -176 1003 -176 994.5 -188.5 c 128,-1,20
 986 -201 986 -201 973.5 -209.5 c 128,-1,21
 961 -218 961 -218 945.5 -222.5 c 128,-1,22
 930 -227 930 -227 917 -227 c 0,23,24
 886 -227 886 -227 858.5 -210 c 128,-1,25
 831 -193 831 -193 815 -167 c 2,26,-1
 557 252 l 1,27,28
 556 197 556 197 542 149.5 c 128,-1,29
 528 102 528 102 500 66.5 c 128,-1,30
 472 31 472 31 428.5 10.5 c 128,-1,31
 385 -10 385 -10 325 -10 c 256,32,33
 265 -10 265 -10 211 19.5 c 128,-1,34
 157 49 157 49 115.5 96 c 128,-1,35
 74 143 74 143 49.5 201 c 128,-1,36
 25 259 25 259 25 316 c 0,37,38
 25 335 25 335 29 353.5 c 128,-1,39
 33 372 33 372 40 390 c 1,40,-1
 15 390 l 1,41,-1
 -94 480 l 1,0,-1
106 242 m 0,42,43
 106 209 106 209 112 175 c 128,-1,44
 118 141 118 141 132.5 113.5 c 128,-1,45
 147 86 147 86 171.5 68 c 128,-1,46
 196 50 196 50 234 50 c 0,47,48
 302 50 302 50 348 69.5 c 128,-1,49
 394 89 394 89 421.5 125 c 128,-1,50
 449 161 449 161 460.5 212 c 128,-1,51
 472 263 472 263 472 326 c 0,52,53
 472 340 472 340 467.5 356.5 c 128,-1,54
 463 373 463 373 456 390 c 1,55,-1
 141 390 l 1,56,-1
 156 377 l 1,57,58
 147 364 147 364 138 347 c 128,-1,59
 129 330 129 330 122 312 c 128,-1,60
 115 294 115 294 110.5 276 c 128,-1,61
 106 258 106 258 106 242 c 0,42,43
EndSplineSet
Validated: 1
EndChar

StartChar: six
Encoding: 54 54 21
Width: 582
GlyphClass: 2
Flags: W
AnchorPoint: "SZLeft" 115 100 basechar 0
AnchorPoint: "SZRight" 425 0 basechar 0
AnchorPoint: "Nasal" 285 230 basechar 0
AnchorPoint: "TBottom" 275 -550 basechar 0
AnchorPoint: "TTop" 285 720 basechar 0
LayerCount: 2
Back
Fore
SplineSet
-94 480 m 1,0,-1
 567 480 l 1,1,-1
 676 390 l 1,2,-1
 489 390 l 1,3,4
 516 360 516 360 536.5 326 c 128,-1,5
 557 292 557 292 557 262 c 0,6,7
 557 206 557 206 544 156.5 c 128,-1,8
 531 107 531 107 502.5 70 c 128,-1,9
 474 33 474 33 430 11.5 c 128,-1,10
 386 -10 386 -10 325 -10 c 2,11,-1
 321 -10 l 1,12,13
 347 -42 347 -42 365.5 -80 c 128,-1,14
 384 -118 384 -118 384 -161 c 0,15,16
 384 -190 384 -190 374.5 -206.5 c 128,-1,17
 365 -223 365 -223 349.5 -231.5 c 128,-1,18
 334 -240 334 -240 312.5 -242.5 c 128,-1,19
 291 -245 291 -245 267 -245 c 2,20,-1
 92 -245 l 2,21,22
 76 -245 76 -245 55.5 -246.5 c 128,-1,23
 35 -248 35 -248 17 -254 c 128,-1,24
 -1 -260 -1 -260 -13.5 -272.5 c 128,-1,25
 -26 -285 -26 -285 -26 -307 c 0,26,27
 -26 -320 -26 -320 -21 -337 c 1,28,29
 -35 -328 -35 -328 -48.5 -317.5 c 128,-1,30
 -62 -307 -62 -307 -73 -294 c 128,-1,31
 -84 -281 -84 -281 -91 -265.5 c 128,-1,32
 -98 -250 -98 -250 -98 -233 c 0,33,34
 -98 -218 -98 -218 -91 -209 c 128,-1,35
 -84 -200 -84 -200 -73 -194.5 c 128,-1,36
 -62 -189 -62 -189 -49.5 -187 c 128,-1,37
 -37 -185 -37 -185 -25 -185 c 2,38,-1
 157 -185 l 2,39,40
 187 -185 187 -185 215 -181.5 c 128,-1,41
 243 -178 243 -178 264.5 -166.5 c 128,-1,42
 286 -155 286 -155 299.5 -133 c 128,-1,43
 313 -111 313 -111 313 -75 c 0,44,45
 313 -61 313 -61 306.5 -42 c 128,-1,46
 300 -23 300 -23 296 -8 c 1,47,48
 241 -1 241 -1 191.5 30.5 c 128,-1,49
 142 62 142 62 105 107.5 c 128,-1,50
 68 153 68 153 46.5 207.5 c 128,-1,51
 25 262 25 262 25 316 c 0,52,53
 25 335 25 335 29 353.5 c 128,-1,54
 33 372 33 372 40 390 c 1,55,-1
 15 390 l 1,56,-1
 -94 480 l 1,0,-1
106 242 m 0,57,58
 106 209 106 209 112 175 c 128,-1,59
 118 141 118 141 132.5 113.5 c 128,-1,60
 147 86 147 86 171.5 68 c 128,-1,61
 196 50 196 50 234 50 c 0,62,63
 302 50 302 50 348 69.5 c 128,-1,64
 394 89 394 89 421.5 125 c 128,-1,65
 449 161 449 161 460.5 212 c 128,-1,66
 472 263 472 263 472 326 c 0,67,68
 472 340 472 340 467.5 356.5 c 128,-1,69
 463 373 463 373 456 390 c 1,70,-1
 141 390 l 1,71,-1
 156 377 l 1,72,73
 147 364 147 364 138 347 c 128,-1,74
 129 330 129 330 122 312 c 128,-1,75
 115 294 115 294 110.5 276 c 128,-1,76
 106 258 106 258 106 242 c 0,57,58
EndSplineSet
Validated: 1
EndChar

StartChar: seven
Encoding: 55 55 22
Width: 582
GlyphClass: 2
Flags: W
AnchorPoint: "SZLeft" 135 80 basechar 0
AnchorPoint: "SZRight" 415 -10 basechar 0
AnchorPoint: "Nasal" 285 230 basechar 0
AnchorPoint: "TBottom" 305 -500 basechar 0
AnchorPoint: "TTop" 285 720 basechar 0
LayerCount: 2
Back
Fore
SplineSet
-94 480 m 1,0,-1
 567 480 l 1,1,-1
 676 390 l 1,2,-1
 489 390 l 1,3,4
 516 360 516 360 536.5 326 c 128,-1,5
 557 292 557 292 557 262 c 0,6,7
 557 206 557 206 544 156.5 c 128,-1,8
 531 107 531 107 502.5 70 c 128,-1,9
 474 33 474 33 430 11.5 c 128,-1,10
 386 -10 386 -10 325 -10 c 2,11,-1
 321 -10 l 1,12,13
 321 -36 321 -36 320.5 -62 c 128,-1,14
 320 -88 320 -88 320 -115 c 0,15,16
 320 -131 320 -131 326 -149 c 128,-1,17
 332 -167 332 -167 343 -182.5 c 128,-1,18
 354 -198 354 -198 368.5 -208 c 128,-1,19
 383 -218 383 -218 401 -218 c 0,20,21
 436 -218 436 -218 463 -200.5 c 128,-1,22
 490 -183 490 -183 501 -150 c 1,23,-1
 573 -205 l 1,24,25
 570 -222 570 -222 558 -232.5 c 128,-1,26
 546 -243 546 -243 530 -249 c 128,-1,27
 514 -255 514 -255 497 -257 c 128,-1,28
 480 -259 480 -259 466 -259 c 0,29,30
 437 -259 437 -259 416 -254 c 128,-1,31
 395 -249 395 -249 378.5 -238.5 c 128,-1,32
 362 -228 362 -228 347 -212 c 128,-1,33
 332 -196 332 -196 314 -175 c 1,34,35
 307 -212 307 -212 287.5 -231 c 128,-1,36
 268 -250 268 -250 230 -250 c 0,37,38
 203 -250 203 -250 164.5 -228.5 c 128,-1,39
 126 -207 126 -207 91 -175 c 0,40,41
 89 -173 89 -173 89 -170 c 0,42,43
 89 -163 89 -163 95 -163 c 0,44,45
 113 -177 113 -177 134.5 -182 c 128,-1,46
 156 -187 156 -187 173 -187 c 0,47,48
 195 -187 195 -187 210 -172 c 128,-1,49
 225 -157 225 -157 234.5 -136 c 128,-1,50
 244 -115 244 -115 248.5 -91.5 c 128,-1,51
 253 -68 253 -68 253 -50 c 2,52,-1
 253 1 l 1,53,54
 205 17 205 17 163.5 50 c 128,-1,55
 122 83 122 83 91.5 126 c 128,-1,56
 61 169 61 169 43 218.5 c 128,-1,57
 25 268 25 268 25 316 c 0,58,59
 25 335 25 335 29 353.5 c 128,-1,60
 33 372 33 372 40 390 c 1,61,-1
 15 390 l 1,62,-1
 -94 480 l 1,0,-1
106 242 m 0,63,64
 106 209 106 209 112 175 c 128,-1,65
 118 141 118 141 132.5 113.5 c 128,-1,66
 147 86 147 86 171.5 68 c 128,-1,67
 196 50 196 50 234 50 c 0,68,69
 302 50 302 50 348 69.5 c 128,-1,70
 394 89 394 89 421.5 125 c 128,-1,71
 449 161 449 161 460.5 212 c 128,-1,72
 472 263 472 263 472 326 c 0,73,74
 472 340 472 340 467.5 356.5 c 128,-1,75
 463 373 463 373 456 390 c 1,76,-1
 141 390 l 1,77,-1
 156 377 l 1,78,79
 147 364 147 364 138 347 c 128,-1,80
 129 330 129 330 122 312 c 128,-1,81
 115 294 115 294 110.5 276 c 128,-1,82
 106 258 106 258 106 242 c 0,63,64
EndSplineSet
Validated: 1
EndChar

StartChar: eight
Encoding: 56 56 23
Width: 582
GlyphClass: 2
Flags: W
AnchorPoint: "SZLeft" -295 -90 basechar 0
AnchorPoint: "SZRight" 425 0 basechar 0
AnchorPoint: "Nasal" 285 230 basechar 0
AnchorPoint: "TBottom" 315 -410 basechar 0
AnchorPoint: "TTop" 275 720 basechar 0
LayerCount: 2
Back
Fore
SplineSet
-93 480 m 1,0,-1
 567 480 l 1,1,-1
 676 390 l 1,2,-1
 489 390 l 1,3,4
 516 360 516 360 536.5 326 c 128,-1,5
 557 292 557 292 557 262 c 0,6,7
 557 206 557 206 544 156.5 c 128,-1,8
 531 107 531 107 502.5 70 c 128,-1,9
 474 33 474 33 430 11.5 c 128,-1,10
 386 -10 386 -10 325 -10 c 0,11,12
 265 -10 265 -10 211.5 19 c 128,-1,13
 158 48 158 48 116 95 c 1,14,15
 116 32 116 32 109 -32.5 c 128,-1,16
 102 -97 102 -97 77.5 -150 c 128,-1,17
 53 -203 53 -203 5 -236.5 c 128,-1,18
 -43 -270 -43 -270 -126 -270 c 0,19,20
 -152 -270 -152 -270 -184.5 -250.5 c 128,-1,21
 -217 -231 -217 -231 -245.5 -202 c 128,-1,22
 -274 -173 -274 -173 -293.5 -140.5 c 128,-1,23
 -313 -108 -313 -108 -313 -82 c 0,24,25
 -313 -69 -313 -69 -301.5 -59 c 128,-1,26
 -290 -49 -290 -49 -279 -44 c 1,27,-1
 -205 -101 l 1,28,29
 -216 -115 -216 -115 -226 -130.5 c 128,-1,30
 -236 -146 -236 -146 -236 -165 c 0,31,32
 -236 -182 -236 -182 -228 -192.5 c 128,-1,33
 -220 -203 -220 -203 -207.5 -208.5 c 128,-1,34
 -195 -214 -195 -214 -180.5 -215.5 c 128,-1,35
 -166 -217 -166 -217 -152 -217 c 0,36,37
 -110 -217 -110 -217 -80 -199.5 c 128,-1,38
 -50 -182 -50 -182 -29 -153.5 c 128,-1,39
 -8 -125 -8 -125 4.5 -88.5 c 128,-1,40
 17 -52 17 -52 24 -13 c 128,-1,41
 31 26 31 26 33 64 c 128,-1,42
 35 102 35 102 35 133 c 0,43,44
 35 167 35 167 33 201 c 128,-1,45
 31 235 31 235 29 270 c 0,46,47
 27 281 27 281 26 293 c 128,-1,48
 25 305 25 305 25 316 c 0,49,50
 25 335 25 335 29 353.5 c 128,-1,51
 33 372 33 372 40 390 c 1,52,-1
 16 390 l 1,53,-1
 -93 480 l 1,0,-1
106 242 m 0,54,55
 106 209 106 209 112 175 c 128,-1,56
 118 141 118 141 132.5 113.5 c 128,-1,57
 147 86 147 86 171.5 68 c 128,-1,58
 196 50 196 50 234 50 c 0,59,60
 302 50 302 50 348 69.5 c 128,-1,61
 394 89 394 89 421.5 125 c 128,-1,62
 449 161 449 161 460.5 212 c 128,-1,63
 472 263 472 263 472 326 c 0,64,65
 472 340 472 340 467.5 356.5 c 128,-1,66
 463 373 463 373 456 390 c 1,67,-1
 141 390 l 1,68,-1
 156 377 l 1,69,70
 147 364 147 364 138 347 c 128,-1,71
 129 330 129 330 122 312 c 128,-1,72
 115 294 115 294 110.5 276 c 128,-1,73
 106 258 106 258 106 242 c 0,54,55
EndSplineSet
Validated: 1
EndChar

StartChar: nine
Encoding: 57 57 24
Width: 944
GlyphClass: 2
Flags: W
AnchorPoint: "SZLeft" 45 -60 basechar 0
AnchorPoint: "SZRight" 809 0 basechar 0
AnchorPoint: "Nasal" 645 230 basechar 0
AnchorPoint: "TBottom" 655 -260 basechar 0
AnchorPoint: "TTop" 655 720 basechar 0
LayerCount: 2
Back
Fore
SplineSet
-95 480 m 1,0,-1
 929 480 l 1,1,-1
 1038 390 l 1,2,-1
 851 390 l 1,3,4
 878 360 878 360 898.5 326 c 128,-1,5
 919 292 919 292 919 262 c 0,6,7
 919 206 919 206 906 156.5 c 128,-1,8
 893 107 893 107 864.5 70 c 128,-1,9
 836 33 836 33 792 11.5 c 128,-1,10
 748 -10 748 -10 687 -10 c 0,11,12
 627 -10 627 -10 574 19 c 128,-1,13
 521 48 521 48 479 94 c 1,14,15
 461 56 461 56 437.5 36.5 c 128,-1,16
 414 17 414 17 386.5 9 c 128,-1,17
 359 1 359 1 327 0.5 c 128,-1,18
 295 0 295 0 261 0 c 0,19,20
 231 0 231 0 206 -4.5 c 128,-1,21
 181 -9 181 -9 163 -21.5 c 128,-1,22
 145 -34 145 -34 134.5 -58 c 128,-1,23
 124 -82 124 -82 124 -121 c 0,24,25
 124 -150 124 -150 137 -181 c 1,26,27
 120 -170 120 -170 100.5 -156 c 128,-1,28
 81 -142 81 -142 64 -127 c 128,-1,29
 47 -112 47 -112 36 -95.5 c 128,-1,30
 25 -79 25 -79 25 -62 c 0,31,32
 25 -23 25 -23 37.5 1 c 128,-1,33
 50 25 50 25 71.5 37.5 c 128,-1,34
 93 50 93 50 122 54.5 c 128,-1,35
 151 59 151 59 183 59 c 2,36,-1
 234 59 l 2,37,38
 264 59 264 59 292 69.5 c 128,-1,39
 320 80 320 80 341.5 101 c 128,-1,40
 363 122 363 122 376 153.5 c 128,-1,41
 389 185 389 185 389 227 c 0,42,43
 389 251 389 251 388 271 c 128,-1,44
 387 291 387 291 387 316 c 0,45,46
 387 335 387 335 391 353.5 c 128,-1,47
 395 372 395 372 402 390 c 1,48,-1
 14 390 l 1,49,-1
 -95 480 l 1,0,-1
468 242 m 0,50,51
 468 209 468 209 474 175 c 128,-1,52
 480 141 480 141 494.5 113.5 c 128,-1,53
 509 86 509 86 533.5 68 c 128,-1,54
 558 50 558 50 596 50 c 0,55,56
 664 50 664 50 710 69.5 c 128,-1,57
 756 89 756 89 783.5 125 c 128,-1,58
 811 161 811 161 822.5 212 c 128,-1,59
 834 263 834 263 834 326 c 0,60,61
 834 340 834 340 829.5 356.5 c 128,-1,62
 825 373 825 373 818 390 c 1,63,-1
 503 390 l 1,64,-1
 518 377 l 1,65,66
 509 364 509 364 500 347 c 128,-1,67
 491 330 491 330 484 312 c 128,-1,68
 477 294 477 294 472.5 276 c 128,-1,69
 468 258 468 258 468 242 c 0,50,51
EndSplineSet
Validated: 1
EndChar

StartChar: colon
Encoding: 58 58 25
Width: 942
GlyphClass: 2
Flags: W
AnchorPoint: "SZLeft" 45 -40 basechar 0
AnchorPoint: "SZRight" 775 -10 basechar 0
AnchorPoint: "Nasal" 645 240 basechar 0
AnchorPoint: "TBottom" 655 -260 basechar 0
AnchorPoint: "TTop" 665 720 basechar 0
LayerCount: 2
Back
Fore
SplineSet
479 93 m 1,0,1
 461 55 461 55 437.5 35.5 c 128,-1,2
 414 16 414 16 386.5 8.5 c 128,-1,3
 359 1 359 1 327 1 c 128,-1,4
 295 1 295 1 261 1 c 0,5,6
 231 1 231 1 206 -3.5 c 128,-1,7
 181 -8 181 -8 163 -20.5 c 128,-1,8
 145 -33 145 -33 134.5 -57 c 128,-1,9
 124 -81 124 -81 124 -120 c 0,10,11
 124 -149 124 -149 137 -180 c 1,12,13
 120 -169 120 -169 100.5 -155 c 128,-1,14
 81 -141 81 -141 64 -126 c 128,-1,15
 47 -111 47 -111 36 -94.5 c 128,-1,16
 25 -78 25 -78 25 -61 c 0,17,18
 25 -22 25 -22 37.5 2 c 128,-1,19
 50 26 50 26 71.5 38.5 c 128,-1,20
 93 51 93 51 122 55.5 c 128,-1,21
 151 60 151 60 183 60 c 2,22,-1
 234 60 l 2,23,24
 264 60 264 60 292 68.5 c 128,-1,25
 320 77 320 77 341.5 95.5 c 128,-1,26
 363 114 363 114 376 143 c 128,-1,27
 389 172 389 172 389 214 c 1,28,-1
 244 214 l 2,29,30
 225 214 225 214 208 207 c 128,-1,31
 191 200 191 200 177.5 188 c 128,-1,32
 164 176 164 176 156 159 c 128,-1,33
 148 142 148 142 148 123 c 0,34,35
 148 111 148 111 151 101 c 1,36,37
 138 112 138 112 125 125.5 c 128,-1,38
 112 139 112 139 101 154.5 c 128,-1,39
 90 170 90 170 83 187 c 128,-1,40
 76 204 76 204 76 222 c 256,41,42
 76 240 76 240 86 250 c 128,-1,43
 96 260 96 260 111 265.5 c 128,-1,44
 126 271 126 271 142.5 272.5 c 128,-1,45
 159 274 159 274 172 274 c 2,46,-1
 389 274 l 1,47,48
 389 288 389 288 388.5 303.5 c 128,-1,49
 388 319 388 319 388 336 c 0,50,51
 388 363 388 363 391 390 c 1,52,-1
 12 390 l 1,53,-1
 -97 480 l 1,54,-1
 927 480 l 1,55,-1
 1036 390 l 1,56,-1
 849 390 l 1,57,58
 876 360 876 360 896.5 326 c 128,-1,59
 917 292 917 292 917 262 c 0,60,61
 917 206 917 206 904 156.5 c 128,-1,62
 891 107 891 107 862.5 70 c 128,-1,63
 834 33 834 33 790 11.5 c 128,-1,64
 746 -10 746 -10 685 -10 c 0,65,66
 625 -10 625 -10 572.5 18.5 c 128,-1,67
 520 47 520 47 479 93 c 1,0,1
469 242 m 0,68,69
 477 149 477 149 505 99.5 c 128,-1,70
 533 50 533 50 594 50 c 0,71,72
 662 50 662 50 708 69.5 c 128,-1,73
 754 89 754 89 781.5 125 c 128,-1,74
 809 161 809 161 820.5 212 c 128,-1,75
 832 263 832 263 832 326 c 0,76,77
 832 340 832 340 827.5 356.5 c 128,-1,78
 823 373 823 373 816 390 c 1,79,-1
 496 390 l 1,80,81
 489 376 489 376 484 356.5 c 128,-1,82
 479 337 479 337 475.5 316 c 128,-1,83
 472 295 472 295 470.5 275.5 c 128,-1,84
 469 256 469 256 469 242 c 0,68,69
EndSplineSet
Validated: 1
EndChar

StartChar: semicolon
Encoding: 59 59 26
Width: 1042
GlyphClass: 2
Flags: W
AnchorPoint: "SZLeft" 45 -50 basechar 0
AnchorPoint: "SZRight" 855 -10 basechar 0
AnchorPoint: "Nasal" 745 230 basechar 0
AnchorPoint: "TBottom" 545 -270 basechar 0
AnchorPoint: "TTop" 745 720 basechar 0
LayerCount: 2
Back
Fore
SplineSet
-94 480 m 1,0,-1
 1027 480 l 1,1,-1
 1136 390 l 1,2,-1
 949 390 l 1,3,4
 976 360 976 360 996.5 326 c 128,-1,5
 1017 292 1017 292 1017 262 c 0,6,7
 1017 206 1017 206 1004 156.5 c 128,-1,8
 991 107 991 107 962.5 70 c 128,-1,9
 934 33 934 33 890 11.5 c 128,-1,10
 846 -10 846 -10 785 -10 c 0,11,12
 725 -10 725 -10 672.5 18.5 c 128,-1,13
 620 47 620 47 579 93 c 1,14,15
 562 54 562 54 525.5 26.5 c 128,-1,16
 489 -1 489 -1 443 -1 c 2,17,-1
 235 0 l 2,18,19
 177 0 177 0 150.5 -33 c 128,-1,20
 124 -66 124 -66 124 -121 c 0,21,22
 124 -150 124 -150 137 -181 c 1,23,24
 123 -172 123 -172 104 -157.5 c 128,-1,25
 85 -143 85 -143 67.5 -125.5 c 128,-1,26
 50 -108 50 -108 37.5 -89 c 128,-1,27
 25 -70 25 -70 25 -52 c 0,28,29
 25 -10 25 -10 38 11.5 c 128,-1,30
 51 33 51 33 73.5 43 c 128,-1,31
 96 53 96 53 125.5 55 c 128,-1,32
 155 57 155 57 189 59 c 1,33,-1
 189 390 l 1,34,-1
 15 390 l 1,35,-1
 -94 480 l 1,0,-1
569 242 m 0,36,37
 577 150 577 150 605 100 c 128,-1,38
 633 50 633 50 694 50 c 0,39,40
 762 50 762 50 808 69.5 c 128,-1,41
 854 89 854 89 881.5 125 c 128,-1,42
 909 161 909 161 920.5 212 c 128,-1,43
 932 263 932 263 932 326 c 0,44,45
 932 340 932 340 927.5 356.5 c 128,-1,46
 923 373 923 373 916 390 c 1,47,-1
 596 390 l 1,48,49
 589 376 589 376 584 356.5 c 128,-1,50
 579 337 579 337 575.5 316.5 c 128,-1,51
 572 296 572 296 570.5 276 c 128,-1,52
 569 256 569 256 569 242 c 0,36,37
334 59 m 2,53,54
 365 59 365 59 393 70 c 128,-1,55
 421 81 421 81 442.5 102 c 128,-1,56
 464 123 464 123 476.5 154 c 128,-1,57
 489 185 489 185 489 227 c 0,58,59
 489 251 489 251 488 275 c 128,-1,60
 487 299 487 299 487 323 c 0,61,62
 487 338 487 338 488 355.5 c 128,-1,63
 489 373 489 373 491 390 c 1,64,-1
 286 390 l 1,65,66
 286 340 286 340 285.5 299.5 c 128,-1,67
 285 259 285 259 285 221 c 128,-1,68
 285 183 285 183 287 144 c 128,-1,69
 289 105 289 105 294 59 c 1,70,-1
 334 59 l 2,53,54
EndSplineSet
Validated: 1
EndChar

StartChar: less
Encoding: 60 60 27
Width: 1042
GlyphClass: 2
Flags: W
AnchorPoint: "SZLeft" 55 -40 basechar 0
AnchorPoint: "SZRight" 855 -10 basechar 0
AnchorPoint: "Nasal" 745 230 basechar 0
AnchorPoint: "TBottom" 555 -260 basechar 0
AnchorPoint: "TTop" 755 720 basechar 0
LayerCount: 2
Back
Fore
SplineSet
-94 480 m 1,0,-1
 1027 480 l 1,1,-1
 1136 390 l 1,2,-1
 949 390 l 1,3,4
 976 360 976 360 996.5 326 c 128,-1,5
 1017 292 1017 292 1017 262 c 0,6,7
 1017 206 1017 206 1004 156.5 c 128,-1,8
 991 107 991 107 962.5 70 c 128,-1,9
 934 33 934 33 890 11.5 c 128,-1,10
 846 -10 846 -10 785 -10 c 0,11,12
 725 -10 725 -10 672.5 18.5 c 128,-1,13
 620 47 620 47 579 93 c 1,14,15
 562 54 562 54 525.5 26.5 c 128,-1,16
 489 -1 489 -1 443 -1 c 2,17,-1
 235 0 l 2,18,19
 177 0 177 0 150.5 -33 c 128,-1,20
 124 -66 124 -66 124 -121 c 0,21,22
 124 -150 124 -150 137 -181 c 1,23,24
 123 -172 123 -172 104 -157.5 c 128,-1,25
 85 -143 85 -143 67.5 -125.5 c 128,-1,26
 50 -108 50 -108 37.5 -89 c 128,-1,27
 25 -70 25 -70 25 -52 c 0,28,29
 25 -10 25 -10 38 11.5 c 128,-1,30
 51 33 51 33 73.5 43 c 128,-1,31
 96 53 96 53 125.5 55 c 128,-1,32
 155 57 155 57 189 59 c 1,33,-1
 189 209 l 1,34,-1
 71 209 l 2,35,36
 54 209 54 209 37 205 c 128,-1,37
 20 201 20 201 6.5 192 c 128,-1,38
 -7 183 -7 183 -16 169 c 128,-1,39
 -25 155 -25 155 -25 136 c 0,40,41
 -25 126 -25 126 -22 116 c 1,42,43
 -35 126 -35 126 -48.5 137.5 c 128,-1,44
 -62 149 -62 149 -73 162.5 c 128,-1,45
 -84 176 -84 176 -91 191.5 c 128,-1,46
 -98 207 -98 207 -98 225 c 0,47,48
 -98 241 -98 241 -88.5 249.5 c 128,-1,49
 -79 258 -79 258 -65.5 262 c 128,-1,50
 -52 266 -52 266 -36.5 267 c 128,-1,51
 -21 268 -21 268 -10 268 c 2,52,-1
 180 268 l 1,53,-1
 189 261 l 1,54,-1
 189 390 l 1,55,-1
 15 390 l 1,56,-1
 -94 480 l 1,0,-1
569 242 m 0,57,58
 577 150 577 150 605 100 c 128,-1,59
 633 50 633 50 694 50 c 0,60,61
 762 50 762 50 808 69.5 c 128,-1,62
 854 89 854 89 881.5 125 c 128,-1,63
 909 161 909 161 920.5 212 c 128,-1,64
 932 263 932 263 932 326 c 0,65,66
 932 340 932 340 927.5 356.5 c 128,-1,67
 923 373 923 373 916 390 c 1,68,-1
 596 390 l 1,69,70
 589 376 589 376 584 356.5 c 128,-1,71
 579 337 579 337 575.5 316.5 c 128,-1,72
 572 296 572 296 570.5 276 c 128,-1,73
 569 256 569 256 569 242 c 0,57,58
334 59 m 2,74,75
 365 59 365 59 393 70 c 128,-1,76
 421 81 421 81 442.5 102 c 128,-1,77
 464 123 464 123 476.5 154 c 128,-1,78
 489 185 489 185 489 227 c 0,79,80
 489 251 489 251 488 275 c 128,-1,81
 487 299 487 299 487 323 c 0,82,83
 487 338 487 338 488 355.5 c 128,-1,84
 489 373 489 373 491 390 c 1,85,-1
 286 390 l 1,86,87
 286 340 286 340 285.5 299.5 c 128,-1,88
 285 259 285 259 285 221 c 128,-1,89
 285 183 285 183 287 144 c 128,-1,90
 289 105 289 105 294 59 c 1,91,-1
 334 59 l 2,74,75
EndSplineSet
Validated: 1
EndChar

StartChar: equal
Encoding: 61 61 28
Width: 1170
GlyphClass: 2
Flags: W
AnchorPoint: "SZLeft" 135 80 basechar 0
AnchorPoint: "SZRight" 1105 -170 basechar 0
AnchorPoint: "Nasal" 275 230 basechar 0
AnchorPoint: "TBottom" 315 -240 basechar 0
AnchorPoint: "TTop" 295 720 basechar 0
LayerCount: 2
Back
Fore
SplineSet
-94 480 m 1,0,-1
 1155 480 l 1,1,-1
 1264 390 l 1,2,-1
 490 390 l 1,3,4
 501 377 501 377 511.5 364.5 c 128,-1,5
 522 352 522 352 530 338 c 1,6,7
 555 320 555 320 590 292 c 128,-1,8
 625 264 625 264 665.5 233 c 128,-1,9
 706 202 706 202 750.5 171 c 128,-1,10
 795 140 795 140 838 115 c 128,-1,11
 881 90 881 90 921.5 74.5 c 128,-1,12
 962 59 962 59 995 59 c 0,13,14
 1016 59 1016 59 1034 69.5 c 128,-1,15
 1052 80 1052 80 1052 105 c 0,16,17
 1052 116 1052 116 1048 127.5 c 128,-1,18
 1044 139 1044 139 1039 150 c 1,19,20
 1073 135 1073 135 1098 109.5 c 128,-1,21
 1123 84 1123 84 1123 43 c 0,22,23
 1123 19 1123 19 1113 5 c 128,-1,24
 1103 -9 1103 -9 1077 -9 c 0,25,26
 1043 -9 1043 -9 1001 6 c 128,-1,27
 959 21 959 21 912.5 45.5 c 128,-1,28
 866 70 866 70 817.5 102 c 128,-1,29
 769 134 769 134 721.5 168.5 c 128,-1,30
 674 203 674 203 630 237 c 128,-1,31
 586 271 586 271 549 300 c 1,32,33
 553 291 553 291 554 284 c 0,34,35
 599 227 599 227 647 166 c 128,-1,36
 695 105 695 105 746.5 47.5 c 128,-1,37
 798 -10 798 -10 854 -62 c 128,-1,38
 910 -114 910 -114 972 -154 c 0,39,40
 983 -161 983 -161 993.5 -165.5 c 128,-1,41
 1004 -170 1004 -170 1016 -170 c 0,42,43
 1034 -170 1034 -170 1045 -163.5 c 128,-1,44
 1056 -157 1056 -157 1063 -146 c 128,-1,45
 1070 -135 1070 -135 1072.5 -121 c 128,-1,46
 1075 -107 1075 -107 1075 -92 c 0,47,48
 1075 -87 1075 -87 1074 -82 c 128,-1,49
 1073 -77 1073 -77 1071 -72 c 1,50,51
 1089 -83 1089 -83 1103 -93.5 c 128,-1,52
 1117 -104 1117 -104 1126.5 -116 c 128,-1,53
 1136 -128 1136 -128 1140.5 -144.5 c 128,-1,54
 1145 -161 1145 -161 1145 -184 c 0,55,56
 1145 -210 1145 -210 1133 -227 c 128,-1,57
 1121 -244 1121 -244 1093 -244 c 0,58,59
 1059 -244 1059 -244 1013 -217 c 128,-1,60
 967 -190 967 -190 915 -147 c 128,-1,61
 863 -104 863 -104 809 -50.5 c 128,-1,62
 755 3 755 3 706.5 55 c 128,-1,63
 658 107 658 107 618.5 153 c 128,-1,64
 579 199 579 199 556 227 c 1,65,66
 552 177 552 177 537 134 c 128,-1,67
 522 91 522 91 493.5 59 c 128,-1,68
 465 27 465 27 423.5 8.5 c 128,-1,69
 382 -10 382 -10 325 -10 c 0,70,71
 265 -10 265 -10 211 19.5 c 128,-1,72
 157 49 157 49 115.5 96 c 128,-1,73
 74 143 74 143 49.5 201 c 128,-1,74
 25 259 25 259 25 316 c 0,75,76
 25 335 25 335 29 353.5 c 128,-1,77
 33 372 33 372 40 390 c 1,78,-1
 15 390 l 1,79,-1
 -94 480 l 1,0,-1
106 242 m 0,80,81
 106 209 106 209 112 175 c 128,-1,82
 118 141 118 141 132.5 113.5 c 128,-1,83
 147 86 147 86 171.5 68 c 128,-1,84
 196 50 196 50 234 50 c 0,85,86
 302 50 302 50 348 69.5 c 128,-1,87
 394 89 394 89 421.5 125 c 128,-1,88
 449 161 449 161 460.5 212 c 128,-1,89
 472 263 472 263 472 326 c 0,90,91
 472 340 472 340 467.5 356.5 c 128,-1,92
 463 373 463 373 456 390 c 1,93,-1
 141 390 l 1,94,-1
 156 377 l 1,95,96
 147 364 147 364 138 347 c 128,-1,97
 129 330 129 330 122 312 c 128,-1,98
 115 294 115 294 110.5 276 c 128,-1,99
 106 258 106 258 106 242 c 0,80,81
EndSplineSet
Validated: 1
EndChar

StartChar: greater
Encoding: 62 62 29
Width: 1240
GlyphClass: 2
Flags: W
AnchorPoint: "SZLeft" 55 110 basechar 0
AnchorPoint: "SZRight" 1055 -10 basechar 0
AnchorPoint: "Nasal" 945 230 basechar 0
AnchorPoint: "TBottom" 955 -240 basechar 0
AnchorPoint: "TTop" 955 720 basechar 0
LayerCount: 2
Back
Fore
SplineSet
-94 480 m 1,0,-1
 1225 480 l 1,1,-1
 1334 390 l 1,2,-1
 1147 390 l 1,3,4
 1174 360 1174 360 1194.5 326 c 128,-1,5
 1215 292 1215 292 1215 262 c 0,6,7
 1215 206 1215 206 1202 156.5 c 128,-1,8
 1189 107 1189 107 1160.5 70 c 128,-1,9
 1132 33 1132 33 1088 11.5 c 128,-1,10
 1044 -10 1044 -10 983 -10 c 0,11,12
 944 -10 944 -10 907 3 c 128,-1,13
 870 16 870 16 837 39 c 128,-1,14
 804 62 804 62 776 93 c 128,-1,15
 748 124 748 124 728 160 c 1,16,17
 692 64 692 64 651 -17 c 128,-1,18
 610 -98 610 -98 553 -156.5 c 128,-1,19
 496 -215 496 -215 416 -247.5 c 128,-1,20
 336 -280 336 -280 221 -280 c 0,21,22
 195 -280 195 -280 161.5 -259 c 128,-1,23
 128 -238 128 -238 97.5 -207 c 128,-1,24
 67 -176 67 -176 46 -142 c 128,-1,25
 25 -108 25 -108 25 -82 c 0,26,27
 25 -69 25 -69 36.5 -59 c 128,-1,28
 48 -49 48 -49 59 -44 c 1,29,-1
 122 -91 l 1,30,31
 111 -105 111 -105 101.5 -121 c 128,-1,32
 92 -137 92 -137 92 -155 c 0,33,34
 92 -172 92 -172 103 -185.5 c 128,-1,35
 114 -199 114 -199 130 -208 c 128,-1,36
 146 -217 146 -217 164 -222 c 128,-1,37
 182 -227 182 -227 195 -227 c 0,38,39
 267 -227 267 -227 323 -210.5 c 128,-1,40
 379 -194 379 -194 423 -161 c 128,-1,41
 467 -128 467 -128 502 -79 c 128,-1,42
 537 -30 537 -30 567 34 c 1,43,44
 491 -22 491 -22 408 -45 c 128,-1,45
 325 -68 325 -68 231 -68 c 0,46,47
 205 -68 205 -68 171.5 -47 c 128,-1,48
 138 -26 138 -26 107.5 5 c 128,-1,49
 77 36 77 36 56 70 c 128,-1,50
 35 104 35 104 35 130 c 0,51,52
 35 143 35 143 46.5 153 c 128,-1,53
 58 163 58 163 69 168 c 1,54,-1
 133 121 l 1,55,56
 121 107 121 107 111.5 91 c 128,-1,57
 102 75 102 75 102 57 c 0,58,59
 102 40 102 40 113 26.5 c 128,-1,60
 124 13 124 13 140 4 c 128,-1,61
 156 -5 156 -5 174 -10 c 128,-1,62
 192 -15 192 -15 205 -15 c 0,63,64
 288 -15 288 -15 347.5 0 c 128,-1,65
 407 15 407 15 449.5 41.5 c 128,-1,66
 492 68 492 68 522.5 105.5 c 128,-1,67
 553 143 553 143 579.5 188 c 128,-1,68
 606 233 606 233 632 284 c 128,-1,69
 658 335 658 335 692 390 c 1,70,-1
 15 390 l 1,71,-1
 -94 480 l 1,0,-1
764 242 m 0,72,73
 764 209 764 209 770 175 c 128,-1,74
 776 141 776 141 790.5 113.5 c 128,-1,75
 805 86 805 86 829.5 68 c 128,-1,76
 854 50 854 50 892 50 c 0,77,78
 960 50 960 50 1006 69.5 c 128,-1,79
 1052 89 1052 89 1079.5 125 c 128,-1,80
 1107 161 1107 161 1118.5 212 c 128,-1,81
 1130 263 1130 263 1130 326 c 0,82,83
 1130 340 1130 340 1125.5 356.5 c 128,-1,84
 1121 373 1121 373 1114 390 c 1,85,-1
 799 390 l 1,86,-1
 814 377 l 1,87,88
 805 364 805 364 796 347 c 128,-1,89
 787 330 787 330 780 312 c 128,-1,90
 773 294 773 294 768.5 276 c 128,-1,91
 764 258 764 258 764 242 c 0,72,73
EndSplineSet
Validated: 1
EndChar

StartChar: question
Encoding: 63 63 30
Width: 582
GlyphClass: 2
Flags: W
AnchorPoint: "SZLeft" 135 70 basechar 0
AnchorPoint: "SZRight" 395 -10 basechar 0
AnchorPoint: "Nasal" 215 150 basechar 0
AnchorPoint: "TBottom" 305 -220 basechar 0
AnchorPoint: "TTop" 295 720 basechar 0
LayerCount: 2
Back
Fore
SplineSet
-94 480 m 1,0,-1
 567 480 l 1,1,-1
 676 390 l 1,2,-1
 489 390 l 1,3,4
 516 360 516 360 536.5 326 c 128,-1,5
 557 292 557 292 557 262 c 0,6,7
 557 206 557 206 544 156.5 c 128,-1,8
 531 107 531 107 502.5 70 c 128,-1,9
 474 33 474 33 430 11.5 c 128,-1,10
 386 -10 386 -10 325 -10 c 0,11,12
 265 -10 265 -10 211 19.5 c 128,-1,13
 157 49 157 49 115.5 96 c 128,-1,14
 74 143 74 143 49.5 201 c 128,-1,15
 25 259 25 259 25 316 c 0,16,17
 25 335 25 335 29 353.5 c 128,-1,18
 33 372 33 372 40 390 c 1,19,-1
 15 390 l 1,20,-1
 -94 480 l 1,0,-1
264 245 m 1,21,-1
 264 390 l 1,22,-1
 141 390 l 1,23,-1
 156 377 l 1,24,25
 147 364 147 364 138 347 c 128,-1,26
 129 330 129 330 122 312 c 128,-1,27
 115 294 115 294 110.5 276 c 128,-1,28
 106 258 106 258 106 242 c 0,29,30
 106 209 106 209 112 175 c 128,-1,31
 118 141 118 141 132.5 113.5 c 128,-1,32
 147 86 147 86 171.5 68 c 128,-1,33
 196 50 196 50 234 50 c 0,34,35
 302 50 302 50 348 69.5 c 128,-1,36
 394 89 394 89 421.5 125 c 128,-1,37
 449 161 449 161 460.5 212 c 128,-1,38
 472 263 472 263 472 326 c 0,39,40
 472 340 472 340 467.5 356.5 c 128,-1,41
 463 373 463 373 456 390 c 1,42,-1
 316 390 l 1,43,-1
 324 383 l 1,44,-1
 324 190 l 1,45,-1
 264 245 l 1,21,-1
EndSplineSet
Validated: 1
EndChar

StartChar: at
Encoding: 64 64 31
Width: 582
GlyphClass: 2
Flags: W
AnchorPoint: "SZLeft" 135 60 basechar 0
AnchorPoint: "SZRight" 395 -10 basechar 0
AnchorPoint: "Nasal" 215 150 basechar 0
AnchorPoint: "TBottom" 275 -520 basechar 0
AnchorPoint: "TTop" 295 720 basechar 0
LayerCount: 2
Back
Fore
SplineSet
-94 480 m 1,0,-1
 567 480 l 1,1,-1
 676 390 l 1,2,-1
 489 390 l 1,3,4
 516 360 516 360 536.5 326 c 128,-1,5
 557 292 557 292 557 262 c 0,6,7
 557 206 557 206 544 156.5 c 128,-1,8
 531 107 531 107 502.5 70 c 128,-1,9
 474 33 474 33 430 11.5 c 128,-1,10
 386 -10 386 -10 325 -10 c 2,11,-1
 321 -10 l 1,12,13
 321 -34 321 -34 321.5 -58 c 128,-1,14
 322 -82 322 -82 322 -107 c 0,15,16
 322 -140 322 -140 322 -172.5 c 128,-1,17
 322 -205 322 -205 314 -231 c 128,-1,18
 306 -257 306 -257 287 -273.5 c 128,-1,19
 268 -290 268 -290 230 -290 c 0,20,21
 204 -290 204 -290 165 -267.5 c 128,-1,22
 126 -245 126 -245 89.5 -212.5 c 128,-1,23
 53 -180 53 -180 27 -144.5 c 128,-1,24
 1 -109 1 -109 1 -82 c 0,25,26
 1 -68 1 -68 13 -59 c 128,-1,27
 25 -50 25 -50 36 -44 c 1,28,-1
 110 -101 l 1,29,30
 99 -115 99 -115 89 -130.5 c 128,-1,31
 79 -146 79 -146 79 -165 c 0,32,33
 79 -182 79 -182 90 -194 c 128,-1,34
 101 -206 101 -206 117.5 -213.5 c 128,-1,35
 134 -221 134 -221 151.5 -224 c 128,-1,36
 169 -227 169 -227 183 -227 c 0,37,38
 210 -227 210 -227 225 -209.5 c 128,-1,39
 240 -192 240 -192 246.5 -166.5 c 128,-1,40
 253 -141 253 -141 254.5 -111.5 c 128,-1,41
 256 -82 256 -82 256 -58 c 0,42,43
 256 -43 256 -43 255 -28.5 c 128,-1,44
 254 -14 254 -14 253 1 c 1,45,46
 205 17 205 17 163.5 50 c 128,-1,47
 122 83 122 83 91.5 126 c 128,-1,48
 61 169 61 169 43 218.5 c 128,-1,49
 25 268 25 268 25 316 c 0,50,51
 25 335 25 335 29 353.5 c 128,-1,52
 33 372 33 372 40 390 c 1,53,-1
 15 390 l 1,54,-1
 -94 480 l 1,0,-1
264 245 m 1,55,-1
 264 390 l 1,56,-1
 141 390 l 1,57,-1
 156 377 l 1,58,59
 147 364 147 364 138 347 c 128,-1,60
 129 330 129 330 122 312 c 128,-1,61
 115 294 115 294 110.5 276 c 128,-1,62
 106 258 106 258 106 242 c 0,63,64
 106 209 106 209 112 175 c 128,-1,65
 118 141 118 141 132.5 113.5 c 128,-1,66
 147 86 147 86 171.5 68 c 128,-1,67
 196 50 196 50 234 50 c 0,68,69
 302 50 302 50 348 69.5 c 128,-1,70
 394 89 394 89 421.5 125 c 128,-1,71
 449 161 449 161 460.5 212 c 128,-1,72
 472 263 472 263 472 326 c 0,73,74
 472 340 472 340 467.5 356.5 c 128,-1,75
 463 373 463 373 456 390 c 1,76,-1
 316 390 l 1,77,-1
 324 383 l 1,78,-1
 324 190 l 1,79,-1
 264 245 l 1,55,-1
EndSplineSet
Validated: 1
EndChar

StartChar: A
Encoding: 65 65 32
Width: 582
GlyphClass: 2
Flags: W
AnchorPoint: "SZLeft" 135 70 basechar 0
AnchorPoint: "SZRight" 395 -10 basechar 0
AnchorPoint: "Nasal" 225 140 basechar 0
AnchorPoint: "TBottom" 315 -550 basechar 0
AnchorPoint: "TTop" 285 720 basechar 0
LayerCount: 2
Back
Fore
SplineSet
-94 480 m 1,0,-1
 567 480 l 1,1,-1
 676 390 l 1,2,-1
 489 390 l 1,3,4
 516 360 516 360 536.5 326 c 128,-1,5
 557 292 557 292 557 262 c 0,6,7
 557 206 557 206 544 156.5 c 128,-1,8
 531 107 531 107 502.5 70 c 128,-1,9
 474 33 474 33 430 11.5 c 128,-1,10
 386 -10 386 -10 325 -10 c 2,11,-1
 321 -10 l 1,12,13
 319 -31 319 -31 317.5 -52 c 128,-1,14
 316 -73 316 -73 316 -95 c 0,15,16
 316 -116 316 -116 318.5 -144 c 128,-1,17
 321 -172 321 -172 330 -197.5 c 128,-1,18
 339 -223 339 -223 355.5 -240.5 c 128,-1,19
 372 -258 372 -258 401 -258 c 0,20,21
 436 -258 436 -258 463 -241 c 128,-1,22
 490 -224 490 -224 501 -190 c 1,23,-1
 573 -245 l 1,24,25
 570 -262 570 -262 557.5 -272.5 c 128,-1,26
 545 -283 545 -283 529.5 -289 c 128,-1,27
 514 -295 514 -295 496.5 -297 c 128,-1,28
 479 -299 479 -299 466 -299 c 0,29,30
 428 -299 428 -299 390 -281 c 128,-1,31
 352 -263 352 -263 321.5 -233.5 c 128,-1,32
 291 -204 291 -204 272 -168 c 128,-1,33
 253 -132 253 -132 253 -96 c 2,34,-1
 253 1 l 1,35,36
 205 17 205 17 163.5 50 c 128,-1,37
 122 83 122 83 91.5 126 c 128,-1,38
 61 169 61 169 43 218.5 c 128,-1,39
 25 268 25 268 25 316 c 0,40,41
 25 335 25 335 29 353.5 c 128,-1,42
 33 372 33 372 40 390 c 1,43,-1
 15 390 l 1,44,-1
 -94 480 l 1,0,-1
264 245 m 1,45,-1
 264 390 l 1,46,-1
 141 390 l 1,47,-1
 156 377 l 1,48,49
 147 364 147 364 138 347 c 128,-1,50
 129 330 129 330 122 312 c 128,-1,51
 115 294 115 294 110.5 276 c 128,-1,52
 106 258 106 258 106 242 c 0,53,54
 106 209 106 209 112 175 c 128,-1,55
 118 141 118 141 132.5 113.5 c 128,-1,56
 147 86 147 86 171.5 68 c 128,-1,57
 196 50 196 50 234 50 c 0,58,59
 302 50 302 50 348 69.5 c 128,-1,60
 394 89 394 89 421.5 125 c 128,-1,61
 449 161 449 161 460.5 212 c 128,-1,62
 472 263 472 263 472 326 c 0,63,64
 472 340 472 340 467.5 356.5 c 128,-1,65
 463 373 463 373 456 390 c 1,66,-1
 316 390 l 1,67,-1
 324 383 l 1,68,-1
 324 190 l 1,69,-1
 264 245 l 1,45,-1
EndSplineSet
Validated: 1
EndChar

StartChar: B
Encoding: 66 66 33
Width: 1028
GlyphClass: 2
Flags: W
AnchorPoint: "SZLeft" 135 70 basechar 0
AnchorPoint: "SZRight" 955 -180 basechar 0
AnchorPoint: "Nasal" 225 150 basechar 0
AnchorPoint: "TBottom" 295 -260 basechar 0
AnchorPoint: "TTop" 305 720 basechar 0
LayerCount: 2
Back
Fore
SplineSet
-94 480 m 1,0,-1
 1013 480 l 1,1,-1
 1122 390 l 1,2,-1
 489 390 l 1,3,4
 507 370 507 370 522.5 348.5 c 128,-1,5
 538 327 538 327 547 306 c 2,6,-1
 797 -91 l 2,7,8
 807 -106 807 -106 822 -118.5 c 128,-1,9
 837 -131 837 -131 854 -131 c 0,10,11
 886 -131 886 -131 910 -114 c 128,-1,12
 934 -97 934 -97 934 -68 c 0,13,14
 934 -55 934 -55 928 -41 c 1,15,16
 961 -63 961 -63 982 -90.5 c 128,-1,17
 1003 -118 1003 -118 1003 -160 c 0,18,19
 1003 -176 1003 -176 994.5 -188.5 c 128,-1,20
 986 -201 986 -201 973.5 -209.5 c 128,-1,21
 961 -218 961 -218 945.5 -222.5 c 128,-1,22
 930 -227 930 -227 917 -227 c 0,23,24
 886 -227 886 -227 858.5 -210 c 128,-1,25
 831 -193 831 -193 815 -167 c 2,26,-1
 557 252 l 1,27,28
 556 197 556 197 542 149.5 c 128,-1,29
 528 102 528 102 500 66.5 c 128,-1,30
 472 31 472 31 428.5 10.5 c 128,-1,31
 385 -10 385 -10 325 -10 c 256,32,33
 265 -10 265 -10 211 19.5 c 128,-1,34
 157 49 157 49 115.5 96 c 128,-1,35
 74 143 74 143 49.5 201 c 128,-1,36
 25 259 25 259 25 316 c 0,37,38
 25 335 25 335 29 353.5 c 128,-1,39
 33 372 33 372 40 390 c 1,40,-1
 15 390 l 1,41,-1
 -94 480 l 1,0,-1
264 245 m 1,42,-1
 264 390 l 1,43,-1
 141 390 l 1,44,-1
 156 377 l 1,45,46
 147 364 147 364 138 347 c 128,-1,47
 129 330 129 330 122 312 c 128,-1,48
 115 294 115 294 110.5 276 c 128,-1,49
 106 258 106 258 106 242 c 0,50,51
 106 209 106 209 112 175 c 128,-1,52
 118 141 118 141 132.5 113.5 c 128,-1,53
 147 86 147 86 171.5 68 c 128,-1,54
 196 50 196 50 234 50 c 0,55,56
 302 50 302 50 348 69.5 c 128,-1,57
 394 89 394 89 421.5 125 c 128,-1,58
 449 161 449 161 460.5 212 c 128,-1,59
 472 263 472 263 472 326 c 0,60,61
 472 340 472 340 467.5 356.5 c 128,-1,62
 463 373 463 373 456 390 c 1,63,-1
 316 390 l 1,64,-1
 324 383 l 1,65,-1
 324 190 l 1,66,-1
 264 245 l 1,42,-1
EndSplineSet
Validated: 1
EndChar

StartChar: C
Encoding: 67 67 34
Width: 582
GlyphClass: 2
Flags: W
AnchorPoint: "SZLeft" 125 70 basechar 0
AnchorPoint: "SZRight" 405 -10 basechar 0
AnchorPoint: "Nasal" 235 150 basechar 0
AnchorPoint: "TBottom" 285 -500 basechar 0
AnchorPoint: "TTop" 285 720 basechar 0
LayerCount: 2
Back
Fore
SplineSet
-94 480 m 1,0,-1
 567 480 l 1,1,-1
 676 390 l 1,2,-1
 489 390 l 1,3,4
 516 360 516 360 536.5 326 c 128,-1,5
 557 292 557 292 557 262 c 0,6,7
 557 206 557 206 544 156.5 c 128,-1,8
 531 107 531 107 502.5 70 c 128,-1,9
 474 33 474 33 430 11.5 c 128,-1,10
 386 -10 386 -10 325 -10 c 2,11,-1
 321 -10 l 1,12,13
 347 -42 347 -42 365.5 -80 c 128,-1,14
 384 -118 384 -118 384 -161 c 0,15,16
 384 -190 384 -190 374.5 -206.5 c 128,-1,17
 365 -223 365 -223 349.5 -231.5 c 128,-1,18
 334 -240 334 -240 312.5 -242.5 c 128,-1,19
 291 -245 291 -245 267 -245 c 2,20,-1
 92 -245 l 2,21,22
 76 -245 76 -245 55.5 -246.5 c 128,-1,23
 35 -248 35 -248 17 -254 c 128,-1,24
 -1 -260 -1 -260 -13.5 -272.5 c 128,-1,25
 -26 -285 -26 -285 -26 -307 c 0,26,27
 -26 -320 -26 -320 -21 -337 c 1,28,29
 -35 -328 -35 -328 -48.5 -317.5 c 128,-1,30
 -62 -307 -62 -307 -73 -294 c 128,-1,31
 -84 -281 -84 -281 -91 -265.5 c 128,-1,32
 -98 -250 -98 -250 -98 -233 c 0,33,34
 -98 -218 -98 -218 -91 -209 c 128,-1,35
 -84 -200 -84 -200 -73 -194.5 c 128,-1,36
 -62 -189 -62 -189 -49.5 -187 c 128,-1,37
 -37 -185 -37 -185 -25 -185 c 2,38,-1
 157 -185 l 2,39,40
 187 -185 187 -185 215 -181.5 c 128,-1,41
 243 -178 243 -178 264.5 -166.5 c 128,-1,42
 286 -155 286 -155 299.5 -133 c 128,-1,43
 313 -111 313 -111 313 -75 c 0,44,45
 313 -61 313 -61 306.5 -42 c 128,-1,46
 300 -23 300 -23 296 -8 c 1,47,48
 241 -1 241 -1 191.5 30.5 c 128,-1,49
 142 62 142 62 105 107.5 c 128,-1,50
 68 153 68 153 46.5 207.5 c 128,-1,51
 25 262 25 262 25 316 c 0,52,53
 25 335 25 335 29 353.5 c 128,-1,54
 33 372 33 372 40 390 c 1,55,-1
 15 390 l 1,56,-1
 -94 480 l 1,0,-1
264 245 m 1,57,-1
 264 390 l 1,58,-1
 141 390 l 1,59,-1
 156 377 l 1,60,61
 147 364 147 364 138 347 c 128,-1,62
 129 330 129 330 122 312 c 128,-1,63
 115 294 115 294 110.5 276 c 128,-1,64
 106 258 106 258 106 242 c 0,65,66
 106 209 106 209 112 175 c 128,-1,67
 118 141 118 141 132.5 113.5 c 128,-1,68
 147 86 147 86 171.5 68 c 128,-1,69
 196 50 196 50 234 50 c 0,70,71
 302 50 302 50 348 69.5 c 128,-1,72
 394 89 394 89 421.5 125 c 128,-1,73
 449 161 449 161 460.5 212 c 128,-1,74
 472 263 472 263 472 326 c 0,75,76
 472 340 472 340 467.5 356.5 c 128,-1,77
 463 373 463 373 456 390 c 1,78,-1
 316 390 l 1,79,-1
 324 383 l 1,80,-1
 324 190 l 1,81,-1
 264 245 l 1,57,-1
EndSplineSet
Validated: 1
EndChar

StartChar: D
Encoding: 68 68 35
Width: 582
GlyphClass: 2
Flags: W
AnchorPoint: "SZLeft" 145 70 basechar 0
AnchorPoint: "SZRight" 405 -10 basechar 0
AnchorPoint: "Nasal" 225 150 basechar 0
AnchorPoint: "TBottom" 295 -500 basechar 0
AnchorPoint: "TTop" 285 720 basechar 0
LayerCount: 2
Back
Fore
SplineSet
-94 480 m 1,0,-1
 567 480 l 1,1,-1
 676 390 l 1,2,-1
 489 390 l 1,3,4
 516 360 516 360 536.5 326 c 128,-1,5
 557 292 557 292 557 262 c 0,6,7
 557 206 557 206 544 156.5 c 128,-1,8
 531 107 531 107 502.5 70 c 128,-1,9
 474 33 474 33 430 11.5 c 128,-1,10
 386 -10 386 -10 325 -10 c 2,11,-1
 321 -10 l 1,12,13
 321 -36 321 -36 320.5 -62 c 128,-1,14
 320 -88 320 -88 320 -115 c 0,15,16
 320 -131 320 -131 326 -149 c 128,-1,17
 332 -167 332 -167 343 -182.5 c 128,-1,18
 354 -198 354 -198 368.5 -208 c 128,-1,19
 383 -218 383 -218 401 -218 c 0,20,21
 436 -218 436 -218 463 -200.5 c 128,-1,22
 490 -183 490 -183 501 -150 c 1,23,-1
 573 -205 l 1,24,25
 570 -222 570 -222 558 -232.5 c 128,-1,26
 546 -243 546 -243 530 -249 c 128,-1,27
 514 -255 514 -255 497 -257 c 128,-1,28
 480 -259 480 -259 466 -259 c 0,29,30
 437 -259 437 -259 416 -254 c 128,-1,31
 395 -249 395 -249 378.5 -238.5 c 128,-1,32
 362 -228 362 -228 347 -212 c 128,-1,33
 332 -196 332 -196 314 -175 c 1,34,35
 307 -212 307 -212 287.5 -231 c 128,-1,36
 268 -250 268 -250 230 -250 c 0,37,38
 203 -250 203 -250 164.5 -228.5 c 128,-1,39
 126 -207 126 -207 91 -175 c 0,40,41
 89 -173 89 -173 89 -170 c 0,42,43
 89 -163 89 -163 95 -163 c 0,44,45
 113 -177 113 -177 134.5 -182 c 128,-1,46
 156 -187 156 -187 173 -187 c 0,47,48
 195 -187 195 -187 210 -172 c 128,-1,49
 225 -157 225 -157 234.5 -136 c 128,-1,50
 244 -115 244 -115 248.5 -91.5 c 128,-1,51
 253 -68 253 -68 253 -50 c 2,52,-1
 253 1 l 1,53,54
 205 17 205 17 163.5 50 c 128,-1,55
 122 83 122 83 91.5 126 c 128,-1,56
 61 169 61 169 43 218.5 c 128,-1,57
 25 268 25 268 25 316 c 0,58,59
 25 335 25 335 29 353.5 c 128,-1,60
 33 372 33 372 40 390 c 1,61,-1
 15 390 l 1,62,-1
 -94 480 l 1,0,-1
264 245 m 1,63,-1
 264 390 l 1,64,-1
 141 390 l 1,65,-1
 156 377 l 1,66,67
 147 364 147 364 138 347 c 128,-1,68
 129 330 129 330 122 312 c 128,-1,69
 115 294 115 294 110.5 276 c 128,-1,70
 106 258 106 258 106 242 c 0,71,72
 106 209 106 209 112 175 c 128,-1,73
 118 141 118 141 132.5 113.5 c 128,-1,74
 147 86 147 86 171.5 68 c 128,-1,75
 196 50 196 50 234 50 c 0,76,77
 302 50 302 50 348 69.5 c 128,-1,78
 394 89 394 89 421.5 125 c 128,-1,79
 449 161 449 161 460.5 212 c 128,-1,80
 472 263 472 263 472 326 c 0,81,82
 472 340 472 340 467.5 356.5 c 128,-1,83
 463 373 463 373 456 390 c 1,84,-1
 316 390 l 1,85,-1
 324 383 l 1,86,-1
 324 190 l 1,87,-1
 264 245 l 1,63,-1
EndSplineSet
Validated: 1
EndChar

StartChar: E
Encoding: 69 69 36
Width: 582
GlyphClass: 2
Flags: W
AnchorPoint: "SZLeft" 125 90 basechar 0
AnchorPoint: "SZRight" 405 -10 basechar 0
AnchorPoint: "Nasal" 175 220 basechar 0
AnchorPoint: "TBottom" 295 -530 basechar 0
AnchorPoint: "TTop" 285 720 basechar 0
LayerCount: 2
Back
Fore
SplineSet
-94 480 m 1,0,-1
 567 480 l 1,1,-1
 676 390 l 1,2,-1
 489 390 l 1,3,4
 516 360 516 360 536.5 326 c 128,-1,5
 557 292 557 292 557 262 c 0,6,7
 557 206 557 206 544 156.5 c 128,-1,8
 531 107 531 107 502.5 70 c 128,-1,9
 474 33 474 33 430 11.5 c 128,-1,10
 386 -10 386 -10 325 -10 c 2,11,-1
 316 -10 l 1,12,-1
 316 -95 l 2,13,14
 316 -116 316 -116 318.5 -144 c 128,-1,15
 321 -172 321 -172 330 -197.5 c 128,-1,16
 339 -223 339 -223 355.5 -240.5 c 128,-1,17
 372 -258 372 -258 401 -258 c 0,18,19
 436 -258 436 -258 463 -241 c 128,-1,20
 490 -224 490 -224 501 -190 c 1,21,-1
 573 -245 l 1,22,23
 570 -262 570 -262 557.5 -272.5 c 128,-1,24
 545 -283 545 -283 529.5 -289 c 128,-1,25
 514 -295 514 -295 496.5 -297 c 128,-1,26
 479 -299 479 -299 466 -299 c 0,27,28
 440 -299 440 -299 413.5 -293.5 c 128,-1,29
 387 -288 387 -288 367 -271 c 0,30,31
 347 -255 347 -255 327 -236 c 128,-1,32
 307 -217 307 -217 290.5 -195 c 128,-1,33
 274 -173 274 -173 263.5 -148 c 128,-1,34
 253 -123 253 -123 253 -96 c 2,35,-1
 255 1 l 1,36,37
 207 16 207 16 165 49 c 128,-1,38
 123 82 123 82 92 125 c 128,-1,39
 61 168 61 168 43 218 c 128,-1,40
 25 268 25 268 25 316 c 0,41,42
 25 335 25 335 29 353.5 c 128,-1,43
 33 372 33 372 40 390 c 1,44,-1
 15 390 l 1,45,-1
 -94 480 l 1,0,-1
106 242 m 0,46,47
 106 209 106 209 112 175 c 128,-1,48
 118 141 118 141 132.5 113.5 c 128,-1,49
 147 86 147 86 171.5 68 c 128,-1,50
 196 50 196 50 234 50 c 2,51,-1
 256 50 l 1,52,-1
 256 390 l 1,53,-1
 141 390 l 1,54,-1
 156 377 l 1,55,56
 147 364 147 364 138 347 c 128,-1,57
 129 330 129 330 122 312 c 128,-1,58
 115 294 115 294 110.5 276 c 128,-1,59
 106 258 106 258 106 242 c 0,46,47
316 59 m 1,60,61
 360 70 360 70 390 93.5 c 128,-1,62
 420 117 420 117 438 151.5 c 128,-1,63
 456 186 456 186 464 230 c 128,-1,64
 472 274 472 274 472 326 c 0,65,66
 472 340 472 340 467.5 356.5 c 128,-1,67
 463 373 463 373 456 390 c 1,68,-1
 308 390 l 1,69,-1
 316 383 l 1,70,-1
 316 59 l 1,60,61
EndSplineSet
Validated: 1
EndChar

StartChar: F
Encoding: 70 70 37
Width: 582
GlyphClass: 2
Flags: W
AnchorPoint: "SZLeft" 115 100 basechar 0
AnchorPoint: "SZRight" 405 -10 basechar 0
AnchorPoint: "Nasal" 195 300 basechar 0
AnchorPoint: "TBottom" 305 -260 basechar 0
AnchorPoint: "TTop" 275 720 basechar 0
LayerCount: 2
Back
Fore
SplineSet
-94 480 m 1,0,-1
 567 480 l 1,1,-1
 676 390 l 1,2,-1
 489 390 l 1,3,4
 516 360 516 360 536.5 326 c 128,-1,5
 557 292 557 292 557 262 c 0,6,7
 557 206 557 206 544 156.5 c 128,-1,8
 531 107 531 107 502.5 70 c 128,-1,9
 474 33 474 33 430 11.5 c 128,-1,10
 386 -10 386 -10 325 -10 c 0,11,12
 265 -10 265 -10 211 19.5 c 128,-1,13
 157 49 157 49 115.5 96 c 128,-1,14
 74 143 74 143 49.5 201 c 128,-1,15
 25 259 25 259 25 316 c 0,16,17
 25 335 25 335 29 353.5 c 128,-1,18
 33 372 33 372 40 390 c 1,19,-1
 15 390 l 1,20,-1
 -94 480 l 1,0,-1
106 242 m 0,21,22
 106 214 106 214 110 185.5 c 128,-1,23
 114 157 114 157 125 131 c 1,24,-1
 406 390 l 1,25,-1
 141 390 l 1,26,-1
 156 377 l 1,27,28
 147 364 147 364 138 347 c 128,-1,29
 129 330 129 330 122 312 c 128,-1,30
 115 294 115 294 110.5 276 c 128,-1,31
 106 258 106 258 106 242 c 0,21,22
471 342 m 1,32,33
 436 311 436 311 392.5 272 c 128,-1,34
 349 233 349 233 307 194 c 128,-1,35
 265 155 265 155 228.5 121.5 c 128,-1,36
 192 88 192 88 171 68 c 1,37,38
 184 60 184 60 199.5 55 c 128,-1,39
 215 50 215 50 234 50 c 0,40,41
 302 50 302 50 348 69.5 c 128,-1,42
 394 89 394 89 421.5 125 c 128,-1,43
 449 161 449 161 460.5 212 c 128,-1,44
 472 263 472 263 472 326 c 0,45,46
 472 330 472 330 472 334 c 128,-1,47
 472 338 472 338 471 342 c 1,32,33
EndSplineSet
Validated: 1
EndChar

StartChar: G
Encoding: 71 71 38
Width: 851
GlyphClass: 2
Flags: W
AnchorPoint: "SZLeft" 55 70 basechar 0
AnchorPoint: "SZRight" 685 -10 basechar 0
AnchorPoint: "Nasal" 455 290 basechar 0
AnchorPoint: "TBottom" 575 -260 basechar 0
AnchorPoint: "TTop" 565 720 basechar 0
LayerCount: 2
Back
Fore
SplineSet
-95 480 m 1,0,-1
 836 480 l 1,1,-1
 945 390 l 1,2,-1
 758 390 l 1,3,4
 785 360 785 360 805.5 326 c 128,-1,5
 826 292 826 292 826 262 c 0,6,7
 826 206 826 206 813 156.5 c 128,-1,8
 800 107 800 107 771.5 70 c 128,-1,9
 743 33 743 33 699 11.5 c 128,-1,10
 655 -10 655 -10 594 -10 c 0,11,12
 549 -10 549 -10 506.5 7.5 c 128,-1,13
 464 25 464 25 427 54 c 1,14,15
 414 41 414 41 393.5 21 c 128,-1,16
 373 1 373 1 350.5 -17.5 c 128,-1,17
 328 -36 328 -36 308 -49.5 c 128,-1,18
 288 -63 288 -63 276 -63 c 0,19,20
 229 -63 229 -63 192.5 -42 c 128,-1,21
 156 -21 156 -21 120 6 c 0,22,23
 101 20 101 20 84 35.5 c 128,-1,24
 67 51 67 51 54 68.5 c 128,-1,25
 41 86 41 86 33 106.5 c 128,-1,26
 25 127 25 127 25 153 c 0,27,28
 25 160 25 160 30 167.5 c 128,-1,29
 35 175 35 175 42 181.5 c 128,-1,30
 49 188 49 188 57 193.5 c 128,-1,31
 65 199 65 199 71 202 c 1,32,-1
 146 145 l 1,33,34
 133 128 133 128 119 114.5 c 128,-1,35
 105 101 105 101 105 80 c 0,36,37
 105 38 105 38 133.5 17.5 c 128,-1,38
 162 -3 162 -3 200 -3 c 0,39,40
 217 -3 217 -3 240.5 9.5 c 128,-1,41
 264 22 264 22 288 39.5 c 128,-1,42
 312 57 312 57 334 76.5 c 128,-1,43
 356 96 356 96 371 110 c 2,44,-1
 372 111 l 1,45,46
 336 156 336 156 315 209.5 c 128,-1,47
 294 263 294 263 294 316 c 0,48,49
 294 335 294 335 298 353.5 c 128,-1,50
 302 372 302 372 309 390 c 1,51,-1
 14 390 l 1,52,-1
 -95 480 l 1,0,-1
375 242 m 0,53,54
 375 214 375 214 379 185.5 c 128,-1,55
 383 157 383 157 394 131 c 1,56,-1
 675 390 l 1,57,-1
 410 390 l 1,58,-1
 425 377 l 1,59,60
 416 364 416 364 407 347 c 128,-1,61
 398 330 398 330 391 312 c 128,-1,62
 384 294 384 294 379.5 276 c 128,-1,63
 375 258 375 258 375 242 c 0,53,54
444 72 m 0,64,65
 444 71 444 71 443 70 c 2,66,-1
 441 68 l 1,67,68
 465 50 465 50 503 50 c 0,69,70
 571 50 571 50 617 69.5 c 128,-1,71
 663 89 663 89 690.5 125 c 128,-1,72
 718 161 718 161 729.5 212 c 128,-1,73
 741 263 741 263 741 326 c 0,74,75
 741 330 741 330 741 334 c 128,-1,76
 741 338 741 338 740 342 c 1,77,78
 705 311 705 311 660.5 270.5 c 128,-1,79
 616 230 616 230 573.5 191 c 128,-1,80
 531 152 531 152 495.5 119.5 c 128,-1,81
 460 87 460 87 444 72 c 0,64,65
EndSplineSet
Validated: 1
EndChar

StartChar: H
Encoding: 72 72 39
Width: 582
GlyphClass: 2
Flags: W
AnchorPoint: "SZLeft" 125 70 basechar 0
AnchorPoint: "SZRight" 435 0 basechar 0
AnchorPoint: "Nasal" 195 290 basechar 0
AnchorPoint: "TBottom" 295 -520 basechar 0
AnchorPoint: "TTop" 265 720 basechar 0
LayerCount: 2
Back
Fore
SplineSet
-94 480 m 1,0,-1
 567 480 l 1,1,-1
 676 390 l 1,2,-1
 489 390 l 1,3,4
 516 360 516 360 536.5 326 c 128,-1,5
 557 292 557 292 557 262 c 0,6,7
 557 206 557 206 544 156.5 c 128,-1,8
 531 107 531 107 502.5 70 c 128,-1,9
 474 33 474 33 430 11.5 c 128,-1,10
 386 -10 386 -10 325 -10 c 2,11,-1
 321 -10 l 1,12,13
 319 -31 319 -31 317.5 -52 c 128,-1,14
 316 -73 316 -73 316 -95 c 0,15,16
 316 -116 316 -116 318.5 -144 c 128,-1,17
 321 -172 321 -172 330 -197.5 c 128,-1,18
 339 -223 339 -223 355.5 -240.5 c 128,-1,19
 372 -258 372 -258 401 -258 c 0,20,21
 436 -258 436 -258 463 -241 c 128,-1,22
 490 -224 490 -224 501 -190 c 1,23,-1
 573 -245 l 1,24,25
 570 -262 570 -262 557.5 -272.5 c 128,-1,26
 545 -283 545 -283 529.5 -289 c 128,-1,27
 514 -295 514 -295 496.5 -297 c 128,-1,28
 479 -299 479 -299 466 -299 c 0,29,30
 428 -299 428 -299 390 -281 c 128,-1,31
 352 -263 352 -263 321.5 -233.5 c 128,-1,32
 291 -204 291 -204 272 -168 c 128,-1,33
 253 -132 253 -132 253 -96 c 2,34,-1
 253 1 l 1,35,36
 205 17 205 17 163.5 50 c 128,-1,37
 122 83 122 83 91.5 126 c 128,-1,38
 61 169 61 169 43 218.5 c 128,-1,39
 25 268 25 268 25 316 c 0,40,41
 25 335 25 335 29 353.5 c 128,-1,42
 33 372 33 372 40 390 c 1,43,-1
 15 390 l 1,44,-1
 -94 480 l 1,0,-1
106 242 m 0,45,46
 106 214 106 214 110 185.5 c 128,-1,47
 114 157 114 157 125 131 c 1,48,-1
 406 390 l 1,49,-1
 141 390 l 1,50,-1
 156 377 l 1,51,52
 147 364 147 364 138 347 c 128,-1,53
 129 330 129 330 122 312 c 128,-1,54
 115 294 115 294 110.5 276 c 128,-1,55
 106 258 106 258 106 242 c 0,45,46
471 342 m 1,56,57
 436 311 436 311 392.5 272 c 128,-1,58
 349 233 349 233 307 194 c 128,-1,59
 265 155 265 155 228.5 121.5 c 128,-1,60
 192 88 192 88 171 68 c 1,61,62
 184 60 184 60 199.5 55 c 128,-1,63
 215 50 215 50 234 50 c 0,64,65
 302 50 302 50 348 69.5 c 128,-1,66
 394 89 394 89 421.5 125 c 128,-1,67
 449 161 449 161 460.5 212 c 128,-1,68
 472 263 472 263 472 326 c 0,69,70
 472 330 472 330 472 334 c 128,-1,71
 472 338 472 338 471 342 c 1,56,57
EndSplineSet
Validated: 1
EndChar

StartChar: I
Encoding: 73 73 40
Width: 1028
GlyphClass: 2
Flags: W
AnchorPoint: "SZLeft" 135 70 basechar 0
AnchorPoint: "SZRight" 945 -190 basechar 0
AnchorPoint: "Nasal" 195 300 basechar 0
AnchorPoint: "TBottom" 305 -250 basechar 0
AnchorPoint: "TTop" 298 720 basechar 0
LayerCount: 2
Back
Fore
SplineSet
-94 480 m 1,0,-1
 1013 480 l 1,1,-1
 1122 390 l 1,2,-1
 489 390 l 1,3,4
 507 370 507 370 522.5 348.5 c 128,-1,5
 538 327 538 327 547 306 c 2,6,-1
 797 -91 l 2,7,8
 807 -106 807 -106 822 -118.5 c 128,-1,9
 837 -131 837 -131 854 -131 c 0,10,11
 886 -131 886 -131 910 -114 c 128,-1,12
 934 -97 934 -97 934 -68 c 0,13,14
 934 -55 934 -55 928 -41 c 1,15,16
 961 -63 961 -63 982 -90.5 c 128,-1,17
 1003 -118 1003 -118 1003 -160 c 0,18,19
 1003 -176 1003 -176 994.5 -188.5 c 128,-1,20
 986 -201 986 -201 973.5 -209.5 c 128,-1,21
 961 -218 961 -218 945.5 -222.5 c 128,-1,22
 930 -227 930 -227 917 -227 c 0,23,24
 886 -227 886 -227 858.5 -210 c 128,-1,25
 831 -193 831 -193 815 -167 c 2,26,-1
 557 252 l 1,27,28
 556 197 556 197 542 149.5 c 128,-1,29
 528 102 528 102 500 66.5 c 128,-1,30
 472 31 472 31 428.5 10.5 c 128,-1,31
 385 -10 385 -10 325 -10 c 256,32,33
 265 -10 265 -10 211 19.5 c 128,-1,34
 157 49 157 49 115.5 96 c 128,-1,35
 74 143 74 143 49.5 201 c 128,-1,36
 25 259 25 259 25 316 c 0,37,38
 25 335 25 335 29 353.5 c 128,-1,39
 33 372 33 372 40 390 c 1,40,-1
 15 390 l 1,41,-1
 -94 480 l 1,0,-1
106 242 m 0,42,43
 106 214 106 214 110 185.5 c 128,-1,44
 114 157 114 157 125 131 c 1,45,-1
 406 390 l 1,46,-1
 141 390 l 1,47,-1
 156 377 l 1,48,49
 147 364 147 364 138 347 c 128,-1,50
 129 330 129 330 122 312 c 128,-1,51
 115 294 115 294 110.5 276 c 128,-1,52
 106 258 106 258 106 242 c 0,42,43
471 342 m 1,53,54
 436 311 436 311 392.5 272 c 128,-1,55
 349 233 349 233 307 194 c 128,-1,56
 265 155 265 155 228.5 121.5 c 128,-1,57
 192 88 192 88 171 68 c 1,58,59
 184 60 184 60 199.5 55 c 128,-1,60
 215 50 215 50 234 50 c 0,61,62
 302 50 302 50 348 69.5 c 128,-1,63
 394 89 394 89 421.5 125 c 128,-1,64
 449 161 449 161 460.5 212 c 128,-1,65
 472 263 472 263 472 326 c 0,66,67
 472 330 472 330 472 334 c 128,-1,68
 472 338 472 338 471 342 c 1,53,54
EndSplineSet
Validated: 1
EndChar

StartChar: J
Encoding: 74 74 41
Width: 623
GlyphClass: 2
Flags: W
AnchorPoint: "SZLeft" 145 100 basechar 0
AnchorPoint: "SZRight" 455 -10 basechar 0
AnchorPoint: "Nasal" 245 310 basechar 0
AnchorPoint: "TBottom" 325 -510 basechar 0
AnchorPoint: "TTop" 325 720 basechar 0
LayerCount: 2
Back
Fore
SplineSet
-93 480 m 1,0,-1
 608 480 l 1,1,-1
 717 390 l 1,2,-1
 530 390 l 1,3,4
 557 360 557 360 577.5 326 c 128,-1,5
 598 292 598 292 598 262 c 0,6,7
 598 206 598 206 585 156.5 c 128,-1,8
 572 107 572 107 543.5 70 c 128,-1,9
 515 33 515 33 471 11.5 c 128,-1,10
 427 -10 427 -10 366 -10 c 0,11,12
 320 -10 320 -10 277.5 7.5 c 128,-1,13
 235 25 235 25 199 55 c 1,14,-1
 198 55 l 1,15,16
 184 41 184 41 164.5 19.5 c 128,-1,17
 145 -2 145 -2 127.5 -25.5 c 128,-1,18
 110 -49 110 -49 98 -72 c 128,-1,19
 86 -95 86 -95 86 -112 c 0,20,21
 86 -150 86 -150 101 -173.5 c 128,-1,22
 116 -197 116 -197 158 -197 c 0,23,24
 179 -197 179 -197 198 -188 c 128,-1,25
 217 -179 217 -179 233 -166 c 1,26,-1
 280 -231 l 1,27,28
 277 -237 277 -237 271.5 -245 c 128,-1,29
 266 -253 266 -253 259.5 -260 c 128,-1,30
 253 -267 253 -267 245.5 -272 c 128,-1,31
 238 -277 238 -277 231 -277 c 0,32,33
 205 -277 205 -277 184.5 -269 c 128,-1,34
 164 -261 164 -261 146.5 -248 c 128,-1,35
 129 -235 129 -235 114 -218 c 128,-1,36
 99 -201 99 -201 85 -182 c 0,37,38
 57 -146 57 -146 41 -114.5 c 128,-1,39
 25 -83 25 -83 25 -35 c 0,40,41
 25 -23 25 -23 38.5 -3.5 c 128,-1,42
 52 16 52 16 71 37 c 128,-1,43
 90 58 90 58 110 78 c 128,-1,44
 130 98 130 98 143 110 c 2,45,-1
 144 111 l 1,46,47
 108 156 108 156 87 209.5 c 128,-1,48
 66 263 66 263 66 316 c 0,49,50
 66 335 66 335 70 353.5 c 128,-1,51
 74 372 74 372 81 390 c 1,52,-1
 16 390 l 1,53,-1
 -93 480 l 1,0,-1
147 242 m 0,54,55
 147 214 147 214 151 185.5 c 128,-1,56
 155 157 155 157 166 131 c 1,57,-1
 447 390 l 1,58,-1
 182 390 l 1,59,-1
 197 377 l 1,60,61
 188 364 188 364 179 347 c 128,-1,62
 170 330 170 330 163 312 c 128,-1,63
 156 294 156 294 151.5 276 c 128,-1,64
 147 258 147 258 147 242 c 0,54,55
512 342 m 1,65,66
 477 311 477 311 432.5 270.5 c 128,-1,67
 388 230 388 230 345.5 191 c 128,-1,68
 303 152 303 152 267.5 119.5 c 128,-1,69
 232 87 232 87 216 72 c 2,70,-1
 213 68 l 1,71,72
 226 60 226 60 241 55 c 128,-1,73
 256 50 256 50 275 50 c 0,74,75
 343 50 343 50 389 69.5 c 128,-1,76
 435 89 435 89 462.5 125 c 128,-1,77
 490 161 490 161 501.5 212 c 128,-1,78
 513 263 513 263 513 326 c 0,79,80
 513 330 513 330 513 334 c 128,-1,81
 513 338 513 338 512 342 c 1,65,66
EndSplineSet
Validated: 1
EndChar

StartChar: K
Encoding: 75 75 42
Width: 1069
GlyphClass: 2
Flags: W
AnchorPoint: "SZLeft" 145 110 basechar 0
AnchorPoint: "SZRight" 1005 -200 basechar 0
AnchorPoint: "Nasal" 235 300 basechar 0
AnchorPoint: "TBottom" 325 -500 basechar 0
AnchorPoint: "TTop" 336 720 basechar 0
LayerCount: 2
Back
Fore
SplineSet
-93 480 m 1,0,-1
 1054 480 l 1,1,-1
 1163 390 l 1,2,-1
 530 390 l 1,3,4
 548 370 548 370 563.5 348.5 c 128,-1,5
 579 327 579 327 588 306 c 2,6,-1
 838 -91 l 2,7,8
 848 -106 848 -106 863 -118.5 c 128,-1,9
 878 -131 878 -131 895 -131 c 0,10,11
 927 -131 927 -131 951 -114 c 128,-1,12
 975 -97 975 -97 975 -68 c 0,13,14
 975 -55 975 -55 969 -41 c 1,15,16
 1002 -63 1002 -63 1023 -90.5 c 128,-1,17
 1044 -118 1044 -118 1044 -160 c 0,18,19
 1044 -176 1044 -176 1035.5 -188.5 c 128,-1,20
 1027 -201 1027 -201 1014.5 -209.5 c 128,-1,21
 1002 -218 1002 -218 986.5 -222.5 c 128,-1,22
 971 -227 971 -227 958 -227 c 0,23,24
 927 -227 927 -227 899.5 -210 c 128,-1,25
 872 -193 872 -193 856 -167 c 2,26,-1
 598 252 l 1,27,28
 597 197 597 197 583 149.5 c 128,-1,29
 569 102 569 102 541 66.5 c 128,-1,30
 513 31 513 31 469.5 10.5 c 128,-1,31
 426 -10 426 -10 366 -10 c 0,32,33
 320 -10 320 -10 277.5 7.5 c 128,-1,34
 235 25 235 25 199 55 c 1,35,-1
 198 55 l 1,36,37
 184 41 184 41 164.5 19.5 c 128,-1,38
 145 -2 145 -2 127.5 -25.5 c 128,-1,39
 110 -49 110 -49 98 -72 c 128,-1,40
 86 -95 86 -95 86 -112 c 0,41,42
 86 -150 86 -150 101 -173.5 c 128,-1,43
 116 -197 116 -197 158 -197 c 0,44,45
 179 -197 179 -197 198 -188 c 128,-1,46
 217 -179 217 -179 233 -166 c 1,47,-1
 280 -231 l 1,48,49
 277 -237 277 -237 271.5 -245 c 128,-1,50
 266 -253 266 -253 259.5 -260 c 128,-1,51
 253 -267 253 -267 245.5 -272 c 128,-1,52
 238 -277 238 -277 231 -277 c 0,53,54
 192 -277 192 -277 154.5 -252 c 128,-1,55
 117 -227 117 -227 88.5 -190.5 c 128,-1,56
 60 -154 60 -154 42.5 -112 c 128,-1,57
 25 -70 25 -70 25 -35 c 0,58,59
 25 -23 25 -23 38.5 -3.5 c 128,-1,60
 52 16 52 16 71 37 c 128,-1,61
 90 58 90 58 110 78 c 128,-1,62
 130 98 130 98 143 110 c 2,63,-1
 144 111 l 1,64,65
 108 156 108 156 87 209.5 c 128,-1,66
 66 263 66 263 66 316 c 0,67,68
 66 335 66 335 70 353.5 c 128,-1,69
 74 372 74 372 81 390 c 1,70,-1
 16 390 l 1,71,-1
 -93 480 l 1,0,-1
147 242 m 0,72,73
 147 214 147 214 151 185.5 c 128,-1,74
 155 157 155 157 166 131 c 1,75,-1
 447 390 l 1,76,-1
 182 390 l 1,77,-1
 197 377 l 1,78,79
 188 364 188 364 179 347 c 128,-1,80
 170 330 170 330 163 312 c 128,-1,81
 156 294 156 294 151.5 276 c 128,-1,82
 147 258 147 258 147 242 c 0,72,73
213 68 m 1,83,84
 226 60 226 60 241 55 c 128,-1,85
 256 50 256 50 275 50 c 0,86,87
 343 50 343 50 389 69.5 c 128,-1,88
 435 89 435 89 462.5 125 c 128,-1,89
 490 161 490 161 501.5 212 c 128,-1,90
 513 263 513 263 513 326 c 0,91,92
 513 330 513 330 513 334 c 128,-1,93
 513 338 513 338 512 342 c 1,94,95
 477 311 477 311 432.5 270.5 c 128,-1,96
 388 230 388 230 345.5 191 c 128,-1,97
 303 152 303 152 267.5 119.5 c 128,-1,98
 232 87 232 87 216 72 c 2,99,-1
 213 68 l 1,83,84
EndSplineSet
Validated: 1
EndChar

StartChar: L
Encoding: 76 76 43
Width: 623
GlyphClass: 2
Flags: W
AnchorPoint: "SZLeft" 135 100 basechar 0
AnchorPoint: "SZRight" 565 -270 basechar 0
AnchorPoint: "Nasal" 235 300 basechar 0
AnchorPoint: "TBottom" 325 -540 basechar 0
AnchorPoint: "TTop" 315 720 basechar 0
LayerCount: 2
Back
Fore
SplineSet
-93 480 m 1,0,-1
 608 480 l 1,1,-1
 717 390 l 1,2,-1
 530 390 l 1,3,4
 557 360 557 360 577.5 326 c 128,-1,5
 598 292 598 292 598 262 c 0,6,7
 598 206 598 206 585 156.5 c 128,-1,8
 572 107 572 107 543.5 70 c 128,-1,9
 515 33 515 33 471 11.5 c 128,-1,10
 427 -10 427 -10 366 -10 c 2,11,-1
 362 -10 l 1,12,13
 360 -31 360 -31 358.5 -52 c 128,-1,14
 357 -73 357 -73 357 -95 c 0,15,16
 357 -116 357 -116 359.5 -144 c 128,-1,17
 362 -172 362 -172 371 -197.5 c 128,-1,18
 380 -223 380 -223 396.5 -240.5 c 128,-1,19
 413 -258 413 -258 442 -258 c 0,20,21
 477 -258 477 -258 504 -241 c 128,-1,22
 531 -224 531 -224 542 -190 c 1,23,-1
 614 -245 l 1,24,25
 611 -262 611 -262 598.5 -272.5 c 128,-1,26
 586 -283 586 -283 570.5 -289 c 128,-1,27
 555 -295 555 -295 537.5 -297 c 128,-1,28
 520 -299 520 -299 507 -299 c 0,29,30
 469 -299 469 -299 431 -281 c 128,-1,31
 393 -263 393 -263 362.5 -233.5 c 128,-1,32
 332 -204 332 -204 313 -168 c 128,-1,33
 294 -132 294 -132 294 -96 c 2,34,-1
 294 1 l 1,35,36
 268 9 268 9 244 23 c 128,-1,37
 220 37 220 37 198 55 c 1,38,39
 184 41 184 41 164.5 19.5 c 128,-1,40
 145 -2 145 -2 127.5 -25.5 c 128,-1,41
 110 -49 110 -49 98 -72 c 128,-1,42
 86 -95 86 -95 86 -112 c 0,43,44
 86 -150 86 -150 101 -173.5 c 128,-1,45
 116 -197 116 -197 158 -197 c 0,46,47
 179 -197 179 -197 198 -188 c 128,-1,48
 217 -179 217 -179 233 -166 c 1,49,-1
 280 -231 l 1,50,51
 277 -237 277 -237 271.5 -245 c 128,-1,52
 266 -253 266 -253 259.5 -260 c 128,-1,53
 253 -267 253 -267 245.5 -272 c 128,-1,54
 238 -277 238 -277 231 -277 c 0,55,56
 192 -277 192 -277 154.5 -252 c 128,-1,57
 117 -227 117 -227 88.5 -190.5 c 128,-1,58
 60 -154 60 -154 42.5 -112 c 128,-1,59
 25 -70 25 -70 25 -35 c 0,60,61
 25 -23 25 -23 38.5 -3.5 c 128,-1,62
 52 16 52 16 71 37 c 128,-1,63
 90 58 90 58 110 78 c 128,-1,64
 130 98 130 98 143 110 c 1,65,-1
 144 110 l 1,66,67
 108 156 108 156 87 209 c 128,-1,68
 66 262 66 262 66 316 c 0,69,70
 66 335 66 335 70 353.5 c 128,-1,71
 74 372 74 372 81 390 c 1,72,-1
 16 390 l 1,73,-1
 -93 480 l 1,0,-1
147 242 m 0,74,75
 147 214 147 214 151 185.5 c 128,-1,76
 155 157 155 157 166 131 c 1,77,-1
 447 390 l 1,78,-1
 182 390 l 1,79,-1
 197 377 l 1,80,81
 188 364 188 364 179 347 c 128,-1,82
 170 330 170 330 163 312 c 128,-1,83
 156 294 156 294 151.5 276 c 128,-1,84
 147 258 147 258 147 242 c 0,74,75
512 342 m 1,85,86
 477 311 477 311 432.5 270.5 c 128,-1,87
 388 230 388 230 345.5 191 c 128,-1,88
 303 152 303 152 267.5 119.5 c 128,-1,89
 232 87 232 87 216 72 c 2,90,-1
 213 68 l 1,91,92
 226 60 226 60 241 55 c 128,-1,93
 256 50 256 50 275 50 c 0,94,95
 343 50 343 50 389 69.5 c 128,-1,96
 435 89 435 89 462.5 125 c 128,-1,97
 490 161 490 161 501.5 212 c 128,-1,98
 513 263 513 263 513 326 c 0,99,100
 513 330 513 330 513 334 c 128,-1,101
 513 338 513 338 512 342 c 1,85,86
EndSplineSet
Validated: 1
EndChar

StartChar: M
Encoding: 77 77 44
Width: 582
GlyphClass: 2
Flags: W
AnchorPoint: "SZLeft" 125 90 basechar 0
AnchorPoint: "SZRight" 405 -10 basechar 0
AnchorPoint: "Nasal" 275 130 basechar 0
AnchorPoint: "TBottom" 285 -250 basechar 0
AnchorPoint: "TTop" 295 720 basechar 0
LayerCount: 2
Back
Fore
SplineSet
-94 480 m 1,0,-1
 567 480 l 1,1,-1
 676 390 l 1,2,-1
 489 390 l 1,3,4
 516 360 516 360 536.5 326 c 128,-1,5
 557 292 557 292 557 262 c 0,6,7
 557 206 557 206 544 156.5 c 128,-1,8
 531 107 531 107 502.5 70 c 128,-1,9
 474 33 474 33 430 11.5 c 128,-1,10
 386 -10 386 -10 325 -10 c 0,11,12
 265 -10 265 -10 211 19.5 c 128,-1,13
 157 49 157 49 115.5 96 c 128,-1,14
 74 143 74 143 49.5 201 c 128,-1,15
 25 259 25 259 25 316 c 0,16,17
 25 335 25 335 29 353.5 c 128,-1,18
 33 372 33 372 40 390 c 1,19,-1
 15 390 l 1,20,-1
 -94 480 l 1,0,-1
205 245 m 1,21,-1
 205 390 l 1,22,-1
 141 390 l 1,23,-1
 156 377 l 1,24,25
 147 364 147 364 138 347 c 128,-1,26
 129 330 129 330 122 312 c 128,-1,27
 115 294 115 294 110.5 276 c 128,-1,28
 106 258 106 258 106 242 c 0,29,30
 106 209 106 209 112 175 c 128,-1,31
 118 141 118 141 132.5 113.5 c 128,-1,32
 147 86 147 86 171.5 68 c 128,-1,33
 196 50 196 50 234 50 c 0,34,35
 302 50 302 50 348 69.5 c 128,-1,36
 394 89 394 89 421.5 125 c 128,-1,37
 449 161 449 161 460.5 212 c 128,-1,38
 472 263 472 263 472 326 c 0,39,40
 472 340 472 340 467.5 356.5 c 128,-1,41
 463 373 463 373 456 390 c 1,42,-1
 386 390 l 1,43,-1
 386 200 l 1,44,-1
 326 245 l 1,45,-1
 326 390 l 1,46,-1
 265 390 l 1,47,-1
 265 200 l 1,48,-1
 205 245 l 1,21,-1
EndSplineSet
Validated: 1
EndChar

StartChar: N
Encoding: 78 78 45
Width: 582
GlyphClass: 2
Flags: W
AnchorPoint: "SZLeft" 115 100 basechar 0
AnchorPoint: "SZRight" 425 -10 basechar 0
AnchorPoint: "Nasal" 275 130 basechar 0
AnchorPoint: "TBottom" 305 -550 basechar 0
AnchorPoint: "TTop" 285 720 basechar 0
LayerCount: 2
Back
Fore
SplineSet
-93 480 m 1,0,-1
 565 480 l 1,1,-1
 674 390 l 1,2,-1
 489 390 l 1,3,4
 516 360 516 360 536.5 326 c 128,-1,5
 557 292 557 292 557 262 c 0,6,7
 557 206 557 206 544 156.5 c 128,-1,8
 531 107 531 107 502.5 70 c 128,-1,9
 474 33 474 33 430 11.5 c 128,-1,10
 386 -10 386 -10 325 -10 c 2,11,-1
 321 -10 l 1,12,13
 319 -31 319 -31 317.5 -52 c 128,-1,14
 316 -73 316 -73 316 -95 c 0,15,16
 316 -116 316 -116 318.5 -144 c 128,-1,17
 321 -172 321 -172 330 -197.5 c 128,-1,18
 339 -223 339 -223 355.5 -240.5 c 128,-1,19
 372 -258 372 -258 401 -258 c 0,20,21
 436 -258 436 -258 463 -241 c 128,-1,22
 490 -224 490 -224 501 -190 c 1,23,-1
 573 -245 l 1,24,25
 570 -262 570 -262 557.5 -272.5 c 128,-1,26
 545 -283 545 -283 529.5 -289 c 128,-1,27
 514 -295 514 -295 496.5 -297 c 128,-1,28
 479 -299 479 -299 466 -299 c 0,29,30
 428 -299 428 -299 390 -281 c 128,-1,31
 352 -263 352 -263 321.5 -233.5 c 128,-1,32
 291 -204 291 -204 272 -168 c 128,-1,33
 253 -132 253 -132 253 -96 c 2,34,-1
 253 1 l 1,35,36
 205 17 205 17 163.5 50 c 128,-1,37
 122 83 122 83 91.5 126 c 128,-1,38
 61 169 61 169 43 218.5 c 128,-1,39
 25 268 25 268 25 316 c 0,40,41
 25 335 25 335 29 353.5 c 128,-1,42
 33 372 33 372 40 390 c 1,43,-1
 16 390 l 1,44,-1
 -93 480 l 1,0,-1
205 245 m 1,45,-1
 205 390 l 1,46,-1
 141 390 l 1,47,-1
 156 377 l 1,48,49
 147 364 147 364 138 347 c 128,-1,50
 129 330 129 330 122 312 c 128,-1,51
 115 294 115 294 110.5 276 c 128,-1,52
 106 258 106 258 106 242 c 0,53,54
 106 209 106 209 112 175 c 128,-1,55
 118 141 118 141 132.5 113.5 c 128,-1,56
 147 86 147 86 171.5 68 c 128,-1,57
 196 50 196 50 234 50 c 0,58,59
 302 50 302 50 348 69.5 c 128,-1,60
 394 89 394 89 421.5 125 c 128,-1,61
 449 161 449 161 460.5 212 c 128,-1,62
 472 263 472 263 472 326 c 0,63,64
 472 340 472 340 467.5 356.5 c 128,-1,65
 463 373 463 373 456 390 c 1,66,-1
 386 390 l 1,67,-1
 386 200 l 1,68,-1
 326 245 l 1,69,-1
 326 390 l 1,70,-1
 265 390 l 1,71,-1
 265 200 l 1,72,-1
 205 245 l 1,45,-1
EndSplineSet
Validated: 1
EndChar

StartChar: O
Encoding: 79 79 46
Width: 951
GlyphClass: 2
Flags: W
AnchorPoint: "SZLeft" 85 30 basechar 0
AnchorPoint: "SZRight" 925 -10 basechar 0
AnchorPoint: "Nasal" 465 170 basechar 0
AnchorPoint: "TBottom" 485 -400 basechar 0
AnchorPoint: "TTop" 485 720 basechar 0
LayerCount: 2
Back
Fore
SplineSet
-95 480 m 1,0,-1
 936 480 l 1,1,-1
 1045 390 l 1,2,-1
 658 390 l 1,3,4
 696 354 696 354 719 306.5 c 128,-1,5
 742 259 742 259 742 208 c 0,6,7
 742 187 742 187 744 156.5 c 128,-1,8
 746 126 746 126 754.5 98 c 128,-1,9
 763 70 763 70 780 50.5 c 128,-1,10
 797 31 797 31 827 31 c 0,11,12
 862 31 862 31 888.5 48.5 c 128,-1,13
 915 66 915 66 926 99 c 1,14,-1
 997 44 l 1,15,16
 994 27 994 27 982.5 16.5 c 128,-1,17
 971 6 971 6 955 0 c 128,-1,18
 939 -6 939 -6 922 -8 c 128,-1,19
 905 -10 905 -10 891 -10 c 0,20,21
 856 -10 856 -10 834.5 -3.5 c 128,-1,22
 813 3 813 3 796 15.5 c 128,-1,23
 779 28 779 28 763.5 45.5 c 128,-1,24
 748 63 748 63 725 85 c 1,25,26
 718 49 718 49 701 11 c 128,-1,27
 684 -27 684 -27 658 -58.5 c 128,-1,28
 632 -90 632 -90 597.5 -110 c 128,-1,29
 563 -130 563 -130 522 -130 c 0,30,31
 482 -130 482 -130 443 -109.5 c 128,-1,32
 404 -89 404 -89 370 -57.5 c 128,-1,33
 336 -26 336 -26 309 11.5 c 128,-1,34
 282 49 282 49 265 82 c 1,35,36
 260 37 260 37 243.5 14.5 c 128,-1,37
 227 -8 227 -8 178 -8 c 0,38,39
 160 -8 160 -8 138 -2.5 c 128,-1,40
 116 3 116 3 95 12.5 c 128,-1,41
 74 22 74 22 55.5 34.5 c 128,-1,42
 37 47 37 47 25 61 c 1,43,44
 41 56 41 56 57.5 53.5 c 128,-1,45
 74 51 74 51 91 51 c 0,46,47
 134 51 134 51 159.5 72.5 c 128,-1,48
 185 94 185 94 197.5 126.5 c 128,-1,49
 210 159 210 159 213.5 196.5 c 128,-1,50
 217 234 217 234 217 267 c 0,51,52
 217 302 217 302 219 331.5 c 128,-1,53
 221 361 221 361 232 390 c 1,54,-1
 14 390 l 1,55,-1
 -95 480 l 1,0,-1
304 202 m 0,56,57
 304 169 304 169 310 123.5 c 128,-1,58
 316 78 316 78 332 37.5 c 128,-1,59
 348 -3 348 -3 376.5 -31.5 c 128,-1,60
 405 -60 405 -60 451 -60 c 0,61,62
 509 -60 509 -60 548 -27.5 c 128,-1,63
 587 5 587 5 610.5 53 c 128,-1,64
 634 101 634 101 643.5 156.5 c 128,-1,65
 653 212 653 212 653 259 c 0,66,67
 653 285 653 285 647 321.5 c 128,-1,68
 641 358 641 358 630 390 c 1,69,-1
 338 390 l 1,70,-1
 355 377 l 1,71,72
 332 341 332 341 318 292.5 c 128,-1,73
 304 244 304 244 304 202 c 0,56,57
EndSplineSet
Validated: 1
EndChar

StartChar: P
Encoding: 80 80 47
Width: 1015
GlyphClass: 2
Flags: W
AnchorPoint: "SZLeft" 125 80 basechar 0
AnchorPoint: "SZRight" 835 -10 basechar 0
AnchorPoint: "Nasal" 265 240 basechar 0
AnchorPoint: "TBottom" 485 -300 basechar 0
AnchorPoint: "TTop" 505 720 basechar 0
LayerCount: 2
Back
Fore
SplineSet
-94 480 m 1,0,-1
 1000 480 l 1,1,-1
 1109 390 l 1,2,-1
 923 390 l 1,3,4
 950 360 950 360 970 325.5 c 128,-1,5
 990 291 990 291 990 262 c 0,6,7
 990 206 990 206 977 156.5 c 128,-1,8
 964 107 964 107 936 70 c 128,-1,9
 908 33 908 33 864 11.5 c 128,-1,10
 820 -10 820 -10 758 -10 c 0,11,12
 723 -10 723 -10 690.5 0.5 c 128,-1,13
 658 11 658 11 628.5 29 c 128,-1,14
 599 47 599 47 573.5 71 c 128,-1,15
 548 95 548 95 528 122 c 1,16,17
 500 56 500 56 447 23 c 128,-1,18
 394 -10 394 -10 323 -10 c 0,19,20
 263 -10 263 -10 209 19.5 c 128,-1,21
 155 49 155 49 114 96 c 128,-1,22
 73 143 73 143 49 200.5 c 128,-1,23
 25 258 25 258 25 315 c 0,24,25
 25 352 25 352 41 390 c 1,26,-1
 15 390 l 1,27,-1
 -94 480 l 1,0,-1
667 50 m 0,28,29
 735 50 735 50 781 69.5 c 128,-1,30
 827 89 827 89 854.5 125 c 128,-1,31
 882 161 882 161 894 212 c 128,-1,32
 906 263 906 263 906 326 c 0,33,34
 906 340 906 340 901.5 356.5 c 128,-1,35
 897 373 897 373 889 390 c 1,36,-1
 542 390 l 1,37,-1
 542 201 l 2,38,39
 542 175 542 175 550.5 148 c 128,-1,40
 559 121 559 121 575.5 99 c 128,-1,41
 592 77 592 77 615 63.5 c 128,-1,42
 638 50 638 50 667 50 c 0,28,29
106 251 m 0,43,44
 106 207 106 207 112 170 c 128,-1,45
 118 133 118 133 133 106.5 c 128,-1,46
 148 80 148 80 172 65 c 128,-1,47
 196 50 196 50 232 50 c 0,48,49
 312 50 312 50 358 76.5 c 128,-1,50
 404 103 404 103 427 148.5 c 128,-1,51
 450 194 450 194 455.5 254 c 128,-1,52
 461 314 461 314 461 381 c 2,53,-1
 461 390 l 1,54,-1
 160 390 l 1,55,-1
 166 386 l 1,56,57
 157 373 157 373 146.5 356 c 128,-1,58
 136 339 136 339 127 321 c 128,-1,59
 118 303 118 303 112 285 c 128,-1,60
 106 267 106 267 106 251 c 0,43,44
EndSplineSet
Validated: 1
EndChar

StartChar: Q
Encoding: 81 81 48
Width: 1015
GlyphClass: 2
Flags: W
AnchorPoint: "SZLeft" 155 60 basechar 0
AnchorPoint: "SZRight" 825 -10 basechar 0
AnchorPoint: "Nasal" 275 230 basechar 0
AnchorPoint: "TBottom" 485 -560 basechar 0
AnchorPoint: "TTop" 495 720 basechar 0
LayerCount: 2
Back
Fore
SplineSet
-94 480 m 1,0,-1
 1000 480 l 1,1,-1
 1109 390 l 1,2,-1
 923 390 l 1,3,4
 950 360 950 360 970 325.5 c 128,-1,5
 990 291 990 291 990 262 c 0,6,7
 990 206 990 206 977 156.5 c 128,-1,8
 964 107 964 107 936 70 c 128,-1,9
 908 33 908 33 864 11.5 c 128,-1,10
 820 -10 820 -10 758 -10 c 0,11,12
 726 -10 726 -10 696.5 -1 c 128,-1,13
 667 8 667 8 639.5 23 c 128,-1,14
 612 38 612 38 587.5 58.5 c 128,-1,15
 563 79 563 79 543 103 c 1,16,17
 543 -30 543 -30 544.5 -111 c 128,-1,18
 546 -192 546 -192 548 -240.5 c 128,-1,19
 550 -289 550 -289 552.5 -314 c 128,-1,20
 555 -339 555 -339 557 -359 c 1,21,22
 543 -354 543 -354 526 -343.5 c 128,-1,23
 509 -333 509 -333 492.5 -321 c 128,-1,24
 476 -309 476 -309 460.5 -296.5 c 128,-1,25
 445 -284 445 -284 433 -274 c 1,26,27
 436 -252 436 -252 439.5 -217.5 c 128,-1,28
 443 -183 443 -183 445.5 -142.5 c 128,-1,29
 448 -102 448 -102 450.5 -58 c 128,-1,30
 453 -14 453 -14 455 28 c 1,31,32
 399 -10 399 -10 323 -10 c 0,33,34
 263 -10 263 -10 209 19.5 c 128,-1,35
 155 49 155 49 114 96 c 128,-1,36
 73 143 73 143 49 200.5 c 128,-1,37
 25 258 25 258 25 315 c 0,38,39
 25 352 25 352 41 390 c 1,40,-1
 15 390 l 1,41,-1
 -94 480 l 1,0,-1
667 50 m 0,42,43
 735 50 735 50 781 69.5 c 128,-1,44
 827 89 827 89 854.5 125 c 128,-1,45
 882 161 882 161 894 212 c 128,-1,46
 906 263 906 263 906 326 c 0,47,48
 906 340 906 340 901.5 356.5 c 128,-1,49
 897 373 897 373 889 390 c 1,50,-1
 542 390 l 1,51,-1
 543 187 l 2,52,53
 543 162 543 162 552 137.5 c 128,-1,54
 561 113 561 113 577.5 93.5 c 128,-1,55
 594 74 594 74 617 62 c 128,-1,56
 640 50 640 50 667 50 c 0,42,43
106 251 m 0,57,58
 106 207 106 207 112 170 c 128,-1,59
 118 133 118 133 133 106.5 c 128,-1,60
 148 80 148 80 172 65 c 128,-1,61
 196 50 196 50 232 50 c 0,62,63
 302 50 302 50 346.5 70.5 c 128,-1,64
 391 91 391 91 416 126.5 c 128,-1,65
 441 162 441 162 450.5 210.5 c 128,-1,66
 460 259 460 259 460 315 c 2,67,-1
 460 390 l 1,68,-1
 160 390 l 1,69,-1
 166 386 l 1,70,71
 157 373 157 373 146.5 356 c 128,-1,72
 136 339 136 339 127 321 c 128,-1,73
 118 303 118 303 112 285 c 128,-1,74
 106 267 106 267 106 251 c 0,57,58
EndSplineSet
Validated: 1
EndChar

StartChar: R
Encoding: 82 82 49
Width: 1015
GlyphClass: 2
Flags: W
AnchorPoint: "SZLeft" 135 70 basechar 0
AnchorPoint: "SZRight" 845 -10 basechar 0
AnchorPoint: "Nasal" 265 230 basechar 0
AnchorPoint: "TBottom" 505 -550 basechar 0
AnchorPoint: "TTop" 505 720 basechar 0
LayerCount: 2
Back
Fore
SplineSet
-94 480 m 1,0,-1
 1000 480 l 1,1,-1
 1109 390 l 1,2,-1
 923 390 l 1,3,4
 950 360 950 360 970 325.5 c 128,-1,5
 990 291 990 291 990 262 c 0,6,7
 990 206 990 206 977 156.5 c 128,-1,8
 964 107 964 107 936 70 c 128,-1,9
 908 33 908 33 864 11.5 c 128,-1,10
 820 -10 820 -10 758 -10 c 0,11,12
 725 -10 725 -10 694.5 -0.5 c 128,-1,13
 664 9 664 9 636 25.5 c 128,-1,14
 608 42 608 42 583.5 63.5 c 128,-1,15
 559 85 559 85 538 110 c 1,16,17
 537 80 537 80 536.5 46.5 c 128,-1,18
 536 13 536 13 535.5 -16 c 128,-1,19
 535 -45 535 -45 535 -66.5 c 128,-1,20
 535 -88 535 -88 535 -95 c 0,21,22
 535 -116 535 -116 537.5 -144 c 128,-1,23
 540 -172 540 -172 548.5 -197.5 c 128,-1,24
 557 -223 557 -223 574 -240.5 c 128,-1,25
 591 -258 591 -258 620 -258 c 0,26,27
 655 -258 655 -258 681.5 -241 c 128,-1,28
 708 -224 708 -224 719 -190 c 1,29,-1
 791 -245 l 1,30,31
 788 -262 788 -262 776 -272.5 c 128,-1,32
 764 -283 764 -283 748.5 -289 c 128,-1,33
 733 -295 733 -295 715.5 -297 c 128,-1,34
 698 -299 698 -299 684 -299 c 0,35,36
 646 -299 646 -299 608.5 -281 c 128,-1,37
 571 -263 571 -263 541 -233.5 c 128,-1,38
 511 -204 511 -204 491.5 -168 c 128,-1,39
 472 -132 472 -132 471 -96 c 2,40,-1
 468 39 l 1,41,42
 439 14 439 14 402.5 2 c 128,-1,43
 366 -10 366 -10 323 -10 c 0,44,45
 263 -10 263 -10 209 19.5 c 128,-1,46
 155 49 155 49 114 96 c 128,-1,47
 73 143 73 143 49 200.5 c 128,-1,48
 25 258 25 258 25 315 c 0,49,50
 25 352 25 352 41 390 c 1,51,-1
 15 390 l 1,52,-1
 -94 480 l 1,0,-1
667 50 m 0,53,54
 735 50 735 50 781 69.5 c 128,-1,55
 827 89 827 89 854.5 125 c 128,-1,56
 882 161 882 161 894 212 c 128,-1,57
 906 263 906 263 906 326 c 0,58,59
 906 340 906 340 901.5 356.5 c 128,-1,60
 897 373 897 373 889 390 c 1,61,-1
 542 390 l 1,62,-1
 542 201 l 2,63,64
 542 175 542 175 550.5 148 c 128,-1,65
 559 121 559 121 575.5 99 c 128,-1,66
 592 77 592 77 615 63.5 c 128,-1,67
 638 50 638 50 667 50 c 0,53,54
106 251 m 0,68,69
 106 207 106 207 112 170 c 128,-1,70
 118 133 118 133 133 106.5 c 128,-1,71
 148 80 148 80 172 65 c 128,-1,72
 196 50 196 50 232 50 c 0,73,74
 312 50 312 50 358 76.5 c 128,-1,75
 404 103 404 103 427 148.5 c 128,-1,76
 450 194 450 194 455.5 254 c 128,-1,77
 461 314 461 314 461 381 c 2,78,-1
 461 390 l 1,79,-1
 160 390 l 1,80,-1
 166 386 l 1,81,82
 157 373 157 373 146.5 356 c 128,-1,83
 136 339 136 339 127 321 c 128,-1,84
 118 303 118 303 112 285 c 128,-1,85
 106 267 106 267 106 251 c 0,68,69
EndSplineSet
Validated: 1
EndChar

StartChar: S
Encoding: 83 83 50
Width: 1463
GlyphClass: 2
Flags: W
AnchorPoint: "SZLeft" 145 70 basechar 0
AnchorPoint: "SZRight" 1375 -170 basechar 0
AnchorPoint: "Nasal" 265 230 basechar 0
AnchorPoint: "TBottom" 485 -270 basechar 0
AnchorPoint: "TTop" 515 720 basechar 0
LayerCount: 2
Back
Fore
SplineSet
-94 480 m 1,0,-1
 1448 480 l 1,1,-1
 1557 390 l 1,2,-1
 922 390 l 1,3,4
 933 377 933 377 944 363.5 c 128,-1,5
 955 350 955 350 963 336 c 2,6,-1
 1232 -91 l 2,7,8
 1242 -106 1242 -106 1257 -118.5 c 128,-1,9
 1272 -131 1272 -131 1289 -131 c 0,10,11
 1308 -131 1308 -131 1325.5 -124.5 c 128,-1,12
 1343 -118 1343 -118 1354 -106 c 128,-1,13
 1365 -94 1365 -94 1368 -77.5 c 128,-1,14
 1371 -61 1371 -61 1363 -41 c 1,15,16
 1396 -63 1396 -63 1417 -90.5 c 128,-1,17
 1438 -118 1438 -118 1438 -160 c 0,18,19
 1438 -176 1438 -176 1429.5 -188.5 c 128,-1,20
 1421 -201 1421 -201 1408.5 -209.5 c 128,-1,21
 1396 -218 1396 -218 1380.5 -222.5 c 128,-1,22
 1365 -227 1365 -227 1352 -227 c 0,23,24
 1321 -227 1321 -227 1293.5 -210 c 128,-1,25
 1266 -193 1266 -193 1250 -167 c 2,26,-1
 990 254 l 1,27,28
 989 199 989 199 975.5 151 c 128,-1,29
 962 103 962 103 934 67 c 128,-1,30
 906 31 906 31 862.5 10.5 c 128,-1,31
 819 -10 819 -10 758 -10 c 0,32,33
 723 -10 723 -10 690.5 0.5 c 128,-1,34
 658 11 658 11 628.5 29 c 128,-1,35
 599 47 599 47 573.5 71 c 128,-1,36
 548 95 548 95 528 122 c 1,37,38
 500 56 500 56 447 23 c 128,-1,39
 394 -10 394 -10 323 -10 c 0,40,41
 263 -10 263 -10 209 19.5 c 128,-1,42
 155 49 155 49 114 96 c 128,-1,43
 73 143 73 143 49 200.5 c 128,-1,44
 25 258 25 258 25 315 c 0,45,46
 25 352 25 352 41 390 c 1,47,-1
 15 390 l 1,48,-1
 -94 480 l 1,0,-1
585 86 m 0,49,50
 592 80 592 80 602 73.5 c 128,-1,51
 612 67 612 67 623.5 62 c 128,-1,52
 635 57 635 57 646.5 53.5 c 128,-1,53
 658 50 658 50 667 50 c 0,54,55
 735 50 735 50 781 69.5 c 128,-1,56
 827 89 827 89 854.5 125 c 128,-1,57
 882 161 882 161 894 212 c 128,-1,58
 906 263 906 263 906 326 c 0,59,60
 906 340 906 340 901.5 356.5 c 128,-1,61
 897 373 897 373 889 390 c 1,62,-1
 542 390 l 1,63,-1
 542 201 l 2,64,65
 542 190 542 190 545.5 173.5 c 128,-1,66
 549 157 549 157 555 140 c 128,-1,67
 561 123 561 123 568.5 108.5 c 128,-1,68
 576 94 576 94 585 86 c 0,49,50
106 251 m 0,69,70
 106 207 106 207 112 170 c 128,-1,71
 118 133 118 133 133 106.5 c 128,-1,72
 148 80 148 80 172 65 c 128,-1,73
 196 50 196 50 232 50 c 0,74,75
 312 50 312 50 358 76.5 c 128,-1,76
 404 103 404 103 427 148.5 c 128,-1,77
 450 194 450 194 455.5 254 c 128,-1,78
 461 314 461 314 461 381 c 2,79,-1
 461 390 l 1,80,-1
 160 390 l 1,81,-1
 166 386 l 1,82,83
 157 373 157 373 146.5 356 c 128,-1,84
 136 339 136 339 127 321 c 128,-1,85
 118 303 118 303 112 285 c 128,-1,86
 106 267 106 267 106 251 c 0,69,70
EndSplineSet
Validated: 33
EndChar

StartChar: T
Encoding: 84 84 51
Width: 1279
GlyphClass: 2
Flags: W
AnchorPoint: "SZLeft" -25 -20 basechar 0
AnchorPoint: "SZRight" 1105 -10 basechar 0
AnchorPoint: "Nasal" 545 240 basechar 0
AnchorPoint: "TBottom" 755 -310 basechar 0
AnchorPoint: "TTop" 765 720 basechar 0
LayerCount: 2
Back
Fore
SplineSet
290 226 m 0,0,1
 290 250 290 250 289 273.5 c 128,-1,2
 288 297 288 297 288 322 c 0,3,4
 288 337 288 337 288.5 354.5 c 128,-1,5
 289 372 289 372 291 390 c 1,6,-1
 15 390 l 1,7,-1
 -94 480 l 1,8,-1
 1264 480 l 1,9,-1
 1373 390 l 1,10,-1
 1187 390 l 1,11,12
 1214 360 1214 360 1234 325.5 c 128,-1,13
 1254 291 1254 291 1254 262 c 0,14,15
 1254 206 1254 206 1241 156.5 c 128,-1,16
 1228 107 1228 107 1200 70 c 128,-1,17
 1172 33 1172 33 1128 11.5 c 128,-1,18
 1084 -10 1084 -10 1022 -10 c 0,19,20
 987 -10 987 -10 954.5 0.5 c 128,-1,21
 922 11 922 11 892.5 29 c 128,-1,22
 863 47 863 47 837.5 71 c 128,-1,23
 812 95 812 95 792 122 c 1,24,25
 764 56 764 56 711 23 c 128,-1,26
 658 -10 658 -10 587 -10 c 0,27,28
 527 -10 527 -10 474 20 c 128,-1,29
 421 50 421 50 380 93 c 1,30,31
 362 55 362 55 338.5 35.5 c 128,-1,32
 315 16 315 16 287.5 8 c 128,-1,33
 260 0 260 0 228 -0.5 c 128,-1,34
 196 -1 196 -1 162 -1 c 0,35,36
 132 -1 132 -1 107 -5.5 c 128,-1,37
 82 -10 82 -10 64 -22.5 c 128,-1,38
 46 -35 46 -35 35.5 -59 c 128,-1,39
 25 -83 25 -83 25 -122 c 0,40,41
 25 -151 25 -151 38 -182 c 1,42,43
 21 -171 21 -171 1.5 -157 c 128,-1,44
 -18 -143 -18 -143 -35 -128 c 128,-1,45
 -52 -113 -52 -113 -63 -96.5 c 128,-1,46
 -74 -80 -74 -80 -74 -63 c 0,47,48
 -74 -24 -74 -24 -61.5 0 c 128,-1,49
 -49 24 -49 24 -27.5 36.5 c 128,-1,50
 -6 49 -6 49 23 53.5 c 128,-1,51
 52 58 52 58 84 58 c 2,52,-1
 135 58 l 2,53,54
 165 58 165 58 193 68.5 c 128,-1,55
 221 79 221 79 242.5 100 c 128,-1,56
 264 121 264 121 277 152.5 c 128,-1,57
 290 184 290 184 290 226 c 0,0,1
931 50 m 0,58,59
 999 50 999 50 1045 69.5 c 128,-1,60
 1091 89 1091 89 1118.5 125 c 128,-1,61
 1146 161 1146 161 1158 212 c 128,-1,62
 1170 263 1170 263 1170 326 c 0,63,64
 1170 340 1170 340 1165.5 356.5 c 128,-1,65
 1161 373 1161 373 1153 390 c 1,66,-1
 806 390 l 1,67,-1
 806 201 l 2,68,69
 806 175 806 175 814.5 148 c 128,-1,70
 823 121 823 121 839.5 99 c 128,-1,71
 856 77 856 77 879 63.5 c 128,-1,72
 902 50 902 50 931 50 c 0,58,59
370 240 m 0,73,74
 370 206 370 206 376.5 174 c 128,-1,75
 383 142 383 142 398 116.5 c 128,-1,76
 413 91 413 91 437 75.5 c 128,-1,77
 461 60 461 60 496 60 c 0,78,79
 576 60 576 60 622 85 c 128,-1,80
 668 110 668 110 691 153.5 c 128,-1,81
 714 197 714 197 719.5 255.5 c 128,-1,82
 725 314 725 314 725 381 c 2,83,-1
 725 390 l 1,84,-1
 398 390 l 1,85,86
 391 376 391 376 385.5 356 c 128,-1,87
 380 336 380 336 376.5 315 c 128,-1,88
 373 294 373 294 371.5 274 c 128,-1,89
 370 254 370 254 370 240 c 0,73,74
EndSplineSet
Validated: 1
EndChar

StartChar: U
Encoding: 85 85 52
Width: 1279
GlyphClass: 2
Flags: W
AnchorPoint: "SZLeft" -35 -40 basechar 0
AnchorPoint: "SZRight" 1085 -10 basechar 0
AnchorPoint: "Nasal" 535 230 basechar 0
AnchorPoint: "TBottom" 745 -300 basechar 0
AnchorPoint: "TTop" 765 720 basechar 0
LayerCount: 2
Back
Fore
SplineSet
145 214 m 2,0,1
 126 214 126 214 109 207 c 128,-1,2
 92 200 92 200 78.5 188 c 128,-1,3
 65 176 65 176 57 159 c 128,-1,4
 49 142 49 142 49 123 c 0,5,6
 49 111 49 111 52 101 c 1,7,8
 39 112 39 112 26 125.5 c 128,-1,9
 13 139 13 139 2 154.5 c 128,-1,10
 -9 170 -9 170 -16 187 c 128,-1,11
 -23 204 -23 204 -23 222 c 256,12,13
 -23 240 -23 240 -13 250 c 128,-1,14
 -3 260 -3 260 12 265.5 c 128,-1,15
 27 271 27 271 43.5 272.5 c 128,-1,16
 60 274 60 274 73 274 c 2,17,-1
 289 274 l 1,18,19
 289 299 289 299 288.5 329.5 c 128,-1,20
 288 360 288 360 291 390 c 1,21,-1
 15 390 l 1,22,-1
 -94 480 l 1,23,-1
 1264 480 l 1,24,-1
 1373 390 l 1,25,-1
 1187 390 l 1,26,27
 1214 360 1214 360 1234 325.5 c 128,-1,28
 1254 291 1254 291 1254 262 c 0,29,30
 1254 206 1254 206 1241 156.5 c 128,-1,31
 1228 107 1228 107 1200 70 c 128,-1,32
 1172 33 1172 33 1128 11.5 c 128,-1,33
 1084 -10 1084 -10 1022 -10 c 0,34,35
 987 -10 987 -10 954.5 0.5 c 128,-1,36
 922 11 922 11 892.5 29 c 128,-1,37
 863 47 863 47 837.5 71 c 128,-1,38
 812 95 812 95 792 122 c 1,39,40
 764 56 764 56 711 23 c 128,-1,41
 658 -10 658 -10 587 -10 c 0,42,43
 527 -10 527 -10 474 20 c 128,-1,44
 421 50 421 50 380 93 c 1,45,46
 362 55 362 55 338.5 35.5 c 128,-1,47
 315 16 315 16 287.5 8.5 c 128,-1,48
 260 1 260 1 228 1 c 128,-1,49
 196 1 196 1 162 1 c 0,50,51
 132 1 132 1 107 -3.5 c 128,-1,52
 82 -8 82 -8 64 -20.5 c 128,-1,53
 46 -33 46 -33 35.5 -57 c 128,-1,54
 25 -81 25 -81 25 -120 c 0,55,56
 25 -149 25 -149 38 -180 c 1,57,58
 21 -169 21 -169 1.5 -155 c 128,-1,59
 -18 -141 -18 -141 -35 -126 c 128,-1,60
 -52 -111 -52 -111 -63 -94.5 c 128,-1,61
 -74 -78 -74 -78 -74 -61 c 0,62,63
 -74 -22 -74 -22 -61.5 2 c 128,-1,64
 -49 26 -49 26 -27.5 38.5 c 128,-1,65
 -6 51 -6 51 23 55.5 c 128,-1,66
 52 60 52 60 84 60 c 2,67,-1
 135 60 l 2,68,69
 165 60 165 60 193 68.5 c 128,-1,70
 221 77 221 77 242.5 95.5 c 128,-1,71
 264 114 264 114 277 143 c 128,-1,72
 290 172 290 172 290 214 c 1,73,-1
 145 214 l 2,0,1
931 50 m 0,74,75
 999 50 999 50 1045 69.5 c 128,-1,76
 1091 89 1091 89 1118.5 125 c 128,-1,77
 1146 161 1146 161 1158 212 c 128,-1,78
 1170 263 1170 263 1170 326 c 0,79,80
 1170 340 1170 340 1165.5 356.5 c 128,-1,81
 1161 373 1161 373 1153 390 c 1,82,-1
 806 390 l 1,83,-1
 806 201 l 2,84,85
 806 175 806 175 814.5 148 c 128,-1,86
 823 121 823 121 839.5 99 c 128,-1,87
 856 77 856 77 879 63.5 c 128,-1,88
 902 50 902 50 931 50 c 0,74,75
370 240 m 0,89,90
 370 206 370 206 376.5 174 c 128,-1,91
 383 142 383 142 398 116.5 c 128,-1,92
 413 91 413 91 437 75.5 c 128,-1,93
 461 60 461 60 496 60 c 0,94,95
 576 60 576 60 622 85 c 128,-1,96
 668 110 668 110 691 153.5 c 128,-1,97
 714 197 714 197 719.5 255.5 c 128,-1,98
 725 314 725 314 725 381 c 2,99,-1
 725 390 l 1,100,-1
 398 390 l 1,101,102
 391 376 391 376 385.5 356 c 128,-1,103
 380 336 380 336 376.5 315 c 128,-1,104
 373 294 373 294 371.5 274 c 128,-1,105
 370 254 370 254 370 240 c 0,89,90
EndSplineSet
Validated: 33
EndChar

StartChar: V
Encoding: 86 86 53
Width: 1015
GlyphClass: 2
Flags: W
AnchorPoint: "SZLeft" -285 -100 basechar 0
AnchorPoint: "SZRight" 835 -10 basechar 0
AnchorPoint: "Nasal" 275 220 basechar 0
AnchorPoint: "TBottom" 505 -260 basechar 0
AnchorPoint: "TTop" 505 720 basechar 0
LayerCount: 2
Back
Fore
SplineSet
-94 480 m 1,0,-1
 1000 480 l 1,1,-1
 1109 390 l 1,2,-1
 923 390 l 1,3,4
 950 360 950 360 970 325.5 c 128,-1,5
 990 291 990 291 990 262 c 0,6,7
 990 206 990 206 977 156.5 c 128,-1,8
 964 107 964 107 936 70 c 128,-1,9
 908 33 908 33 864 11.5 c 128,-1,10
 820 -10 820 -10 758 -10 c 0,11,12
 723 -10 723 -10 690.5 0.5 c 128,-1,13
 658 11 658 11 628.5 29 c 128,-1,14
 599 47 599 47 573.5 71 c 128,-1,15
 548 95 548 95 528 122 c 1,16,17
 500 56 500 56 447 23 c 128,-1,18
 394 -10 394 -10 323 -10 c 0,19,20
 261 -10 261 -10 207.5 21 c 128,-1,21
 154 52 154 52 113 96 c 1,22,23
 113 54 113 54 110.5 10 c 128,-1,24
 108 -34 108 -34 99.5 -75 c 128,-1,25
 91 -116 91 -116 75 -152 c 128,-1,26
 59 -188 59 -188 32 -215 c 128,-1,27
 5 -242 5 -242 -34.5 -257.5 c 128,-1,28
 -74 -273 -74 -273 -129 -273 c 0,29,30
 -155 -273 -155 -273 -187.5 -253.5 c 128,-1,31
 -220 -234 -220 -234 -248.5 -205 c 128,-1,32
 -277 -176 -277 -176 -296.5 -143.5 c 128,-1,33
 -316 -111 -316 -111 -316 -85 c 0,34,35
 -316 -71 -316 -71 -304.5 -61.5 c 128,-1,36
 -293 -52 -293 -52 -282 -47 c 1,37,-1
 -208 -103 l 1,38,39
 -219 -117 -219 -117 -229 -133 c 128,-1,40
 -239 -149 -239 -149 -239 -168 c 0,41,42
 -239 -185 -239 -185 -231 -195 c 128,-1,43
 -223 -205 -223 -205 -210.5 -210.5 c 128,-1,44
 -198 -216 -198 -216 -183.5 -218 c 128,-1,45
 -169 -220 -169 -220 -155 -220 c 0,46,47
 -113 -220 -113 -220 -83 -202.5 c 128,-1,48
 -53 -185 -53 -185 -32 -156.5 c 128,-1,49
 -11 -128 -11 -128 1.5 -91.5 c 128,-1,50
 14 -55 14 -55 21 -16 c 128,-1,51
 28 23 28 23 30 61.5 c 128,-1,52
 32 100 32 100 32 131 c 0,53,54
 32 177 32 177 28.5 222.5 c 128,-1,55
 25 268 25 268 25 314 c 0,56,57
 25 352 25 352 41 390 c 1,58,-1
 15 390 l 1,59,-1
 -94 480 l 1,0,-1
667 50 m 0,60,61
 735 50 735 50 781 69.5 c 128,-1,62
 827 89 827 89 854.5 125 c 128,-1,63
 882 161 882 161 894 212 c 128,-1,64
 906 263 906 263 906 326 c 0,65,66
 906 340 906 340 901.5 356.5 c 128,-1,67
 897 373 897 373 889 390 c 1,68,-1
 542 390 l 1,69,-1
 542 201 l 2,70,71
 542 175 542 175 550.5 148 c 128,-1,72
 559 121 559 121 575.5 99 c 128,-1,73
 592 77 592 77 615 63.5 c 128,-1,74
 638 50 638 50 667 50 c 0,60,61
106 251 m 0,75,76
 106 207 106 207 112 170 c 128,-1,77
 118 133 118 133 133 106.5 c 128,-1,78
 148 80 148 80 172 65 c 128,-1,79
 196 50 196 50 232 50 c 0,80,81
 312 50 312 50 358 76.5 c 128,-1,82
 404 103 404 103 427 148.5 c 128,-1,83
 450 194 450 194 455.5 254 c 128,-1,84
 461 314 461 314 461 381 c 2,85,-1
 461 390 l 1,86,-1
 160 390 l 1,87,-1
 166 386 l 1,88,89
 157 373 157 373 146.5 356 c 128,-1,90
 136 339 136 339 127 321 c 128,-1,91
 118 303 118 303 112 285 c 128,-1,92
 106 267 106 267 106 251 c 0,75,76
EndSplineSet
Validated: 1
EndChar

StartChar: W
Encoding: 87 87 54
Width: 1463
GlyphClass: 2
Flags: W
AnchorPoint: "SZLeft" -285 -90 basechar 0
AnchorPoint: "SZRight" 1395 -160 basechar 0
AnchorPoint: "Nasal" 275 220 basechar 0
AnchorPoint: "TBottom" 515 -240 basechar 0
AnchorPoint: "TTop" 495 720 basechar 0
LayerCount: 2
Back
Fore
SplineSet
-94 480 m 1,0,-1
 1448 480 l 1,1,-1
 1557 390 l 1,2,-1
 922 390 l 1,3,4
 933 377 933 377 944 363.5 c 128,-1,5
 955 350 955 350 963 336 c 2,6,-1
 1231 -91 l 2,7,8
 1241 -106 1241 -106 1256 -118.5 c 128,-1,9
 1271 -131 1271 -131 1289 -131 c 0,10,11
 1308 -131 1308 -131 1325 -124.5 c 128,-1,12
 1342 -118 1342 -118 1353 -106 c 128,-1,13
 1364 -94 1364 -94 1367.5 -77.5 c 128,-1,14
 1371 -61 1371 -61 1362 -41 c 1,15,16
 1395 -63 1395 -63 1416.5 -90.5 c 128,-1,17
 1438 -118 1438 -118 1438 -160 c 0,18,19
 1438 -176 1438 -176 1429.5 -188.5 c 128,-1,20
 1421 -201 1421 -201 1408.5 -209.5 c 128,-1,21
 1396 -218 1396 -218 1380.5 -222.5 c 128,-1,22
 1365 -227 1365 -227 1351 -227 c 0,23,24
 1320 -227 1320 -227 1293 -210 c 128,-1,25
 1266 -193 1266 -193 1250 -167 c 2,26,-1
 989 254 l 1,27,28
 988 199 988 199 974.5 151 c 128,-1,29
 961 103 961 103 933 67 c 128,-1,30
 905 31 905 31 861.5 10.5 c 128,-1,31
 818 -10 818 -10 757 -10 c 0,32,33
 722 -10 722 -10 689.5 0.5 c 128,-1,34
 657 11 657 11 628 29 c 128,-1,35
 599 47 599 47 573.5 71 c 128,-1,36
 548 95 548 95 528 122 c 1,37,38
 499 56 499 56 446.5 24 c 128,-1,39
 394 -8 394 -8 322 -8 c 0,40,41
 260 -8 260 -8 207 23 c 128,-1,42
 154 54 154 54 113 99 c 1,43,44
 113 35 113 35 106 -30.5 c 128,-1,45
 99 -96 99 -96 74.5 -149.5 c 128,-1,46
 50 -203 50 -203 2 -237 c 128,-1,47
 -46 -271 -46 -271 -129 -271 c 0,48,49
 -155 -271 -155 -271 -187.5 -251.5 c 128,-1,50
 -220 -232 -220 -232 -249 -203 c 128,-1,51
 -278 -174 -278 -174 -297.5 -141.5 c 128,-1,52
 -317 -109 -317 -109 -317 -83 c 0,53,54
 -317 -69 -317 -69 -305 -59.5 c 128,-1,55
 -293 -50 -293 -50 -282 -45 c 1,56,-1
 -209 -101 l 1,57,58
 -220 -115 -220 -115 -229.5 -131 c 128,-1,59
 -239 -147 -239 -147 -239 -166 c 0,60,61
 -239 -183 -239 -183 -231 -193 c 128,-1,62
 -223 -203 -223 -203 -210.5 -208.5 c 128,-1,63
 -198 -214 -198 -214 -183.5 -216 c 128,-1,64
 -169 -218 -169 -218 -156 -218 c 0,65,66
 -114 -218 -114 -218 -83.5 -200.5 c 128,-1,67
 -53 -183 -53 -183 -32.5 -154.5 c 128,-1,68
 -12 -126 -12 -126 1 -89 c 128,-1,69
 14 -52 14 -52 20.5 -13 c 128,-1,70
 27 26 27 26 29.5 64 c 128,-1,71
 32 102 32 102 32 133 c 0,72,73
 32 179 32 179 28.5 224.5 c 128,-1,74
 25 270 25 270 25 316 c 0,75,76
 25 354 25 354 40 390 c 1,77,-1
 15 390 l 1,78,-1
 -94 480 l 1,0,-1
666 50 m 0,79,80
 735 50 735 50 780.5 69.5 c 128,-1,81
 826 89 826 89 854 125 c 128,-1,82
 882 161 882 161 893.5 212 c 128,-1,83
 905 263 905 263 905 326 c 0,84,85
 905 340 905 340 900.5 356.5 c 128,-1,86
 896 373 896 373 889 390 c 1,87,-1
 541 390 l 1,88,-1
 541 201 l 2,89,90
 541 175 541 175 550 148 c 128,-1,91
 559 121 559 121 575 99 c 128,-1,92
 591 77 591 77 614 63.5 c 128,-1,93
 637 50 637 50 666 50 c 0,79,80
105 251 m 0,94,95
 105 207 105 207 111.5 170 c 128,-1,96
 118 133 118 133 132.5 106.5 c 128,-1,97
 147 80 147 80 171 65 c 128,-1,98
 195 50 195 50 231 50 c 0,99,100
 311 50 311 50 357 76.5 c 128,-1,101
 403 103 403 103 426 148.5 c 128,-1,102
 449 194 449 194 455 254 c 128,-1,103
 461 314 461 314 461 381 c 2,104,-1
 461 390 l 1,105,-1
 159 390 l 1,106,-1
 165 386 l 1,107,108
 156 373 156 373 145.5 356 c 128,-1,109
 135 339 135 339 126 321 c 128,-1,110
 117 303 117 303 111 285 c 128,-1,111
 105 267 105 267 105 251 c 0,94,95
EndSplineSet
Validated: 33
EndChar

StartChar: X
Encoding: 88 88 55
Width: 1463
GlyphClass: 2
Flags: W
AnchorPoint: "SZLeft" -285 -100 basechar 0
AnchorPoint: "SZRight" 1395 -170 basechar 0
AnchorPoint: "Nasal" 275 220 basechar 0
AnchorPoint: "TBottom" 515 -600 basechar 0
AnchorPoint: "TTop" 505 720 basechar 0
LayerCount: 2
Back
Fore
SplineSet
-94 480 m 1,0,-1
 1448 480 l 1,1,-1
 1557 390 l 1,2,-1
 922 390 l 1,3,4
 933 377 933 377 944 363.5 c 128,-1,5
 955 350 955 350 963 336 c 2,6,-1
 1231 -91 l 2,7,8
 1241 -106 1241 -106 1256 -118.5 c 128,-1,9
 1271 -131 1271 -131 1289 -131 c 0,10,11
 1308 -131 1308 -131 1325 -124.5 c 128,-1,12
 1342 -118 1342 -118 1353 -106 c 128,-1,13
 1364 -94 1364 -94 1367.5 -77.5 c 128,-1,14
 1371 -61 1371 -61 1362 -41 c 1,15,16
 1395 -63 1395 -63 1416.5 -90.5 c 128,-1,17
 1438 -118 1438 -118 1438 -160 c 0,18,19
 1438 -176 1438 -176 1429.5 -188.5 c 128,-1,20
 1421 -201 1421 -201 1408.5 -209.5 c 128,-1,21
 1396 -218 1396 -218 1380.5 -222.5 c 128,-1,22
 1365 -227 1365 -227 1351 -227 c 0,23,24
 1320 -227 1320 -227 1293 -210 c 128,-1,25
 1266 -193 1266 -193 1250 -167 c 2,26,-1
 989 254 l 1,27,28
 988 199 988 199 974.5 151 c 128,-1,29
 961 103 961 103 933 67 c 128,-1,30
 905 31 905 31 861.5 10.5 c 128,-1,31
 818 -10 818 -10 757 -10 c 0,32,33
 725 -10 725 -10 695.5 -1 c 128,-1,34
 666 8 666 8 638.5 23 c 128,-1,35
 611 38 611 38 586.5 58.5 c 128,-1,36
 562 79 562 79 542 103 c 1,37,38
 542 -30 542 -30 543.5 -111 c 128,-1,39
 545 -192 545 -192 547 -240.5 c 128,-1,40
 549 -289 549 -289 551.5 -314 c 128,-1,41
 554 -339 554 -339 556 -359 c 1,42,43
 542 -354 542 -354 525 -343.5 c 128,-1,44
 508 -333 508 -333 491.5 -321 c 128,-1,45
 475 -309 475 -309 459.5 -296.5 c 128,-1,46
 444 -284 444 -284 432 -274 c 1,47,48
 435 -252 435 -252 438.5 -217.5 c 128,-1,49
 442 -183 442 -183 444.5 -142.5 c 128,-1,50
 447 -102 447 -102 449.5 -58 c 128,-1,51
 452 -14 452 -14 454 28 c 1,52,53
 426 9 426 9 393 -0.5 c 128,-1,54
 360 -10 360 -10 322 -8 c 0,55,56
 260 -8 260 -8 207 23 c 128,-1,57
 154 54 154 54 113 99 c 1,58,59
 113 35 113 35 106 -30.5 c 128,-1,60
 99 -96 99 -96 74.5 -149.5 c 128,-1,61
 50 -203 50 -203 2 -237 c 128,-1,62
 -46 -271 -46 -271 -129 -271 c 0,63,64
 -155 -271 -155 -271 -187.5 -251.5 c 128,-1,65
 -220 -232 -220 -232 -249 -203 c 128,-1,66
 -278 -174 -278 -174 -297.5 -141.5 c 128,-1,67
 -317 -109 -317 -109 -317 -83 c 0,68,69
 -317 -69 -317 -69 -305 -59.5 c 128,-1,70
 -293 -50 -293 -50 -282 -45 c 1,71,-1
 -209 -101 l 1,72,73
 -220 -115 -220 -115 -229.5 -131 c 128,-1,74
 -239 -147 -239 -147 -239 -166 c 0,75,76
 -239 -183 -239 -183 -231 -193 c 128,-1,77
 -223 -203 -223 -203 -210.5 -208.5 c 128,-1,78
 -198 -214 -198 -214 -183.5 -216 c 128,-1,79
 -169 -218 -169 -218 -156 -218 c 0,80,81
 -114 -218 -114 -218 -83.5 -200.5 c 128,-1,82
 -53 -183 -53 -183 -32.5 -154.5 c 128,-1,83
 -12 -126 -12 -126 1 -89 c 128,-1,84
 14 -52 14 -52 20.5 -13 c 128,-1,85
 27 26 27 26 29.5 64 c 128,-1,86
 32 102 32 102 32 133 c 0,87,88
 32 179 32 179 28.5 224.5 c 128,-1,89
 25 270 25 270 25 316 c 0,90,91
 25 354 25 354 40 390 c 1,92,-1
 15 390 l 1,93,-1
 -94 480 l 1,0,-1
666 50 m 0,94,95
 735 50 735 50 780.5 69.5 c 128,-1,96
 826 89 826 89 854 125 c 128,-1,97
 882 161 882 161 893.5 212 c 128,-1,98
 905 263 905 263 905 326 c 0,99,100
 905 340 905 340 900.5 356.5 c 128,-1,101
 896 373 896 373 889 390 c 1,102,-1
 541 390 l 1,103,-1
 542 187 l 2,104,105
 542 162 542 162 551 137.5 c 128,-1,106
 560 113 560 113 576.5 93.5 c 128,-1,107
 593 74 593 74 616 62 c 128,-1,108
 639 50 639 50 666 50 c 0,94,95
231 50 m 0,109,110
 301 50 301 50 345.5 70.5 c 128,-1,111
 390 91 390 91 415 126.5 c 128,-1,112
 440 162 440 162 449.5 210.5 c 128,-1,113
 459 259 459 259 459 315 c 2,114,-1
 459 390 l 1,115,-1
 159 390 l 1,116,-1
 165 386 l 1,117,118
 156 373 156 373 145.5 356 c 128,-1,119
 135 339 135 339 126 321 c 128,-1,120
 117 303 117 303 111 285 c 128,-1,121
 105 267 105 267 105 251 c 0,122,123
 105 207 105 207 111.5 170 c 128,-1,124
 118 133 118 133 132.5 106.5 c 128,-1,125
 147 80 147 80 171 65 c 128,-1,126
 195 50 195 50 231 50 c 0,109,110
EndSplineSet
Validated: 33
EndChar

StartChar: Y
Encoding: 89 89 56
Width: 1271
GlyphClass: 2
Flags: W
AnchorPoint: "SZLeft" 75 70 basechar 0
AnchorPoint: "SZRight" 1105 -20 basechar 0
AnchorPoint: "Nasal" 285 230 basechar 0
AnchorPoint: "TBottom" 485 -640 basechar 0
AnchorPoint: "TTop" 495 720 basechar 0
LayerCount: 2
Back
Fore
SplineSet
744 -8 m 0,0,1
 680 -8 680 -8 625.5 25 c 128,-1,2
 571 58 571 58 529 104 c 1,3,4
 529 -29 529 -29 530.5 -110.5 c 128,-1,5
 532 -192 532 -192 534 -240.5 c 128,-1,6
 536 -289 536 -289 538.5 -314 c 128,-1,7
 541 -339 541 -339 543 -359 c 1,8,9
 529 -354 529 -354 512 -343.5 c 128,-1,10
 495 -333 495 -333 478.5 -321 c 128,-1,11
 462 -309 462 -309 446.5 -296.5 c 128,-1,12
 431 -284 431 -284 419 -274 c 1,13,14
 422 -252 422 -252 425.5 -217.5 c 128,-1,15
 429 -183 429 -183 431.5 -142 c 128,-1,16
 434 -101 434 -101 436.5 -56.5 c 128,-1,17
 439 -12 439 -12 441 30 c 1,18,19
 382 -7 382 -7 309 -7 c 0,20,21
 267 -7 267 -7 228 8.5 c 128,-1,22
 189 24 189 24 155 48 c 1,23,-1
 155 -27 l 2,24,25
 155 -98 155 -98 157.5 -168.5 c 128,-1,26
 160 -239 160 -239 171 -310 c 1,27,28
 142 -300 142 -300 110.5 -277 c 128,-1,29
 79 -254 79 -254 55 -234 c 1,30,-1
 55 390 l 1,31,-1
 16 390 l 1,32,-1
 -93 480 l 1,33,-1
 1256 480 l 1,34,-1
 1365 390 l 1,35,-1
 908 390 l 1,36,37
 913 385 913 385 917 379.5 c 128,-1,38
 921 374 921 374 925 369 c 0,39,40
 937 358 937 358 963 330 c 128,-1,41
 989 302 989 302 1018.5 272 c 128,-1,42
 1048 242 1048 242 1075.5 219 c 128,-1,43
 1103 196 1103 196 1118 196 c 0,44,45
 1134 196 1134 196 1143.5 203 c 128,-1,46
 1153 210 1153 210 1158 220.5 c 128,-1,47
 1163 231 1163 231 1164.5 244 c 128,-1,48
 1166 257 1166 257 1166 269 c 0,49,50
 1166 280 1166 280 1162 288 c 1,51,52
 1195 266 1195 266 1221.5 233.5 c 128,-1,53
 1248 201 1248 201 1248 159 c 0,54,55
 1248 136 1248 136 1234.5 120.5 c 128,-1,56
 1221 105 1221 105 1197 105 c 0,57,58
 1168 105 1168 105 1141.5 124 c 128,-1,59
 1115 143 1115 143 1096 163 c 2,60,-1
 966 302 l 1,61,62
 971 282 971 282 973.5 261.5 c 128,-1,63
 976 241 976 241 976 222 c 0,64,65
 976 178 976 178 960.5 136.5 c 128,-1,66
 945 95 945 95 915.5 63 c 128,-1,67
 886 31 886 31 842.5 11.5 c 128,-1,68
 799 -8 799 -8 744 -8 c 0,0,1
653 53 m 0,69,70
 714 53 714 53 758.5 69.5 c 128,-1,71
 803 86 803 86 832.5 116 c 128,-1,72
 862 146 862 146 876.5 187 c 128,-1,73
 891 228 891 228 891 275 c 0,74,75
 891 302 891 302 886 331 c 128,-1,76
 881 360 881 360 872 390 c 1,77,-1
 529 390 l 1,78,-1
 529 231 l 2,79,80
 529 202 529 202 534.5 170.5 c 128,-1,81
 540 139 540 139 554 113 c 128,-1,82
 568 87 568 87 592 70 c 128,-1,83
 616 53 616 53 653 53 c 0,69,70
218 53 m 0,84,85
 284 53 284 53 328 71.5 c 128,-1,86
 372 90 372 90 398 122.5 c 128,-1,87
 424 155 424 155 435 198 c 128,-1,88
 446 241 446 241 446 290 c 2,89,-1
 446 390 l 1,90,-1
 156 390 l 1,91,-1
 156 76 l 1,92,93
 168 70 168 70 186 61.5 c 128,-1,94
 204 53 204 53 218 53 c 0,84,85
EndSplineSet
Validated: 1
EndChar

StartChar: Z
Encoding: 90 90 57
Width: 568
GlyphClass: 2
Flags: W
AnchorPoint: "SZLeft" 65 70 basechar 0
AnchorPoint: "SZRight" 385 -10 basechar 0
AnchorPoint: "Nasal" 285 230 basechar 0
AnchorPoint: "TBottom" 315 -520 basechar 0
AnchorPoint: "TTop" 285 720 basechar 0
LayerCount: 2
Back
Fore
SplineSet
-94 480 m 1,0,-1
 553 480 l 1,1,-1
 662 390 l 1,2,-1
 478 390 l 1,3,4
 512 353 512 353 527.5 310 c 128,-1,5
 543 267 543 267 543 222 c 0,6,7
 543 178 543 178 527.5 136.5 c 128,-1,8
 512 95 512 95 482.5 63 c 128,-1,9
 453 31 453 31 409.5 11.5 c 128,-1,10
 366 -8 366 -8 311 -8 c 0,11,12
 269 -8 269 -8 230 8 c 128,-1,13
 191 24 191 24 157 48 c 1,14,-1
 157 -67 l 2,15,16
 157 -130 157 -130 160 -194.5 c 128,-1,17
 163 -259 163 -259 172 -320 c 1,18,19
 143 -309 143 -309 111.5 -286.5 c 128,-1,20
 80 -264 80 -264 55 -244 c 1,21,-1
 55 390 l 1,22,-1
 15 390 l 1,23,-1
 -94 480 l 1,0,-1
220 52 m 0,24,25
 281 52 281 52 325.5 69 c 128,-1,26
 370 86 370 86 399.5 116 c 128,-1,27
 429 146 429 146 443.5 187 c 128,-1,28
 458 228 458 228 458 275 c 0,29,30
 458 330 458 330 440 390 c 1,31,-1
 157 390 l 1,32,-1
 157 76 l 2,33,34
 157 72 157 72 164 68 c 128,-1,35
 171 64 171 64 181 60.5 c 128,-1,36
 191 57 191 57 202 54.5 c 128,-1,37
 213 52 213 52 220 52 c 0,24,25
EndSplineSet
Validated: 1
EndChar

StartChar: bracketleft
Encoding: 91 91 58
Width: 568
GlyphClass: 2
Flags: W
AnchorPoint: "SZLeft" 95 70 basechar 0
AnchorPoint: "SZRight" 395 -10 basechar 0
AnchorPoint: "Nasal" 285 230 basechar 0
AnchorPoint: "TBottom" 295 -560 basechar 0
AnchorPoint: "TTop" 285 720 basechar 0
LayerCount: 2
Back
Fore
SplineSet
-94 480 m 1,0,-1
 553 480 l 1,1,-1
 662 390 l 1,2,-1
 478 390 l 1,3,4
 512 353 512 353 527.5 310 c 128,-1,5
 543 267 543 267 543 222 c 0,6,7
 543 178 543 178 527.5 136.5 c 128,-1,8
 512 95 512 95 482.5 63 c 128,-1,9
 453 31 453 31 409.5 11.5 c 128,-1,10
 366 -8 366 -8 311 -8 c 0,11,12
 269 -8 269 -8 230 8 c 128,-1,13
 191 24 191 24 157 48 c 1,14,-1
 157 43 l 1,15,-1
 391 -167 l 2,16,17
 401 -176 401 -176 412 -182 c 128,-1,18
 423 -188 423 -188 437 -188 c 0,19,20
 453 -188 453 -188 462.5 -181 c 128,-1,21
 472 -174 472 -174 477 -163.5 c 128,-1,22
 482 -153 482 -153 484 -140 c 128,-1,23
 486 -127 486 -127 486 -115 c 0,24,25
 486 -106 486 -106 481 -96 c 1,26,27
 514 -118 514 -118 540.5 -150.5 c 128,-1,28
 567 -183 567 -183 567 -225 c 0,29,30
 567 -247 567 -247 555.5 -261.5 c 128,-1,31
 544 -276 544 -276 521 -276 c 0,32,33
 492 -276 492 -276 463.5 -257.5 c 128,-1,34
 435 -239 435 -239 414 -220 c 2,35,-1
 157 13 l 1,36,-1
 157 -67 l 2,37,38
 157 -130 157 -130 160 -194.5 c 128,-1,39
 163 -259 163 -259 172 -320 c 1,40,41
 143 -309 143 -309 111.5 -286.5 c 128,-1,42
 80 -264 80 -264 55 -244 c 1,43,-1
 56 390 l 1,44,-1
 15 390 l 1,45,-1
 -94 480 l 1,0,-1
220 52 m 0,46,47
 281 52 281 52 325.5 69 c 128,-1,48
 370 86 370 86 399.5 116 c 128,-1,49
 429 146 429 146 443.5 187 c 128,-1,50
 458 228 458 228 458 275 c 0,51,52
 458 330 458 330 440 390 c 1,53,-1
 157 390 l 1,54,-1
 157 76 l 2,55,56
 157 72 157 72 164 68 c 128,-1,57
 171 64 171 64 181 60.5 c 128,-1,58
 191 57 191 57 202 54.5 c 128,-1,59
 213 52 213 52 220 52 c 0,46,47
EndSplineSet
Validated: 1
EndChar

StartChar: backslash
Encoding: 92 92 59
Width: 840
GlyphClass: 2
Flags: W
AnchorPoint: "SZLeft" 65 70 basechar 0
AnchorPoint: "SZRight" 695 -20 basechar 0
AnchorPoint: "Nasal" 285 230 basechar 0
AnchorPoint: "TBottom" 385 -510 basechar 0
AnchorPoint: "TTop" 285 720 basechar 0
LayerCount: 2
Back
Fore
SplineSet
-94 480 m 1,0,-1
 825 480 l 1,1,-1
 934 390 l 1,2,-1
 475 390 l 1,3,4
 480 385 480 385 484 379.5 c 128,-1,5
 488 374 488 374 492 369 c 0,6,7
 504 358 504 358 530 330 c 128,-1,8
 556 302 556 302 585.5 272 c 128,-1,9
 615 242 615 242 642.5 219 c 128,-1,10
 670 196 670 196 685 196 c 0,11,12
 701 196 701 196 710.5 203 c 128,-1,13
 720 210 720 210 725 220.5 c 128,-1,14
 730 231 730 231 731.5 244 c 128,-1,15
 733 257 733 257 733 269 c 0,16,17
 733 280 733 280 729 288 c 1,18,19
 762 266 762 266 788.5 233.5 c 128,-1,20
 815 201 815 201 815 159 c 0,21,22
 815 136 815 136 801.5 120.5 c 128,-1,23
 788 105 788 105 764 105 c 0,24,25
 735 105 735 105 708.5 124 c 128,-1,26
 682 143 682 143 663 163 c 2,27,-1
 533 302 l 1,28,29
 538 282 538 282 540.5 261.5 c 128,-1,30
 543 241 543 241 543 222 c 0,31,32
 543 178 543 178 527.5 136.5 c 128,-1,33
 512 95 512 95 482.5 63 c 128,-1,34
 453 31 453 31 409.5 11.5 c 128,-1,35
 366 -8 366 -8 311 -8 c 0,36,37
 269 -8 269 -8 230 8 c 128,-1,38
 191 24 191 24 157 48 c 1,39,-1
 157 -67 l 2,40,41
 157 -130 157 -130 160 -194.5 c 128,-1,42
 163 -259 163 -259 172 -320 c 1,43,44
 143 -309 143 -309 111.5 -286.5 c 128,-1,45
 80 -264 80 -264 55 -244 c 1,46,-1
 55 390 l 1,47,-1
 15 390 l 1,48,-1
 -94 480 l 1,0,-1
220 52 m 0,49,50
 281 52 281 52 325.5 69 c 128,-1,51
 370 86 370 86 399.5 116 c 128,-1,52
 429 146 429 146 443.5 187 c 128,-1,53
 458 228 458 228 458 275 c 0,54,55
 458 302 458 302 453 331 c 128,-1,56
 448 360 448 360 439 390 c 1,57,-1
 157 390 l 1,58,-1
 157 76 l 2,59,60
 157 72 157 72 164 68 c 128,-1,61
 171 64 171 64 181 60.5 c 128,-1,62
 191 57 191 57 202 54.5 c 128,-1,63
 213 52 213 52 220 52 c 0,49,50
EndSplineSet
Validated: 1
EndChar

StartChar: bracketright
Encoding: 93 93 60
Width: 568
GlyphClass: 2
Flags: W
AnchorPoint: "SZLeft" 75 70 basechar 0
AnchorPoint: "SZRight" 405 -10 basechar 0
AnchorPoint: "Nasal" 285 230 basechar 0
AnchorPoint: "TBottom" 295 -530 basechar 0
AnchorPoint: "TTop" 285 720 basechar 0
LayerCount: 2
Back
Fore
SplineSet
-94 480 m 1,0,-1
 553 480 l 1,1,-1
 662 390 l 1,2,-1
 478 390 l 1,3,4
 512 353 512 353 527.5 310 c 128,-1,5
 543 267 543 267 543 222 c 0,6,7
 543 186 543 186 533 152 c 128,-1,8
 523 118 523 118 503.5 89 c 128,-1,9
 484 60 484 60 456 38 c 128,-1,10
 428 16 428 16 391 4 c 1,11,-1
 391 -81 l 2,12,13
 391 -98 391 -98 392 -117 c 128,-1,14
 393 -136 393 -136 393 -155 c 0,15,16
 393 -176 393 -176 390 -195.5 c 128,-1,17
 387 -215 387 -215 378 -229.5 c 128,-1,18
 369 -244 369 -244 352.5 -253 c 128,-1,19
 336 -262 336 -262 309 -262 c 0,20,21
 292 -262 292 -262 277.5 -253.5 c 128,-1,22
 263 -245 263 -245 250 -232 c 128,-1,23
 237 -219 237 -219 226 -204.5 c 128,-1,24
 215 -190 215 -190 207 -178 c 1,25,26
 229 -189 229 -189 253 -189 c 0,27,28
 280 -189 280 -189 294.5 -179 c 128,-1,29
 309 -169 309 -169 316.5 -152.5 c 128,-1,30
 324 -136 324 -136 325.5 -115.5 c 128,-1,31
 327 -95 327 -95 327 -74 c 0,32,33
 327 -57 327 -57 326.5 -40.5 c 128,-1,34
 326 -24 326 -24 325 -8 c 1,35,-1
 311 -8 l 2,36,37
 269 -8 269 -8 230 8 c 128,-1,38
 191 24 191 24 157 48 c 1,39,-1
 157 -67 l 2,40,41
 157 -130 157 -130 160 -194.5 c 128,-1,42
 163 -259 163 -259 172 -320 c 1,43,44
 143 -309 143 -309 111.5 -286.5 c 128,-1,45
 80 -264 80 -264 55 -244 c 1,46,-1
 55 390 l 1,47,-1
 15 390 l 1,48,-1
 -94 480 l 1,0,-1
220 52 m 0,49,50
 281 52 281 52 325.5 69 c 128,-1,51
 370 86 370 86 399.5 116 c 128,-1,52
 429 146 429 146 443.5 187 c 128,-1,53
 458 228 458 228 458 275 c 0,54,55
 458 330 458 330 440 390 c 1,56,-1
 157 390 l 1,57,-1
 157 76 l 2,58,59
 157 72 157 72 164 68 c 128,-1,60
 171 64 171 64 181 60.5 c 128,-1,61
 191 57 191 57 202 54.5 c 128,-1,62
 213 52 213 52 220 52 c 0,49,50
EndSplineSet
Validated: 1
EndChar

StartChar: asciicircum
Encoding: 94 94 61
Width: 568
GlyphClass: 2
Flags: W
AnchorPoint: "SZLeft" 85 70 basechar 0
AnchorPoint: "SZRight" 395 -10 basechar 0
AnchorPoint: "Nasal" 335 160 basechar 0
AnchorPoint: "TBottom" 295 -530 basechar 0
AnchorPoint: "TTop" 285 720 basechar 0
LayerCount: 2
Back
Fore
SplineSet
-94 480 m 1,0,-1
 553 480 l 1,1,-1
 662 390 l 1,2,-1
 478 390 l 1,3,4
 512 353 512 353 527.5 310 c 128,-1,5
 543 267 543 267 543 222 c 0,6,7
 543 178 543 178 527.5 136.5 c 128,-1,8
 512 95 512 95 482.5 63 c 128,-1,9
 453 31 453 31 409.5 11.5 c 128,-1,10
 366 -8 366 -8 311 -8 c 0,11,12
 269 -8 269 -8 230 8 c 128,-1,13
 191 24 191 24 157 48 c 1,14,-1
 157 -67 l 2,15,16
 157 -130 157 -130 160 -194.5 c 128,-1,17
 163 -259 163 -259 172 -320 c 1,18,19
 143 -309 143 -309 111.5 -286.5 c 128,-1,20
 80 -264 80 -264 55 -244 c 1,21,-1
 55 390 l 1,22,-1
 15 390 l 1,23,-1
 -94 480 l 1,0,-1
157 76 m 2,24,25
 157 72 157 72 164 68 c 128,-1,26
 171 64 171 64 181 60.5 c 128,-1,27
 191 57 191 57 202 54.5 c 128,-1,28
 213 52 213 52 220 52 c 0,29,30
 284 52 284 52 329.5 68.5 c 128,-1,31
 375 85 375 85 403.5 115.5 c 128,-1,32
 432 146 432 146 445 190 c 128,-1,33
 458 234 458 234 458 289 c 0,34,35
 458 305 458 305 457 322 c 128,-1,36
 456 339 456 339 454 356 c 2,37,-1
 454 357 l 1,38,39
 431 337 431 337 402.5 311.5 c 128,-1,40
 374 286 374 286 345 259 c 128,-1,41
 316 232 316 232 287 205.5 c 128,-1,42
 258 179 258 179 233 155.5 c 128,-1,43
 208 132 208 132 188 113.5 c 128,-1,44
 168 95 168 95 157 85 c 1,45,-1
 157 76 l 2,24,25
372 390 m 1,46,-1
 157 390 l 1,47,-1
 157 191 l 1,48,-1
 372 390 l 1,46,-1
EndSplineSet
Validated: 1
EndChar

StartChar: underscore
Encoding: 95 95 62
Width: 919
GlyphClass: 2
Flags: W
AnchorPoint: "SZLeft" 95 70 basechar 0
AnchorPoint: "SZRight" 765 -10 basechar 0
AnchorPoint: "Nasal" 295 230 basechar 0
AnchorPoint: "TBottom" 505 -300 basechar 0
AnchorPoint: "TTop" 455 720 basechar 0
LayerCount: 2
Back
Fore
SplineSet
-94 480 m 1,0,-1
 904 480 l 1,1,-1
 1013 390 l 1,2,-1
 831 390 l 1,3,4
 863 355 863 355 878.5 311.5 c 128,-1,5
 894 268 894 268 894 222 c 0,6,7
 894 178 894 178 878.5 136.5 c 128,-1,8
 863 95 863 95 834 63 c 128,-1,9
 805 31 805 31 762 11.5 c 128,-1,10
 719 -8 719 -8 664 -8 c 0,11,12
 615 -8 615 -8 570.5 12.5 c 128,-1,13
 526 33 526 33 489 65 c 1,14,15
 455 25 455 25 408.5 8.5 c 128,-1,16
 362 -8 362 -8 311 -8 c 0,17,18
 269 -8 269 -8 230 8 c 128,-1,19
 191 24 191 24 157 48 c 1,20,-1
 157 -67 l 2,21,22
 157 -130 157 -130 160 -194.5 c 128,-1,23
 163 -259 163 -259 172 -320 c 1,24,25
 143 -309 143 -309 111.5 -286.5 c 128,-1,26
 80 -264 80 -264 55 -244 c 1,27,-1
 55 390 l 1,28,-1
 15 390 l 1,29,-1
 -94 480 l 1,0,-1
220 52 m 0,30,31
 281 52 281 52 325.5 69.5 c 128,-1,32
 370 87 370 87 399.5 117 c 128,-1,33
 429 147 429 147 443.5 187.5 c 128,-1,34
 458 228 458 228 458 275 c 0,35,36
 458 332 458 332 439 390 c 1,37,-1
 157 390 l 1,38,-1
 157 76 l 2,39,40
 157 72 157 72 164 68 c 128,-1,41
 171 64 171 64 181 60.5 c 128,-1,42
 191 57 191 57 202 54.5 c 128,-1,43
 213 52 213 52 220 52 c 0,30,31
809 276 m 0,44,45
 809 303 809 303 804.5 332 c 128,-1,46
 800 361 800 361 790 390 c 1,47,-1
 479 390 l 1,48,49
 511 355 511 355 527 311 c 128,-1,50
 543 267 543 267 543 221 c 0,51,52
 543 185 543 185 532.5 149 c 128,-1,53
 522 113 522 113 501 81 c 1,54,55
 505 75 505 75 514 70 c 128,-1,56
 523 65 523 65 534 61 c 128,-1,57
 545 57 545 57 555.5 54.5 c 128,-1,58
 566 52 566 52 573 52 c 0,59,60
 634 52 634 52 678.5 69.5 c 128,-1,61
 723 87 723 87 752 117 c 128,-1,62
 781 147 781 147 795 188 c 128,-1,63
 809 229 809 229 809 276 c 0,44,45
EndSplineSet
Validated: 1
EndChar

StartChar: grave
Encoding: 96 96 63
Width: 919
GlyphClass: 2
Flags: W
AnchorPoint: "SZLeft" 75 70 basechar 0
AnchorPoint: "SZRight" 735 -10 basechar 0
AnchorPoint: "Nasal" 295 230 basechar 0
AnchorPoint: "TBottom" 485 -490 basechar 0
AnchorPoint: "TTop" 465 720 basechar 0
LayerCount: 2
Back
Fore
SplineSet
-94 480 m 1,0,-1
 904 480 l 1,1,-1
 1013 390 l 1,2,-1
 831 390 l 1,3,4
 863 355 863 355 878.5 311.5 c 128,-1,5
 894 268 894 268 894 222 c 0,6,7
 894 178 894 178 878.5 136.5 c 128,-1,8
 863 95 863 95 834 63 c 128,-1,9
 805 31 805 31 762 11.5 c 128,-1,10
 719 -8 719 -8 664 -8 c 0,11,12
 615 -8 615 -8 570.5 12.5 c 128,-1,13
 526 33 526 33 489 65 c 1,14,15
 455 25 455 25 408.5 8.5 c 128,-1,16
 362 -8 362 -8 311 -8 c 0,17,18
 269 -8 269 -8 230 8 c 128,-1,19
 191 24 191 24 157 48 c 1,20,-1
 157 43 l 1,21,-1
 391 -167 l 2,22,23
 401 -176 401 -176 412 -182 c 128,-1,24
 423 -188 423 -188 437 -188 c 0,25,26
 453 -188 453 -188 462.5 -181 c 128,-1,27
 472 -174 472 -174 477 -163.5 c 128,-1,28
 482 -153 482 -153 484 -140 c 128,-1,29
 486 -127 486 -127 486 -115 c 0,30,31
 486 -106 486 -106 481 -96 c 1,32,33
 514 -118 514 -118 540.5 -150.5 c 128,-1,34
 567 -183 567 -183 567 -225 c 0,35,36
 567 -247 567 -247 555.5 -261.5 c 128,-1,37
 544 -276 544 -276 521 -276 c 0,38,39
 492 -276 492 -276 463.5 -257.5 c 128,-1,40
 435 -239 435 -239 414 -220 c 2,41,-1
 157 13 l 1,42,-1
 157 -67 l 2,43,44
 157 -130 157 -130 160 -194.5 c 128,-1,45
 163 -259 163 -259 172 -320 c 1,46,47
 143 -309 143 -309 111.5 -286.5 c 128,-1,48
 80 -264 80 -264 55 -244 c 1,49,-1
 55 390 l 1,50,-1
 15 390 l 1,51,-1
 -94 480 l 1,0,-1
220 52 m 0,52,53
 281 52 281 52 325.5 69.5 c 128,-1,54
 370 87 370 87 399.5 117 c 128,-1,55
 429 147 429 147 443.5 187.5 c 128,-1,56
 458 228 458 228 458 275 c 0,57,58
 458 332 458 332 439 390 c 1,59,-1
 157 390 l 1,60,-1
 157 76 l 2,61,62
 157 72 157 72 164 68 c 128,-1,63
 171 64 171 64 181 60.5 c 128,-1,64
 191 57 191 57 202 54.5 c 128,-1,65
 213 52 213 52 220 52 c 0,52,53
809 276 m 0,66,67
 809 303 809 303 804.5 332 c 128,-1,68
 800 361 800 361 790 390 c 1,69,-1
 479 390 l 1,70,71
 511 355 511 355 527 311 c 128,-1,72
 543 267 543 267 543 221 c 0,73,74
 543 185 543 185 532.5 149 c 128,-1,75
 522 113 522 113 501 81 c 1,76,77
 505 75 505 75 514 70 c 128,-1,78
 523 65 523 65 534 61 c 128,-1,79
 545 57 545 57 555.5 54.5 c 128,-1,80
 566 52 566 52 573 52 c 0,81,82
 634 52 634 52 678.5 69.5 c 128,-1,83
 723 87 723 87 752 117 c 128,-1,84
 781 147 781 147 795 188 c 128,-1,85
 809 229 809 229 809 276 c 0,66,67
EndSplineSet
Validated: 1
EndChar

StartChar: a
Encoding: 97 97 64
Width: 1191
GlyphClass: 2
Flags: W
AnchorPoint: "SZLeft" 75 70 basechar 0
AnchorPoint: "SZRight" 1065 -20 basechar 0
AnchorPoint: "Nasal" 285 230 basechar 0
AnchorPoint: "TBottom" 515 -250 basechar 0
AnchorPoint: "TTop" 465 720 basechar 0
LayerCount: 2
Back
Fore
SplineSet
-94 480 m 1,0,-1
 1176 480 l 1,1,-1
 1285 390 l 1,2,-1
 826 390 l 1,3,4
 831 385 831 385 835 379.5 c 128,-1,5
 839 374 839 374 843 369 c 0,6,7
 855 358 855 358 881 330 c 128,-1,8
 907 302 907 302 936.5 272 c 128,-1,9
 966 242 966 242 993.5 219 c 128,-1,10
 1021 196 1021 196 1036 196 c 0,11,12
 1052 196 1052 196 1061.5 203 c 128,-1,13
 1071 210 1071 210 1076 220.5 c 128,-1,14
 1081 231 1081 231 1082.5 244 c 128,-1,15
 1084 257 1084 257 1084 269 c 0,16,17
 1084 280 1084 280 1080 288 c 1,18,19
 1113 266 1113 266 1139.5 233.5 c 128,-1,20
 1166 201 1166 201 1166 159 c 0,21,22
 1166 136 1166 136 1152.5 120.5 c 128,-1,23
 1139 105 1139 105 1115 105 c 0,24,25
 1086 105 1086 105 1059.5 124 c 128,-1,26
 1033 143 1033 143 1014 163 c 2,27,-1
 884 302 l 1,28,29
 889 282 889 282 891.5 261.5 c 128,-1,30
 894 241 894 241 894 222 c 0,31,32
 894 178 894 178 878.5 136.5 c 128,-1,33
 863 95 863 95 834 63 c 128,-1,34
 805 31 805 31 762 11.5 c 128,-1,35
 719 -8 719 -8 664 -8 c 0,36,37
 615 -8 615 -8 570.5 12.5 c 128,-1,38
 526 33 526 33 489 65 c 1,39,40
 455 25 455 25 408.5 8.5 c 128,-1,41
 362 -8 362 -8 311 -8 c 0,42,43
 269 -8 269 -8 230 8 c 128,-1,44
 191 24 191 24 157 48 c 1,45,-1
 157 -67 l 2,46,47
 157 -130 157 -130 160 -194.5 c 128,-1,48
 163 -259 163 -259 172 -320 c 1,49,50
 143 -309 143 -309 111.5 -286.5 c 128,-1,51
 80 -264 80 -264 55 -244 c 1,52,-1
 55 390 l 1,53,-1
 15 390 l 1,54,-1
 -94 480 l 1,0,-1
220 52 m 0,55,56
 281 52 281 52 325.5 69.5 c 128,-1,57
 370 87 370 87 399.5 117 c 128,-1,58
 429 147 429 147 443.5 187.5 c 128,-1,59
 458 228 458 228 458 275 c 0,60,61
 458 332 458 332 439 390 c 1,62,-1
 157 390 l 1,63,-1
 157 76 l 2,64,65
 157 72 157 72 164 68 c 128,-1,66
 171 64 171 64 181 60.5 c 128,-1,67
 191 57 191 57 202 54.5 c 128,-1,68
 213 52 213 52 220 52 c 0,55,56
543 221 m 0,69,70
 543 185 543 185 532.5 149 c 128,-1,71
 522 113 522 113 501 81 c 1,72,73
 505 75 505 75 514 70 c 128,-1,74
 523 65 523 65 534 61 c 128,-1,75
 545 57 545 57 555.5 54.5 c 128,-1,76
 566 52 566 52 573 52 c 0,77,78
 634 52 634 52 678.5 69.5 c 128,-1,79
 723 87 723 87 752 117 c 128,-1,80
 781 147 781 147 795 187.5 c 128,-1,81
 809 228 809 228 809 275 c 0,82,83
 809 302 809 302 804 331 c 128,-1,84
 799 360 799 360 790 390 c 1,85,-1
 479 390 l 1,86,87
 511 355 511 355 527 311 c 128,-1,88
 543 267 543 267 543 221 c 0,69,70
EndSplineSet
Validated: 1
EndChar

StartChar: d
Encoding: 100 100 65
Width: 568
GlyphClass: 2
Flags: W
AnchorPoint: "SZLeft" 95 60 basechar 0
AnchorPoint: "SZRight" 545 -20 basechar 0
AnchorPoint: "Nasal" 295 230 basechar 0
AnchorPoint: "TBottom" 315 -720 basechar 0
AnchorPoint: "TTop" 285 720 basechar 0
LayerCount: 2
Back
Fore
SplineSet
-94 480 m 1,0,-1
 553 480 l 1,1,-1
 662 390 l 1,2,-1
 478 390 l 1,3,4
 512 353 512 353 527.5 310 c 128,-1,5
 543 267 543 267 543 222 c 0,6,7
 543 180 543 180 530 141.5 c 128,-1,8
 517 103 517 103 491 72 c 1,9,10
 517 37 517 37 530 -2 c 128,-1,11
 543 -41 543 -41 543 -81 c 0,12,13
 543 -125 543 -125 527.5 -166.5 c 128,-1,14
 512 -208 512 -208 482.5 -240 c 128,-1,15
 453 -272 453 -272 409.5 -291.5 c 128,-1,16
 366 -311 366 -311 311 -311 c 0,17,18
 269 -311 269 -311 230 -295 c 128,-1,19
 191 -279 191 -279 157 -255 c 1,20,21
 157 -318 157 -318 160 -382.5 c 128,-1,22
 163 -447 163 -447 172 -508 c 1,23,24
 143 -497 143 -497 111.5 -474.5 c 128,-1,25
 80 -452 80 -452 55 -432 c 1,26,-1
 55 390 l 1,27,-1
 15 390 l 1,28,-1
 -94 480 l 1,0,-1
220 52 m 0,29,30
 281 52 281 52 325.5 69 c 128,-1,31
 370 86 370 86 399.5 116 c 128,-1,32
 429 146 429 146 443.5 187 c 128,-1,33
 458 228 458 228 458 275 c 0,34,35
 458 330 458 330 440 390 c 1,36,-1
 157 390 l 1,37,-1
 157 76 l 2,38,39
 157 72 157 72 164 68 c 128,-1,40
 171 64 171 64 181 60.5 c 128,-1,41
 191 57 191 57 202 54.5 c 128,-1,42
 213 52 213 52 220 52 c 0,29,30
157 -228 m 2,43,44
 158 -232 158 -232 165.5 -236 c 128,-1,45
 173 -240 173 -240 183 -243.5 c 128,-1,46
 193 -247 193 -247 203 -249 c 128,-1,47
 213 -251 213 -251 220 -251 c 0,48,49
 281 -251 281 -251 325.5 -234 c 128,-1,50
 370 -217 370 -217 399.5 -187 c 128,-1,51
 429 -157 429 -157 443.5 -116 c 128,-1,52
 458 -75 458 -75 458 -28 c 0,53,54
 458 2 458 2 452 35 c 1,55,56
 424 15 424 15 389 3.5 c 128,-1,57
 354 -8 354 -8 311 -8 c 0,58,59
 269 -8 269 -8 230 8 c 128,-1,60
 191 24 191 24 157 48 c 1,61,-1
 157 -228 l 2,43,44
EndSplineSet
Validated: 1
EndChar

StartChar: f
Encoding: 102 102 66
Width: 568
GlyphClass: 2
Flags: W
AnchorPoint: "SZLeft" 85 70 basechar 0
AnchorPoint: "SZRight" 535 -20 basechar 0
AnchorPoint: "Nasal" 285 230 basechar 0
AnchorPoint: "TBottom" 295 -1000 basechar 0
AnchorPoint: "TTop" 285 720 basechar 0
LayerCount: 2
Back
Fore
SplineSet
-94 480 m 1,0,-1
 553 480 l 1,1,-1
 662 390 l 1,2,-1
 478 390 l 1,3,4
 512 353 512 353 527.5 310 c 128,-1,5
 543 267 543 267 543 222 c 0,6,7
 543 180 543 180 530 141.5 c 128,-1,8
 517 103 517 103 491 72 c 1,9,10
 517 37 517 37 530 -2 c 128,-1,11
 543 -41 543 -41 543 -81 c 0,12,13
 543 -123 543 -123 530 -161 c 128,-1,14
 517 -199 517 -199 491 -231 c 1,15,16
 517 -265 517 -265 530 -304.5 c 128,-1,17
 543 -344 543 -344 543 -384 c 0,18,19
 543 -428 543 -428 527.5 -469.5 c 128,-1,20
 512 -511 512 -511 482.5 -543 c 128,-1,21
 453 -575 453 -575 409.5 -594.5 c 128,-1,22
 366 -614 366 -614 311 -614 c 0,23,24
 269 -614 269 -614 230 -598 c 128,-1,25
 191 -582 191 -582 157 -558 c 1,26,27
 157 -621 157 -621 160 -685.5 c 128,-1,28
 163 -750 163 -750 172 -811 c 1,29,30
 143 -800 143 -800 111.5 -777.5 c 128,-1,31
 80 -755 80 -755 55 -735 c 1,32,-1
 55 390 l 1,33,-1
 15 390 l 1,34,-1
 -94 480 l 1,0,-1
220 52 m 0,35,36
 281 52 281 52 325.5 69 c 128,-1,37
 370 86 370 86 399.5 116 c 128,-1,38
 429 146 429 146 443.5 187 c 128,-1,39
 458 228 458 228 458 275 c 0,40,41
 458 330 458 330 440 390 c 1,42,-1
 157 390 l 1,43,-1
 157 76 l 2,44,45
 157 72 157 72 164 68 c 128,-1,46
 171 64 171 64 181 60.5 c 128,-1,47
 191 57 191 57 202 54.5 c 128,-1,48
 213 52 213 52 220 52 c 0,35,36
311 -311 m 0,49,50
 269 -311 269 -311 230.5 -295 c 128,-1,51
 192 -279 192 -279 158 -255 c 1,52,-1
 157 -531 l 2,53,54
 158 -535 158 -535 165.5 -539 c 128,-1,55
 173 -543 173 -543 183 -546.5 c 128,-1,56
 193 -550 193 -550 203 -552 c 128,-1,57
 213 -554 213 -554 220 -554 c 0,58,59
 281 -554 281 -554 325.5 -537 c 128,-1,60
 370 -520 370 -520 399.5 -490 c 128,-1,61
 429 -460 429 -460 443.5 -419 c 128,-1,62
 458 -378 458 -378 458 -331 c 0,63,64
 458 -300 458 -300 452 -267 c 1,65,66
 424 -287 424 -287 389 -299 c 128,-1,67
 354 -311 354 -311 311 -311 c 0,49,50
311 -8 m 0,68,69
 269 -8 269 -8 231 7.5 c 128,-1,70
 193 23 193 23 159 46 c 1,71,-1
 158 -229 l 2,72,73
 161 -233 161 -233 168.5 -237 c 128,-1,74
 176 -241 176 -241 185.5 -244 c 128,-1,75
 195 -247 195 -247 204.5 -249 c 128,-1,76
 214 -251 214 -251 220 -251 c 0,77,78
 281 -251 281 -251 325.5 -234 c 128,-1,79
 370 -217 370 -217 399.5 -187 c 128,-1,80
 429 -157 429 -157 443.5 -116 c 128,-1,81
 458 -75 458 -75 458 -28 c 0,82,83
 458 2 458 2 452 35 c 1,84,85
 424 15 424 15 389 3.5 c 128,-1,86
 354 -8 354 -8 311 -8 c 0,68,69
158 47 m 1,87,88
 158 47 158 47 157 48 c 2,89,-1
 157 46 l 1,90,-1
 158 47 l 1,87,88
EndSplineSet
Validated: 1
EndChar

StartChar: g
Encoding: 103 103 67
Width: 568
GlyphClass: 2
Flags: W
AnchorPoint: "SZLeft" 75 70 basechar 0
AnchorPoint: "SZRight" 495 -50 basechar 0
AnchorPoint: "Nasal" 315 110 basechar 0
AnchorPoint: "TBottom" 305 -540 basechar 0
AnchorPoint: "TTop" 285 720 basechar 0
LayerCount: 2
Back
Fore
SplineSet
-94 480 m 1,0,-1
 553 480 l 1,1,-1
 662 390 l 1,2,-1
 157 390 l 1,3,-1
 157 46 l 1,4,5
 171 31 171 31 188.5 16 c 128,-1,6
 206 1 206 1 226.5 -11 c 128,-1,7
 247 -23 247 -23 268.5 -31 c 128,-1,8
 290 -39 290 -39 311 -39 c 0,9,10
 345 -39 345 -39 373.5 -22 c 128,-1,11
 402 -5 402 -5 423 22 c 128,-1,12
 444 49 444 49 456 81.5 c 128,-1,13
 468 114 468 114 468 145 c 0,14,15
 468 163 468 163 461.5 183 c 128,-1,16
 455 203 455 203 442.5 219.5 c 128,-1,17
 430 236 430 236 413 247 c 128,-1,18
 396 258 396 258 375 258 c 256,19,20
 354 258 354 258 335 249 c 128,-1,21
 316 240 316 240 299 228 c 1,22,-1
 251 292 l 1,23,24
 254 298 254 298 259.5 305.5 c 128,-1,25
 265 313 265 313 272 319.5 c 128,-1,26
 279 326 279 326 286 331 c 128,-1,27
 293 336 293 336 301 336 c 0,28,29
 327 336 327 336 355 320.5 c 128,-1,30
 383 305 383 305 410 280 c 128,-1,31
 437 255 437 255 461 223 c 128,-1,32
 485 191 485 191 503.5 158 c 128,-1,33
 522 125 522 125 532.5 93.5 c 128,-1,34
 543 62 543 62 543 38 c 0,35,36
 543 10 543 10 529 -17 c 128,-1,37
 515 -44 515 -44 493 -65 c 128,-1,38
 471 -86 471 -86 443.5 -98.5 c 128,-1,39
 416 -111 416 -111 388 -111 c 0,40,41
 349 -111 349 -111 317.5 -101 c 128,-1,42
 286 -91 286 -91 259 -74 c 128,-1,43
 232 -57 232 -57 207 -34 c 128,-1,44
 182 -11 182 -11 156 15 c 1,45,-1
 156 -6 l 2,46,47
 156 -83 156 -83 158.5 -163.5 c 128,-1,48
 161 -244 161 -244 172 -320 c 1,49,50
 143 -309 143 -309 111.5 -286.5 c 128,-1,51
 80 -264 80 -264 55 -244 c 1,52,-1
 55 390 l 1,53,-1
 15 390 l 1,54,-1
 -94 480 l 1,0,-1
EndSplineSet
Validated: 1
EndChar

StartChar: h
Encoding: 104 104 68
Width: 561
GlyphClass: 2
Flags: W
AnchorPoint: "SZLeft" 85 70 basechar 0
AnchorPoint: "SZRight" 475 -60 basechar 0
AnchorPoint: "Nasal" 335 230 basechar 0
AnchorPoint: "TBottom" 285 -540 basechar 0
AnchorPoint: "TTop" 285 720 basechar 0
LayerCount: 2
Back
Fore
SplineSet
-93 480 m 1,0,-1
 546 480 l 1,1,-1
 655 390 l 1,2,-1
 157 390 l 1,3,-1
 157 169 l 1,4,5
 166 159 166 159 184 141.5 c 128,-1,6
 202 124 202 124 225 103 c 128,-1,7
 248 82 248 82 273 60 c 128,-1,8
 298 38 298 38 321 20.5 c 128,-1,9
 344 3 344 3 363.5 -8.5 c 128,-1,10
 383 -20 383 -20 395 -20 c 0,11,12
 413 -20 413 -20 424 -13 c 128,-1,13
 435 -6 435 -6 442 5.5 c 128,-1,14
 449 17 449 17 451.5 31 c 128,-1,15
 454 45 454 45 454 60 c 0,16,17
 454 72 454 72 450 80 c 1,18,19
 469 69 469 69 484.5 57.5 c 128,-1,20
 500 46 500 46 511.5 31.5 c 128,-1,21
 523 17 523 17 529.5 -0.5 c 128,-1,22
 536 -18 536 -18 536 -42 c 0,23,24
 536 -69 536 -69 521.5 -87.5 c 128,-1,25
 507 -106 507 -106 478 -106 c 0,26,27
 448 -106 448 -106 422 -92.5 c 128,-1,28
 396 -79 396 -79 374 -60 c 0,29,30
 318 -13 318 -13 263 33.5 c 128,-1,31
 208 80 208 80 157 131 c 1,32,-1
 156 -34 l 2,33,34
 156 -103 156 -103 158.5 -177 c 128,-1,35
 161 -251 161 -251 172 -320 c 1,36,37
 143 -309 143 -309 111.5 -286.5 c 128,-1,38
 80 -264 80 -264 55 -244 c 1,39,-1
 55 390 l 1,40,-1
 16 390 l 1,41,-1
 -93 480 l 1,0,-1
EndSplineSet
Validated: 1
EndChar

StartChar: i
Encoding: 105 105 69
Width: 448
GlyphClass: 2
Flags: W
AnchorPoint: "SZLeft" 65 70 basechar 0
AnchorPoint: "SZRight" 365 -40 basechar 0
AnchorPoint: "Nasal" 257 317 basechar 0
AnchorPoint: "TBottom" 245 -510 basechar 0
AnchorPoint: "TTop" 225 720 basechar 0
LayerCount: 2
Back
Fore
SplineSet
-93 480 m 1,0,-1
 431 480 l 1,1,-1
 540 390 l 1,2,-1
 157 390 l 1,3,-1
 157 296 l 1,4,5
 167 287 167 287 183.5 271.5 c 128,-1,6
 200 256 200 256 217.5 240.5 c 128,-1,7
 235 225 235 225 252.5 213.5 c 128,-1,8
 270 202 270 202 283 202 c 0,9,10
 299 202 299 202 308.5 208.5 c 128,-1,11
 318 215 318 215 323 225.5 c 128,-1,12
 328 236 328 236 329.5 249 c 128,-1,13
 331 262 331 262 331 274 c 0,14,15
 331 279 331 279 330 283.5 c 128,-1,16
 329 288 329 288 327 293 c 1,17,18
 360 271 360 271 386.5 238.5 c 128,-1,19
 413 206 413 206 413 164 c 0,20,21
 413 141 413 141 400 126 c 128,-1,22
 387 111 387 111 363 111 c 0,23,24
 334 111 334 111 306.5 127 c 128,-1,25
 279 143 279 143 259 163 c 2,26,-1
 157 267 l 1,27,-1
 157 88 l 1,28,29
 167 79 167 79 184.5 61 c 128,-1,30
 202 43 202 43 221.5 24.5 c 128,-1,31
 241 6 241 6 260 -7.5 c 128,-1,32
 279 -21 279 -21 293 -21 c 0,33,34
 317 -21 317 -21 328.5 -4 c 128,-1,35
 340 13 340 13 340 35 c 0,36,37
 340 50 340 50 336 61 c 1,38,39
 370 41 370 41 396.5 12.5 c 128,-1,40
 423 -16 423 -16 423 -58 c 0,41,42
 423 -81 423 -81 409.5 -96.5 c 128,-1,43
 396 -112 396 -112 372 -112 c 0,44,45
 343 -112 343 -112 316 -95.5 c 128,-1,46
 289 -79 289 -79 270 -59 c 2,47,-1
 157 60 l 1,48,-1
 157 -67 l 2,49,50
 157 -130 157 -130 160 -194.5 c 128,-1,51
 163 -259 163 -259 172 -320 c 1,52,53
 143 -309 143 -309 111.5 -286.5 c 128,-1,54
 80 -264 80 -264 55 -244 c 1,55,-1
 55 390 l 1,56,-1
 16 390 l 1,57,-1
 -93 480 l 1,0,-1
EndSplineSet
Validated: 1
EndChar

StartChar: j
Encoding: 106 106 70
Width: 448
GlyphClass: 2
Flags: W
AnchorPoint: "SZLeft" 75 70 basechar 0
AnchorPoint: "SZRight" 365 -130 basechar 0
AnchorPoint: "Nasal" 282 329 basechar 0
AnchorPoint: "TBottom" 225 -530 basechar 0
AnchorPoint: "TTop" 215 720 basechar 0
LayerCount: 2
Back
Fore
SplineSet
-93 480 m 1,0,-1
 431 480 l 1,1,-1
 540 390 l 1,2,-1
 157 390 l 1,3,-1
 157 361 l 1,4,5
 168 352 168 352 185.5 333.5 c 128,-1,6
 203 315 203 315 222 297 c 128,-1,7
 241 279 241 279 260 265.5 c 128,-1,8
 279 252 279 252 293 252 c 0,9,10
 310 252 310 252 322 263 c 128,-1,11
 334 274 334 274 334 291 c 0,12,13
 334 299 334 299 333 302 c 1,14,15
 356 288 356 288 382.5 262.5 c 128,-1,16
 409 237 409 237 423 213 c 1,17,18
 423 190 423 190 409 175.5 c 128,-1,19
 395 161 395 161 372 161 c 0,20,21
 343 161 343 161 316 177.5 c 128,-1,22
 289 194 289 194 270 214 c 2,23,-1
 157 332 l 1,24,-1
 157 199 l 1,25,26
 168 190 168 190 185.5 172 c 128,-1,27
 203 154 203 154 222 136 c 128,-1,28
 241 118 241 118 260 104.5 c 128,-1,29
 279 91 279 91 293 91 c 0,30,31
 310 91 310 91 322 102 c 128,-1,32
 334 113 334 113 334 130 c 0,33,34
 334 137 334 137 333 141 c 1,35,36
 356 126 356 126 382.5 100.5 c 128,-1,37
 409 75 409 75 423 52 c 1,38,39
 423 29 423 29 409 14 c 128,-1,40
 395 -1 395 -1 372 -1 c 0,41,42
 343 -1 343 -1 316 15.5 c 128,-1,43
 289 32 289 32 270 52 c 2,44,-1
 157 171 l 1,45,-1
 157 38 l 1,46,47
 168 29 168 29 185.5 10.5 c 128,-1,48
 203 -8 203 -8 222 -26 c 128,-1,49
 241 -44 241 -44 260 -57.5 c 128,-1,50
 279 -71 279 -71 293 -71 c 0,51,52
 310 -71 310 -71 322 -59.5 c 128,-1,53
 334 -48 334 -48 334 -31 c 0,54,55
 334 -24 334 -24 333 -20 c 1,56,57
 356 -35 356 -35 382.5 -60.5 c 128,-1,58
 409 -86 409 -86 423 -110 c 1,59,60
 423 -133 423 -133 409 -147.5 c 128,-1,61
 395 -162 395 -162 372 -162 c 0,62,63
 343 -162 343 -162 316 -145.5 c 128,-1,64
 289 -129 289 -129 270 -109 c 2,65,-1
 157 10 l 1,66,-1
 157 -67 l 2,67,68
 157 -130 157 -130 160 -194.5 c 128,-1,69
 163 -259 163 -259 172 -320 c 1,70,71
 143 -309 143 -309 111.5 -286.5 c 128,-1,72
 80 -264 80 -264 55 -244 c 1,73,-1
 55 390 l 1,74,-1
 16 390 l 1,75,-1
 -93 480 l 1,0,-1
EndSplineSet
Validated: 1
EndChar

StartChar: k
Encoding: 107 107 71
Width: 440
GlyphClass: 2
Flags: W
AnchorPoint: "SZLeft" 85 70 basechar 0
AnchorPoint: "SZRight" 375 -50 basechar 0
AnchorPoint: "Nasal" 240 177 basechar 0
AnchorPoint: "TBottom" 205 -520 basechar 0
AnchorPoint: "TTop" 225 720 basechar 0
LayerCount: 2
Back
Fore
SplineSet
-93 480 m 1,0,-1
 425 480 l 1,1,-1
 534 390 l 1,2,-1
 158 390 l 1,3,-1
 158 311 l 1,4,5
 170 316 170 316 180 318 c 128,-1,6
 190 320 190 320 200 320 c 0,7,8
 223 320 223 320 244.5 313.5 c 128,-1,9
 266 307 266 307 286 296 c 0,10,11
 314 280 314 280 337.5 263 c 128,-1,12
 361 246 361 246 378.5 225 c 128,-1,13
 396 204 396 204 405.5 177.5 c 128,-1,14
 415 151 415 151 415 116 c 0,15,16
 415 95 415 95 406 81 c 128,-1,17
 397 67 397 67 383 57.5 c 128,-1,18
 369 48 369 48 351.5 42.5 c 128,-1,19
 334 37 334 37 317 35 c 1,20,21
 363 4 363 4 389 -32 c 128,-1,22
 415 -68 415 -68 415 -126 c 0,23,24
 415 -149 415 -149 404 -165 c 128,-1,25
 393 -181 393 -181 376.5 -190.5 c 128,-1,26
 360 -200 360 -200 339.5 -204 c 128,-1,27
 319 -208 319 -208 300 -208 c 0,28,29
 262 -208 262 -208 227.5 -195 c 128,-1,30
 193 -182 193 -182 167 -156 c 1,31,-1
 159 -150 l 1,32,33
 161 -190 161 -190 164 -235 c 128,-1,34
 167 -280 167 -280 173 -320 c 1,35,36
 144 -309 144 -309 112 -286.5 c 128,-1,37
 80 -264 80 -264 55 -244 c 1,38,-1
 55 390 l 1,39,-1
 16 390 l 1,40,-1
 -93 480 l 1,0,-1
158 -62 m 2,41,42
 158 -107 158 -107 179 -138 c 128,-1,43
 200 -169 200 -169 249 -169 c 0,44,45
 269 -169 269 -169 285.5 -160.5 c 128,-1,46
 302 -152 302 -152 313.5 -138.5 c 128,-1,47
 325 -125 325 -125 331.5 -107.5 c 128,-1,48
 338 -90 338 -90 338 -71 c 0,49,50
 338 -14 338 -14 300.5 17.5 c 128,-1,51
 263 49 263 49 208 49 c 0,52,53
 194 49 194 49 181 45 c 128,-1,54
 168 41 168 41 158 32 c 1,55,-1
 158 -62 l 2,41,42
158 111 m 1,56,57
 164 104 164 104 175.5 97 c 128,-1,58
 187 90 187 90 200.5 85 c 128,-1,59
 214 80 214 80 227 76.5 c 128,-1,60
 240 73 240 73 249 73 c 0,61,62
 269 73 269 73 285.5 81.5 c 128,-1,63
 302 90 302 90 313.5 103.5 c 128,-1,64
 325 117 325 117 331.5 134.5 c 128,-1,65
 338 152 338 152 338 171 c 0,66,67
 338 193 338 193 332.5 212 c 128,-1,68
 327 231 327 231 315.5 245.5 c 128,-1,69
 304 260 304 260 287 268.5 c 128,-1,70
 270 277 270 277 246 277 c 0,71,72
 220 277 220 277 203.5 266.5 c 128,-1,73
 187 256 187 256 176.5 239.5 c 128,-1,74
 166 223 166 223 162 202 c 128,-1,75
 158 181 158 181 158 159 c 2,76,-1
 158 111 l 1,56,57
EndSplineSet
Validated: 1
EndChar

StartChar: l
Encoding: 108 108 72
Width: 651
GlyphClass: 2
Flags: W
AnchorPoint: "SZLeft" 75 70 basechar 0
AnchorPoint: "SZRight" 545 -20 basechar 0
AnchorPoint: "Nasal" 350 290 basechar 0
AnchorPoint: "TBottom" 365 -510 basechar 0
AnchorPoint: "TTop" 345 720 basechar 0
LayerCount: 2
Back
Fore
SplineSet
-94 480 m 1,0,-1
 636 480 l 1,1,-1
 745 390 l 1,2,-1
 157 390 l 1,3,-1
 156 107 l 2,4,5
 156 70 156 70 180.5 44.5 c 128,-1,6
 205 19 205 19 243 19 c 0,7,8
 267 19 267 19 280 37.5 c 128,-1,9
 293 56 293 56 299.5 81.5 c 128,-1,10
 306 107 306 107 307.5 134 c 128,-1,11
 309 161 309 161 311 178 c 1,12,-1
 392 158 l 1,13,14
 390 148 390 148 388.5 139 c 128,-1,15
 387 130 387 130 387 121 c 0,16,17
 387 101 387 101 393.5 83 c 128,-1,18
 400 65 400 65 411.5 50.5 c 128,-1,19
 423 36 423 36 440 27.5 c 128,-1,20
 457 19 457 19 478 19 c 0,21,22
 502 19 502 19 515 37.5 c 128,-1,23
 528 56 528 56 534.5 81.5 c 128,-1,24
 541 107 541 107 542.5 134 c 128,-1,25
 544 161 544 161 545 178 c 1,26,-1
 626 158 l 1,27,28
 624 129 624 129 619.5 98 c 128,-1,29
 615 67 615 67 603 40.5 c 128,-1,30
 591 14 591 14 569.5 -3 c 128,-1,31
 548 -20 548 -20 512 -20 c 0,32,33
 494 -20 494 -20 474 -13 c 128,-1,34
 454 -6 454 -6 434.5 5 c 128,-1,35
 415 16 415 16 397 28.5 c 128,-1,36
 379 41 379 41 366 53 c 1,37,38
 360 40 360 40 350.5 26.5 c 128,-1,39
 341 13 341 13 329.5 1.5 c 128,-1,40
 318 -10 318 -10 304 -17 c 128,-1,41
 290 -24 290 -24 274 -24 c 0,42,43
 262 -24 262 -24 245.5 -18 c 128,-1,44
 229 -12 229 -12 212.5 -3 c 128,-1,45
 196 6 196 6 180.5 16 c 128,-1,46
 165 26 165 26 156 34 c 1,47,-1
 156 -47 l 2,48,49
 155 -113 155 -113 158.5 -183.5 c 128,-1,50
 162 -254 162 -254 172 -320 c 1,51,52
 143 -310 143 -310 111 -287 c 128,-1,53
 79 -264 79 -264 55 -244 c 1,54,-1
 55 390 l 1,55,-1
 15 390 l 1,56,-1
 -94 480 l 1,0,-1
EndSplineSet
Validated: 33
EndChar

StartChar: m
Encoding: 109 109 73
Width: 788
GlyphClass: 2
Flags: W
AnchorPoint: "SZLeft" 245 -80 basechar 0
AnchorPoint: "SZRight" 735 -40 basechar 0
AnchorPoint: "Nasal" 125 100 basechar 0
AnchorPoint: "TBottom" 485 -460 basechar 0
AnchorPoint: "TTop" 485 720 basechar 0
LayerCount: 2
Back
Fore
SplineSet
-94 480 m 1,0,-1
 773 480 l 1,1,-1
 882 390 l 1,2,-1
 748 390 l 1,3,-1
 748 51 l 2,4,5
 748 -12 748 -12 751 -76.5 c 128,-1,6
 754 -141 754 -141 763 -202 c 1,7,8
 734 -191 734 -191 702.5 -168.5 c 128,-1,9
 671 -146 671 -146 646 -126 c 1,10,11
 623 -99 623 -99 596 -71.5 c 128,-1,12
 569 -44 569 -44 536 -10 c 1,13,14
 537 -58 537 -58 540 -106.5 c 128,-1,15
 543 -155 543 -155 550 -202 c 1,16,17
 521 -191 521 -191 489.5 -168.5 c 128,-1,18
 458 -146 458 -146 433 -126 c 1,19,-1
 433 91 l 1,20,21
 413 110 413 110 385.5 134 c 128,-1,22
 358 158 358 158 328 183 c 1,23,-1
 328 51 l 2,24,25
 328 -12 328 -12 331 -76.5 c 128,-1,26
 334 -141 334 -141 343 -202 c 1,27,28
 314 -191 314 -191 282.5 -168.5 c 128,-1,29
 251 -146 251 -146 226 -126 c 1,30,-1
 226 260 l 1,31,32
 206 274 206 274 190 281.5 c 128,-1,33
 174 289 174 289 164 289 c 0,34,35
 146 289 146 289 135 282.5 c 128,-1,36
 124 276 124 276 117.5 264.5 c 128,-1,37
 111 253 111 253 108.5 239 c 128,-1,38
 106 225 106 225 106 210 c 0,39,40
 106 199 106 199 110 191 c 1,41,42
 72 213 72 213 48.5 239.5 c 128,-1,43
 25 266 25 266 25 313 c 0,44,45
 25 339 25 339 37 355.5 c 128,-1,46
 49 372 49 372 77 372 c 0,47,48
 103 372 103 372 142 350.5 c 128,-1,49
 181 329 181 329 226 297 c 1,50,-1
 226 390 l 1,51,-1
 15 390 l 1,52,-1
 -94 480 l 1,0,-1
646 390 m 1,53,-1
 535 390 l 1,54,-1
 535 24 l 1,55,56
 570 -9 570 -9 596.5 -35.5 c 128,-1,57
 623 -62 623 -62 646 -85 c 1,58,-1
 646 390 l 1,53,-1
433 390 m 1,59,-1
 328 390 l 1,60,-1
 328 216 l 1,61,62
 358 190 358 190 385 166.5 c 128,-1,63
 412 143 412 143 433 124 c 1,64,-1
 433 390 l 1,59,-1
EndSplineSet
Validated: 1
EndChar

StartChar: n
Encoding: 110 110 74
Width: 581
GlyphClass: 2
Flags: W
AnchorPoint: "SZLeft" 65 20 basechar 0
AnchorPoint: "SZRight" 495 -50 basechar 0
AnchorPoint: "Nasal" 225 270 basechar 0
AnchorPoint: "TBottom" 295 -560 basechar 0
AnchorPoint: "TTop" 285 720 basechar 0
LayerCount: 2
Back
Fore
SplineSet
-94 480 m 1,0,-1
 566 480 l 1,1,-1
 675 390 l 1,2,-1
 512 390 l 1,3,-1
 512 114 l 2,4,5
 512 12 512 12 512 -88.5 c 128,-1,6
 512 -189 512 -189 527 -290 c 1,7,8
 498 -279 498 -279 466.5 -256.5 c 128,-1,9
 435 -234 435 -234 410 -214 c 1,10,-1
 410 -10 l 1,11,12
 396 3 396 3 378 18 c 128,-1,13
 360 33 360 33 339.5 45.5 c 128,-1,14
 319 58 319 58 298 66.5 c 128,-1,15
 277 75 277 75 257 75 c 0,16,17
 223 75 223 75 194 58 c 128,-1,18
 165 41 165 41 144 14 c 128,-1,19
 123 -13 123 -13 111 -45.5 c 128,-1,20
 99 -78 99 -78 99 -109 c 0,21,22
 99 -127 99 -127 106 -147.5 c 128,-1,23
 113 -168 113 -168 125 -184.5 c 128,-1,24
 137 -201 137 -201 154.5 -212 c 128,-1,25
 172 -223 172 -223 193 -223 c 256,26,27
 214 -223 214 -223 233 -214 c 128,-1,28
 252 -205 252 -205 269 -192 c 1,29,-1
 326 -257 l 1,30,31
 315 -269 315 -269 304 -279 c 0,32,33
 295 -287 295 -287 285 -294 c 128,-1,34
 275 -301 275 -301 267 -301 c 0,35,36
 241 -301 241 -301 213 -285.5 c 128,-1,37
 185 -270 185 -270 158 -245 c 128,-1,38
 131 -220 131 -220 107 -187.5 c 128,-1,39
 83 -155 83 -155 64.5 -122 c 128,-1,40
 46 -89 46 -89 35.5 -57.5 c 128,-1,41
 25 -26 25 -26 25 -2 c 0,42,43
 25 26 25 26 39 52.5 c 128,-1,44
 53 79 53 79 75 100 c 128,-1,45
 97 121 97 121 124.5 133.5 c 128,-1,46
 152 146 152 146 179 146 c 0,47,48
 219 146 219 146 250 136.5 c 128,-1,49
 281 127 281 127 308 110 c 128,-1,50
 335 93 335 93 359.5 70 c 128,-1,51
 384 47 384 47 410 21 c 1,52,-1
 410 390 l 1,53,-1
 15 390 l 1,54,-1
 -94 480 l 1,0,-1
EndSplineSet
Validated: 1
EndChar

StartChar: o
Encoding: 111 111 75
Width: 581
GlyphClass: 2
Flags: W
AnchorPoint: "SZLeft" 45 -10 basechar 0
AnchorPoint: "SZRight" 475 -30 basechar 0
AnchorPoint: "Nasal" 335 170 basechar 0
AnchorPoint: "TBottom" 305 -570 basechar 0
AnchorPoint: "TTop" 285 720 basechar 0
LayerCount: 2
Back
Fore
SplineSet
-94 480 m 1,0,-1
 566 480 l 1,1,-1
 675 390 l 1,2,-1
 512 390 l 1,3,-1
 512 114 l 2,4,5
 512 12 512 12 512 -88.5 c 128,-1,6
 512 -189 512 -189 527 -290 c 1,7,8
 498 -279 498 -279 466.5 -256.5 c 128,-1,9
 435 -234 435 -234 410 -214 c 1,10,-1
 410 -10 l 1,11,12
 396 3 396 3 378 18 c 128,-1,13
 360 33 360 33 339.5 45.5 c 128,-1,14
 319 58 319 58 298 66.5 c 128,-1,15
 277 75 277 75 257 75 c 0,16,17
 223 75 223 75 194 58 c 128,-1,18
 165 41 165 41 144 14 c 128,-1,19
 123 -13 123 -13 111 -45.5 c 128,-1,20
 99 -78 99 -78 99 -109 c 0,21,22
 99 -127 99 -127 106 -147.5 c 128,-1,23
 113 -168 113 -168 125 -184.5 c 128,-1,24
 137 -201 137 -201 154.5 -212 c 128,-1,25
 172 -223 172 -223 193 -223 c 256,26,27
 214 -223 214 -223 233 -214 c 128,-1,28
 252 -205 252 -205 269 -192 c 1,29,-1
 326 -257 l 1,30,31
 315 -269 315 -269 304 -279 c 0,32,33
 295 -287 295 -287 285 -294 c 128,-1,34
 275 -301 275 -301 267 -301 c 0,35,36
 241 -301 241 -301 213 -285.5 c 128,-1,37
 185 -270 185 -270 158 -245 c 128,-1,38
 131 -220 131 -220 107 -187.5 c 128,-1,39
 83 -155 83 -155 64.5 -122 c 128,-1,40
 46 -89 46 -89 35.5 -57.5 c 128,-1,41
 25 -26 25 -26 25 -2 c 0,42,43
 25 26 25 26 39 52.5 c 128,-1,44
 53 79 53 79 75 100 c 128,-1,45
 97 121 97 121 124.5 133.5 c 128,-1,46
 152 146 152 146 179 146 c 0,47,48
 219 146 219 146 250 136.5 c 128,-1,49
 281 127 281 127 308 110 c 128,-1,50
 335 93 335 93 359.5 70 c 128,-1,51
 384 47 384 47 410 21 c 1,52,-1
 410 237 l 1,53,54
 344 234 344 234 287.5 230 c 128,-1,55
 231 226 231 226 166 226 c 0,56,57
 142 226 142 226 125.5 233 c 128,-1,58
 109 240 109 240 97.5 253 c 128,-1,59
 86 266 86 266 79.5 283 c 128,-1,60
 73 300 73 300 68 321 c 1,61,62
 151 304 151 304 238 299 c 128,-1,63
 325 294 325 294 410 292 c 1,64,-1
 410 390 l 1,65,-1
 15 390 l 1,66,-1
 -94 480 l 1,0,-1
EndSplineSet
Validated: 1
EndChar

StartChar: p
Encoding: 112 112 76
Width: 581
GlyphClass: 2
Flags: W
AnchorPoint: "SZLeft" 55 0 basechar 0
AnchorPoint: "SZRight" 475 -30 basechar 0
AnchorPoint: "Nasal" 205 270 basechar 0
AnchorPoint: "TBottom" 275 -570 basechar 0
AnchorPoint: "TTop" 285 720 basechar 0
LayerCount: 2
Back
Fore
SplineSet
-94 480 m 1,0,-1
 566 480 l 1,1,-1
 675 390 l 1,2,-1
 512 390 l 1,3,-1
 512 -33 l 2,4,5
 512 -111 512 -111 514 -188 c 128,-1,6
 516 -265 516 -265 527 -342 c 1,7,8
 499 -332 499 -332 466.5 -316.5 c 128,-1,9
 434 -301 434 -301 407 -291 c 1,10,-1
 52 -291 l 1,11,12
 33 -272 33 -272 17 -253 c 0,13,14
 3 -237 3 -237 -10 -218.5 c 128,-1,15
 -23 -200 -23 -200 -28 -186 c 1,16,17
 -1 -192 -1 -192 35 -195 c 128,-1,18
 71 -198 71 -198 116 -200 c 1,19,20
 96 -176 96 -176 79.5 -149 c 128,-1,21
 63 -122 63 -122 51 -96 c 128,-1,22
 39 -70 39 -70 32 -45.5 c 128,-1,23
 25 -21 25 -21 25 -2 c 0,24,25
 25 26 25 26 39 52.5 c 128,-1,26
 53 79 53 79 75 100 c 128,-1,27
 97 121 97 121 124.5 133.5 c 128,-1,28
 152 146 152 146 179 146 c 0,29,30
 219 146 219 146 250 136.5 c 128,-1,31
 281 127 281 127 308 110 c 128,-1,32
 335 93 335 93 359.5 70 c 128,-1,33
 384 47 384 47 410 21 c 1,34,-1
 410 390 l 1,35,-1
 15 390 l 1,36,-1
 -94 480 l 1,0,-1
99 -109 m 0,37,38
 99 -132 99 -132 109.5 -157.5 c 128,-1,39
 120 -183 120 -183 139 -201 c 1,40,-1
 218 -201 l 2,41,42
 266 -201 266 -201 314 -200.5 c 128,-1,43
 362 -200 362 -200 410 -200 c 1,44,-1
 410 -10 l 1,45,46
 396 3 396 3 378 18 c 128,-1,47
 360 33 360 33 339.5 45.5 c 128,-1,48
 319 58 319 58 298 66.5 c 128,-1,49
 277 75 277 75 257 75 c 0,50,51
 223 75 223 75 194 58 c 128,-1,52
 165 41 165 41 144 14 c 128,-1,53
 123 -13 123 -13 111 -45.5 c 128,-1,54
 99 -78 99 -78 99 -109 c 0,37,38
EndSplineSet
Validated: 1
EndChar

StartChar: q
Encoding: 113 113 77
Width: 920
GlyphClass: 2
Flags: W
AnchorPoint: "SZLeft" 45 0 basechar 0
AnchorPoint: "SZRight" 825 -30 basechar 0
AnchorPoint: "Nasal" 385 260 basechar 0
AnchorPoint: "TBottom" 385 -530 basechar 0
AnchorPoint: "TTop" 395 720 basechar 0
LayerCount: 2
Back
Fore
SplineSet
-94 480 m 1,0,-1
 905 480 l 1,1,-1
 1014 390 l 1,2,-1
 850 390 l 1,3,-1
 850 116 l 2,4,5
 850 14 850 14 850 -87.5 c 128,-1,6
 850 -189 850 -189 865 -290 c 1,7,8
 836 -279 836 -279 805 -256.5 c 128,-1,9
 774 -234 774 -234 749 -214 c 1,10,-1
 749 -11 l 1,11,12
 735 2 735 2 717.5 16.5 c 128,-1,13
 700 31 700 31 680 44 c 128,-1,14
 660 57 660 57 639.5 65.5 c 128,-1,15
 619 74 619 74 599 74 c 0,16,17
 565 74 565 74 537 56.5 c 128,-1,18
 509 39 509 39 488.5 12 c 128,-1,19
 468 -15 468 -15 456.5 -47.5 c 128,-1,20
 445 -80 445 -80 445 -110 c 0,21,22
 445 -128 445 -128 451.5 -148 c 128,-1,23
 458 -168 458 -168 470 -185 c 128,-1,24
 482 -202 482 -202 499 -213 c 128,-1,25
 516 -224 516 -224 537 -224 c 0,26,27
 557 -224 557 -224 575.5 -215 c 128,-1,28
 594 -206 594 -206 611 -194 c 1,29,-1
 667 -258 l 1,30,31
 656 -270 656 -270 645 -280 c 0,32,33
 636 -288 636 -288 626 -295 c 128,-1,34
 616 -302 616 -302 609 -302 c 0,35,36
 583 -302 583 -302 555 -286.5 c 128,-1,37
 527 -271 527 -271 501 -245.5 c 128,-1,38
 475 -220 475 -220 451.5 -187.5 c 128,-1,39
 428 -155 428 -155 410.5 -121.5 c 128,-1,40
 393 -88 393 -88 383 -56.5 c 128,-1,41
 373 -25 373 -25 373 -1 c 0,42,43
 373 13 373 13 358.5 26.5 c 128,-1,44
 344 40 344 40 324.5 50.5 c 128,-1,45
 305 61 305 61 284.5 67.5 c 128,-1,46
 264 74 264 74 252 74 c 0,47,48
 219 74 219 74 190.5 56.5 c 128,-1,49
 162 39 162 39 141 12 c 128,-1,50
 120 -15 120 -15 108.5 -47.5 c 128,-1,51
 97 -80 97 -80 97 -110 c 0,52,53
 97 -128 97 -128 103.5 -148 c 128,-1,54
 110 -168 110 -168 122 -185 c 128,-1,55
 134 -202 134 -202 151 -213 c 128,-1,56
 168 -224 168 -224 189 -224 c 256,57,58
 210 -224 210 -224 228.5 -215 c 128,-1,59
 247 -206 247 -206 264 -194 c 1,60,-1
 320 -258 l 1,61,62
 309 -270 309 -270 298 -280 c 0,63,64
 289 -288 289 -288 279 -295 c 128,-1,65
 269 -302 269 -302 262 -302 c 0,66,67
 236 -302 236 -302 208.5 -286.5 c 128,-1,68
 181 -271 181 -271 154.5 -245.5 c 128,-1,69
 128 -220 128 -220 104.5 -188 c 128,-1,70
 81 -156 81 -156 63.5 -123 c 128,-1,71
 46 -90 46 -90 35.5 -58.5 c 128,-1,72
 25 -27 25 -27 25 -3 c 0,73,74
 25 25 25 25 38 51.5 c 128,-1,75
 51 78 51 78 72.5 99 c 128,-1,76
 94 120 94 120 121 132.5 c 128,-1,77
 148 145 148 145 176 145 c 0,78,79
 211 145 211 145 238.5 138 c 128,-1,80
 266 131 266 131 289.5 117.5 c 128,-1,81
 313 104 313 104 335 85 c 128,-1,82
 357 66 357 66 381 43 c 1,83,84
 392 62 392 62 407 80.5 c 128,-1,85
 422 99 422 99 440 113 c 128,-1,86
 458 127 458 127 479 136 c 128,-1,87
 500 145 500 145 523 145 c 0,88,89
 562 145 562 145 593 135.5 c 128,-1,90
 624 126 624 126 650 109 c 128,-1,91
 676 92 676 92 700 69 c 128,-1,92
 724 46 724 46 749 20 c 1,93,-1
 749 390 l 1,94,-1
 15 390 l 1,95,-1
 -94 480 l 1,0,-1
EndSplineSet
Validated: 1
EndChar

StartChar: r
Encoding: 114 114 78
Width: 920
GlyphClass: 2
Flags: W
AnchorPoint: "SZLeft" 55 0 basechar 0
AnchorPoint: "SZRight" 815 -40 basechar 0
AnchorPoint: "Nasal" 375 158 basechar 0
AnchorPoint: "TBottom" 405 -550 basechar 0
AnchorPoint: "TTop" 405 720 basechar 0
LayerCount: 2
Back
Fore
SplineSet
-94 480 m 1,0,-1
 905 480 l 1,1,-1
 1014 390 l 1,2,-1
 850 390 l 1,3,-1
 850 116 l 2,4,5
 850 14 850 14 850 -87.5 c 128,-1,6
 850 -189 850 -189 865 -290 c 1,7,8
 836 -279 836 -279 805 -256.5 c 128,-1,9
 774 -234 774 -234 749 -214 c 1,10,-1
 749 -1 l 1,11,12
 735 12 735 12 717.5 26.5 c 128,-1,13
 700 41 700 41 680 54 c 128,-1,14
 660 67 660 67 639.5 75.5 c 128,-1,15
 619 84 619 84 599 84 c 0,16,17
 565 84 565 84 537 66.5 c 128,-1,18
 509 49 509 49 488.5 22 c 128,-1,19
 468 -5 468 -5 456.5 -37.5 c 128,-1,20
 445 -70 445 -70 445 -100 c 0,21,22
 445 -118 445 -118 451.5 -138 c 128,-1,23
 458 -158 458 -158 470 -175 c 128,-1,24
 482 -192 482 -192 499 -203 c 128,-1,25
 516 -214 516 -214 537 -214 c 0,26,27
 557 -214 557 -214 575.5 -205 c 128,-1,28
 594 -196 594 -196 611 -184 c 1,29,-1
 667 -248 l 1,30,31
 656 -260 656 -260 645 -270 c 0,32,33
 636 -278 636 -278 626 -285 c 128,-1,34
 616 -292 616 -292 609 -292 c 0,35,36
 583 -292 583 -292 555 -276.5 c 128,-1,37
 527 -261 527 -261 501 -235.5 c 128,-1,38
 475 -210 475 -210 451.5 -177.5 c 128,-1,39
 428 -145 428 -145 410.5 -111.5 c 128,-1,40
 393 -78 393 -78 383 -46.5 c 128,-1,41
 373 -15 373 -15 373 9 c 0,42,43
 373 23 373 23 358.5 36.5 c 128,-1,44
 344 50 344 50 324.5 60.5 c 128,-1,45
 305 71 305 71 284.5 77.5 c 128,-1,46
 264 84 264 84 252 84 c 0,47,48
 219 84 219 84 190.5 66.5 c 128,-1,49
 162 49 162 49 141 22 c 128,-1,50
 120 -5 120 -5 108.5 -37.5 c 128,-1,51
 97 -70 97 -70 97 -100 c 0,52,53
 97 -118 97 -118 103.5 -138 c 128,-1,54
 110 -158 110 -158 122 -175 c 128,-1,55
 134 -192 134 -192 151 -203 c 128,-1,56
 168 -214 168 -214 189 -214 c 256,57,58
 210 -214 210 -214 228.5 -205 c 128,-1,59
 247 -196 247 -196 264 -184 c 1,60,-1
 320 -248 l 1,61,62
 309 -260 309 -260 298 -270 c 0,63,64
 289 -278 289 -278 279 -285 c 128,-1,65
 269 -292 269 -292 262 -292 c 0,66,67
 236 -292 236 -292 208.5 -276.5 c 128,-1,68
 181 -261 181 -261 154.5 -235.5 c 128,-1,69
 128 -210 128 -210 104.5 -178 c 128,-1,70
 81 -146 81 -146 63.5 -113 c 128,-1,71
 46 -80 46 -80 35.5 -48.5 c 128,-1,72
 25 -17 25 -17 25 7 c 0,73,74
 25 35 25 35 38 61.5 c 128,-1,75
 51 88 51 88 72.5 109 c 128,-1,76
 94 130 94 130 121 142.5 c 128,-1,77
 148 155 148 155 176 155 c 0,78,79
 211 155 211 155 238.5 148 c 128,-1,80
 266 141 266 141 289.5 127.5 c 128,-1,81
 313 114 313 114 335 95 c 128,-1,82
 357 76 357 76 381 53 c 1,83,84
 392 72 392 72 407 90.5 c 128,-1,85
 422 109 422 109 440 123 c 128,-1,86
 458 137 458 137 479 146 c 128,-1,87
 500 155 500 155 523 155 c 0,88,89
 562 155 562 155 593 145.5 c 128,-1,90
 624 136 624 136 650 119 c 128,-1,91
 676 102 676 102 700 79 c 128,-1,92
 724 56 724 56 749 30 c 1,93,-1
 749 237 l 1,94,95
 727 236 727 236 691 235 c 128,-1,96
 655 234 655 234 611.5 232.5 c 128,-1,97
 568 231 568 231 521.5 230 c 128,-1,98
 475 229 475 229 432 228 c 128,-1,99
 389 227 389 227 353 226.5 c 128,-1,100
 317 226 317 226 295 226 c 0,101,102
 271 226 271 226 254.5 233 c 128,-1,103
 238 240 238 240 226.5 253 c 128,-1,104
 215 266 215 266 208.5 283 c 128,-1,105
 202 300 202 300 197 321 c 1,106,107
 224 315 224 315 268 311 c 128,-1,108
 312 307 312 307 363.5 304 c 128,-1,109
 415 301 415 301 471.5 299 c 128,-1,110
 528 297 528 297 580 295.5 c 128,-1,111
 632 294 632 294 676.5 293.5 c 128,-1,112
 721 293 721 293 749 292 c 1,113,-1
 749 390 l 1,114,-1
 15 390 l 1,115,-1
 -94 480 l 1,0,-1
EndSplineSet
Validated: 1
EndChar

StartChar: s
Encoding: 115 115 79
Width: 920
GlyphClass: 2
Flags: W
AnchorPoint: "SZLeft" 35 0 basechar 0
AnchorPoint: "SZRight" 815 -40 basechar 0
AnchorPoint: "Nasal" 385 260 basechar 0
AnchorPoint: "TBottom" 405 -540 basechar 0
AnchorPoint: "TTop" 425 720 basechar 0
LayerCount: 2
Back
Fore
SplineSet
-94 480 m 1,0,-1
 905 480 l 1,1,-1
 1014 390 l 1,2,-1
 850 390 l 1,3,-1
 850 -33 l 2,4,5
 850 -111 850 -111 852 -188 c 128,-1,6
 854 -265 854 -265 865 -342 c 1,7,8
 837 -332 837 -332 804.5 -316.5 c 128,-1,9
 772 -301 772 -301 745 -291 c 1,10,-1
 51 -291 l 1,11,12
 32 -272 32 -272 16 -253 c 0,13,14
 2 -237 2 -237 -11 -218.5 c 128,-1,15
 -24 -200 -24 -200 -29 -186 c 1,16,17
 -12 -190 -12 -190 28 -192.5 c 128,-1,18
 68 -195 68 -195 119 -197 c 1,19,20
 78 -147 78 -147 51 -94.5 c 128,-1,21
 24 -42 24 -42 24 -2 c 0,22,23
 24 26 24 26 37 52.5 c 128,-1,24
 50 79 50 79 71.5 100 c 128,-1,25
 93 121 93 121 120 133.5 c 128,-1,26
 147 146 147 146 175 146 c 0,27,28
 210 146 210 146 237.5 139 c 128,-1,29
 265 132 265 132 288.5 118.5 c 128,-1,30
 312 105 312 105 334 86 c 128,-1,31
 356 67 356 67 380 44 c 1,32,33
 391 63 391 63 406 81.5 c 128,-1,34
 421 100 421 100 439 114 c 128,-1,35
 457 128 457 128 478 137 c 128,-1,36
 499 146 499 146 522 146 c 0,37,38
 561 146 561 146 592 136.5 c 128,-1,39
 623 127 623 127 649 110 c 128,-1,40
 675 93 675 93 699 70 c 128,-1,41
 723 47 723 47 748 21 c 1,42,-1
 748 390 l 1,43,-1
 15 390 l 1,44,-1
 -94 480 l 1,0,-1
96 -109 m 0,45,46
 96 -135 96 -135 108.5 -158 c 128,-1,47
 121 -181 121 -181 144 -198 c 1,48,49
 226 -200 226 -200 307 -200.5 c 128,-1,50
 388 -201 388 -201 470 -201 c 1,51,52
 428 -150 428 -150 400 -95.5 c 128,-1,53
 372 -41 372 -41 372 0 c 0,54,55
 372 14 372 14 357.5 27.5 c 128,-1,56
 343 41 343 41 323.5 51.5 c 128,-1,57
 304 62 304 62 283.5 68.5 c 128,-1,58
 263 75 263 75 251 75 c 0,59,60
 218 75 218 75 189.5 57.5 c 128,-1,61
 161 40 161 40 140 13 c 128,-1,62
 119 -14 119 -14 107.5 -46.5 c 128,-1,63
 96 -79 96 -79 96 -109 c 0,45,46
444 -109 m 0,64,65
 444 -136 444 -136 458 -160.5 c 128,-1,66
 472 -185 472 -185 497 -200 c 1,67,-1
 748 -200 l 1,68,-1
 748 -10 l 1,69,70
 734 3 734 3 716.5 17.5 c 128,-1,71
 699 32 699 32 679 45 c 128,-1,72
 659 58 659 58 638.5 66.5 c 128,-1,73
 618 75 618 75 598 75 c 0,74,75
 564 75 564 75 536 57.5 c 128,-1,76
 508 40 508 40 487.5 13 c 128,-1,77
 467 -14 467 -14 455.5 -46.5 c 128,-1,78
 444 -79 444 -79 444 -109 c 0,64,65
EndSplineSet
Validated: 1
EndChar

StartChar: t
Encoding: 116 116 80
Width: 582
GlyphClass: 2
Flags: W
AnchorPoint: "SZLeft" 115 0 basechar 0
AnchorPoint: "SZRight" 485 -40 basechar 0
AnchorPoint: "Nasal" 255 120 basechar 0
AnchorPoint: "TBottom" 265 -720 basechar 0
AnchorPoint: "TTop" 275 720 basechar 0
LayerCount: 2
Back
Fore
SplineSet
-92 480 m 1,0,-1
 567 480 l 1,1,-1
 676 390 l 1,2,-1
 512 390 l 1,3,-1
 512 -194 l 2,4,5
 512 -272 512 -272 514 -349 c 128,-1,6
 516 -426 516 -426 527 -503 c 1,7,8
 499 -493 499 -493 466.5 -477.5 c 128,-1,9
 434 -462 434 -462 407 -452 c 1,10,-1
 52 -452 l 1,11,12
 33 -433 33 -433 17 -414 c 0,13,14
 3 -398 3 -398 -10 -379.5 c 128,-1,15
 -23 -361 -23 -361 -28 -347 c 1,16,17
 -1 -353 -1 -353 35 -356 c 128,-1,18
 71 -359 71 -359 116 -361 c 1,19,20
 96 -337 96 -337 79.5 -310 c 128,-1,21
 63 -283 63 -283 51 -257 c 128,-1,22
 39 -231 39 -231 32 -206.5 c 128,-1,23
 25 -182 25 -182 25 -163 c 0,24,25
 25 -140 25 -140 34.5 -117.5 c 128,-1,26
 44 -95 44 -95 60 -76 c 128,-1,27
 76 -57 76 -57 97 -43 c 128,-1,28
 118 -29 118 -29 141 -21 c 1,29,30
 117 4 117 4 96 34 c 128,-1,31
 75 64 75 64 59 94.5 c 128,-1,32
 43 125 43 125 34 153.5 c 128,-1,33
 25 182 25 182 25 204 c 0,34,35
 25 232 25 232 39 258.5 c 128,-1,36
 53 285 53 285 75 306 c 128,-1,37
 97 327 97 327 124.5 339.5 c 128,-1,38
 152 352 152 352 179 352 c 0,39,40
 219 352 219 352 250 342.5 c 128,-1,41
 281 333 281 333 308 316 c 128,-1,42
 335 299 335 299 359.5 276 c 128,-1,43
 384 253 384 253 410 227 c 1,44,-1
 410 390 l 1,45,-1
 17 390 l 1,46,-1
 -92 480 l 1,0,-1
99 97 m 0,47,48
 99 83 99 83 105 64 c 128,-1,49
 111 45 111 45 122 27.5 c 128,-1,50
 133 10 133 10 147.5 -2.5 c 128,-1,51
 162 -15 162 -15 179 -15 c 0,52,53
 219 -15 219 -15 250 -24.5 c 128,-1,54
 281 -34 281 -34 308 -51 c 128,-1,55
 335 -68 335 -68 359.5 -91 c 128,-1,56
 384 -114 384 -114 410 -140 c 1,57,-1
 410 196 l 1,58,59
 396 209 396 209 378 224 c 128,-1,60
 360 239 360 239 339.5 251.5 c 128,-1,61
 319 264 319 264 298 272.5 c 128,-1,62
 277 281 277 281 257 281 c 0,63,64
 223 281 223 281 194 264 c 128,-1,65
 165 247 165 247 144 220 c 128,-1,66
 123 193 123 193 111 160.5 c 128,-1,67
 99 128 99 128 99 97 c 0,47,48
99 -270 m 0,68,69
 99 -293 99 -293 109.5 -318.5 c 128,-1,70
 120 -344 120 -344 139 -362 c 1,71,-1
 218 -362 l 2,72,73
 266 -362 266 -362 314 -361.5 c 128,-1,74
 362 -361 362 -361 410 -361 c 1,75,-1
 410 -171 l 1,76,77
 396 -158 396 -158 378 -143 c 128,-1,78
 360 -128 360 -128 339.5 -115.5 c 128,-1,79
 319 -103 319 -103 298 -94.5 c 128,-1,80
 277 -86 277 -86 257 -86 c 0,81,82
 223 -86 223 -86 194 -103 c 128,-1,83
 165 -120 165 -120 144 -147 c 128,-1,84
 123 -174 123 -174 111 -206.5 c 128,-1,85
 99 -239 99 -239 99 -270 c 0,68,69
EndSplineSet
Validated: 1
EndChar

StartChar: u
Encoding: 117 117 81
Width: 581
GlyphClass: 2
Flags: W
AnchorPoint: "SZLeft" 125 0 basechar 0
AnchorPoint: "SZRight" 505 -40 basechar 0
AnchorPoint: "Nasal" 245 130 basechar 0
AnchorPoint: "TBottom" 295 -840 basechar 0
AnchorPoint: "TTop" 275 720 basechar 0
LayerCount: 2
Back
Fore
SplineSet
-93 480 m 1,0,-1
 566 480 l 1,1,-1
 675 390 l 1,2,-1
 512 390 l 1,3,-1
 512 -250 l 2,4,5
 512 -326 512 -326 514 -402.5 c 128,-1,6
 516 -479 516 -479 527 -554 c 1,7,8
 498 -543 498 -543 466.5 -521.5 c 128,-1,9
 435 -500 435 -500 410 -480 c 1,10,-1
 410 -281 l 1,11,12
 396 -268 396 -268 378 -253 c 128,-1,13
 360 -238 360 -238 339.5 -225.5 c 128,-1,14
 319 -213 319 -213 298 -204.5 c 128,-1,15
 277 -196 277 -196 257 -196 c 0,16,17
 223 -196 223 -196 194 -213 c 128,-1,18
 165 -230 165 -230 144 -257 c 128,-1,19
 123 -284 123 -284 111 -316.5 c 128,-1,20
 99 -349 99 -349 99 -380 c 0,21,22
 99 -398 99 -398 106 -418.5 c 128,-1,23
 113 -439 113 -439 125 -455.5 c 128,-1,24
 137 -472 137 -472 154.5 -483 c 128,-1,25
 172 -494 172 -494 193 -494 c 256,26,27
 214 -494 214 -494 233 -485 c 128,-1,28
 252 -476 252 -476 269 -463 c 1,29,-1
 326 -528 l 1,30,31
 315 -540 315 -540 304 -550 c 0,32,33
 295 -558 295 -558 285 -565 c 128,-1,34
 275 -572 275 -572 267 -572 c 0,35,36
 241 -572 241 -572 213 -556.5 c 128,-1,37
 185 -541 185 -541 158 -516 c 128,-1,38
 131 -491 131 -491 107 -458.5 c 128,-1,39
 83 -426 83 -426 64.5 -393 c 128,-1,40
 46 -360 46 -360 35.5 -328.5 c 128,-1,41
 25 -297 25 -297 25 -273 c 0,42,43
 25 -245 25 -245 39 -218.5 c 128,-1,44
 53 -192 53 -192 75 -171 c 128,-1,45
 97 -150 97 -150 124.5 -137.5 c 128,-1,46
 152 -125 152 -125 179 -125 c 0,47,48
 219 -125 219 -125 250 -134.5 c 128,-1,49
 281 -144 281 -144 308 -161 c 128,-1,50
 335 -178 335 -178 359.5 -201 c 128,-1,51
 384 -224 384 -224 410 -250 c 1,52,-1
 410 196 l 1,53,54
 396 209 396 209 378 224 c 128,-1,55
 360 239 360 239 339.5 251.5 c 128,-1,56
 319 264 319 264 298 272.5 c 128,-1,57
 277 281 277 281 257 281 c 0,58,59
 223 281 223 281 194 264 c 128,-1,60
 165 247 165 247 144 220 c 128,-1,61
 123 193 123 193 111 160.5 c 128,-1,62
 99 128 99 128 99 97 c 0,63,64
 99 79 99 79 106 58.5 c 128,-1,65
 113 38 113 38 125 21.5 c 128,-1,66
 137 5 137 5 154.5 -6 c 128,-1,67
 172 -17 172 -17 193 -17 c 256,68,69
 214 -17 214 -17 233 -8 c 128,-1,70
 252 1 252 1 269 14 c 1,71,-1
 326 -51 l 1,72,73
 315 -63 315 -63 304 -73 c 0,74,75
 295 -81 295 -81 285 -88 c 128,-1,76
 275 -95 275 -95 267 -95 c 0,77,78
 241 -95 241 -95 213 -79.5 c 128,-1,79
 185 -64 185 -64 158 -39 c 128,-1,80
 131 -14 131 -14 107 18.5 c 128,-1,81
 83 51 83 51 64.5 84 c 128,-1,82
 46 117 46 117 35.5 148.5 c 128,-1,83
 25 180 25 180 25 204 c 0,84,85
 25 232 25 232 39 258.5 c 128,-1,86
 53 285 53 285 75 306 c 128,-1,87
 97 327 97 327 124.5 339.5 c 128,-1,88
 152 352 152 352 179 352 c 0,89,90
 219 352 219 352 250 342.5 c 128,-1,91
 281 333 281 333 308 316 c 128,-1,92
 335 299 335 299 359.5 276 c 128,-1,93
 384 253 384 253 410 227 c 1,94,-1
 410 390 l 1,95,-1
 16 390 l 1,96,-1
 -93 480 l 1,0,-1
EndSplineSet
Validated: 1
EndChar

StartChar: v
Encoding: 118 118 82
Width: 598
GlyphClass: 2
Flags: W
AnchorPoint: "SZLeft" 25 50 basechar 0
AnchorPoint: "SZRight" 535 -40 basechar 0
AnchorPoint: "Nasal" 235 180 basechar 0
AnchorPoint: "TBottom" 275 -510 basechar 0
AnchorPoint: "TTop" 285 720 basechar 0
LayerCount: 2
Back
Fore
SplineSet
-94 480 m 1,0,-1
 583 480 l 1,1,-1
 692 390 l 1,2,-1
 529 390 l 1,3,-1
 529 -63 l 2,4,5
 529 -127 529 -127 530.5 -192 c 128,-1,6
 532 -257 532 -257 543 -320 c 1,7,8
 514 -309 514 -309 483 -287 c 128,-1,9
 452 -265 452 -265 427 -244 c 1,10,-1
 427 -61 l 1,11,12
 416 -76 416 -76 397 -95.5 c 128,-1,13
 378 -115 378 -115 355.5 -131.5 c 128,-1,14
 333 -148 333 -148 309 -159.5 c 128,-1,15
 285 -171 285 -171 264 -171 c 0,16,17
 240 -171 240 -171 210 -161.5 c 128,-1,18
 180 -152 180 -152 148 -135 c 128,-1,19
 116 -118 116 -118 86 -96 c 128,-1,20
 56 -74 56 -74 32 -48.5 c 128,-1,21
 8 -23 8 -23 -6.5 4 c 128,-1,22
 -21 31 -21 31 -21 57 c 0,23,24
 -21 64 -21 64 -16 71.5 c 128,-1,25
 -11 79 -11 79 -3.5 85.5 c 128,-1,26
 4 92 4 92 11.5 97.5 c 128,-1,27
 19 103 19 103 25 106 c 1,28,-1
 90 59 l 1,29,30
 78 43 78 43 68.5 24 c 128,-1,31
 59 5 59 5 59 -15 c 0,32,33
 59 -36 59 -36 69 -51.5 c 128,-1,34
 79 -67 79 -67 94 -77.5 c 128,-1,35
 109 -88 109 -88 127.5 -93 c 128,-1,36
 146 -98 146 -98 164 -98 c 0,37,38
 221 -98 221 -98 263.5 -73.5 c 128,-1,39
 306 -49 306 -49 336 -9 c 128,-1,40
 366 31 366 31 385 83 c 128,-1,41
 404 135 404 135 414.5 189 c 128,-1,42
 425 243 425 243 427.5 295.5 c 128,-1,43
 430 348 430 348 428 390 c 1,44,-1
 15 390 l 1,45,-1
 -94 480 l 1,0,-1
EndSplineSet
Validated: 33
EndChar

StartChar: w
Encoding: 119 119 83
Width: 461
GlyphClass: 2
Flags: W
AnchorPoint: "SZLeft" 45 -30 basechar 0
AnchorPoint: "SZRight" 385 -40 basechar 0
AnchorPoint: "Nasal" 165 320 basechar 0
AnchorPoint: "TBottom" 225 -540 basechar 0
AnchorPoint: "TTop" 225 720 basechar 0
LayerCount: 2
Back
Fore
SplineSet
-94 480 m 1,0,-1
 446 480 l 1,1,-1
 555 390 l 1,2,-1
 392 390 l 1,3,-1
 392 -11 l 2,4,5
 392 -89 392 -89 394 -166 c 128,-1,6
 396 -243 396 -243 407 -320 c 1,7,8
 378 -310 378 -310 346.5 -287 c 128,-1,9
 315 -264 315 -264 291 -244 c 1,10,-1
 291 -135 l 1,11,12
 280 -126 280 -126 264 -110.5 c 128,-1,13
 248 -95 248 -95 230.5 -79.5 c 128,-1,14
 213 -64 213 -64 195.5 -52.5 c 128,-1,15
 178 -41 178 -41 165 -41 c 0,16,17
 149 -41 149 -41 139.5 -47.5 c 128,-1,18
 130 -54 130 -54 125 -64.5 c 128,-1,19
 120 -75 120 -75 118.5 -88 c 128,-1,20
 117 -101 117 -101 117 -113 c 0,21,22
 117 -118 117 -118 118 -122.5 c 128,-1,23
 119 -127 119 -127 121 -132 c 1,24,25
 88 -110 88 -110 61.5 -77.5 c 128,-1,26
 35 -45 35 -45 35 -3 c 0,27,28
 35 20 35 20 48 35 c 128,-1,29
 61 50 61 50 85 50 c 0,30,31
 114 50 114 50 141.5 34 c 128,-1,32
 169 18 169 18 189 -2 c 2,33,-1
 291 -106 l 1,34,-1
 291 73 l 1,35,36
 280 82 280 82 263 100 c 128,-1,37
 246 118 246 118 226.5 136.5 c 128,-1,38
 207 155 207 155 188 168.5 c 128,-1,39
 169 182 169 182 155 182 c 0,40,41
 131 182 131 182 119.5 165 c 128,-1,42
 108 148 108 148 108 126 c 0,43,44
 108 111 108 111 112 100 c 1,45,46
 78 120 78 120 51.5 148.5 c 128,-1,47
 25 177 25 177 25 219 c 0,48,49
 25 242 25 242 38.5 257.5 c 128,-1,50
 52 273 52 273 76 273 c 0,51,52
 105 273 105 273 132 256.5 c 128,-1,53
 159 240 159 240 178 220 c 2,54,-1
 291 101 l 1,55,-1
 291 390 l 1,56,-1
 15 390 l 1,57,-1
 -94 480 l 1,0,-1
EndSplineSet
Validated: 1
EndChar

StartChar: x
Encoding: 120 120 84
Width: 461
GlyphClass: 2
Flags: W
AnchorPoint: "SZLeft" 45 90 basechar 0
AnchorPoint: "SZRight" 385 -40 basechar 0
AnchorPoint: "Nasal" 195 330 basechar 0
AnchorPoint: "TBottom" 225 -510 basechar 0
AnchorPoint: "TTop" 215 720 basechar 0
LayerCount: 2
Back
Fore
SplineSet
-94 480 m 1,0,-1
 446 480 l 1,1,-1
 555 390 l 1,2,-1
 392 390 l 1,3,-1
 392 -11 l 2,4,5
 392 -89 392 -89 394 -166 c 128,-1,6
 396 -243 396 -243 407 -320 c 1,7,8
 378 -310 378 -310 346.5 -287 c 128,-1,9
 315 -264 315 -264 291 -244 c 1,10,-1
 291 -200 l 1,11,12
 280 -191 280 -191 262.5 -172.5 c 128,-1,13
 245 -154 245 -154 226 -136 c 128,-1,14
 207 -118 207 -118 188 -104.5 c 128,-1,15
 169 -91 169 -91 155 -91 c 0,16,17
 138 -91 138 -91 126 -102 c 128,-1,18
 114 -113 114 -113 114 -130 c 0,19,20
 114 -138 114 -138 115 -141 c 1,21,22
 92 -127 92 -127 65.5 -101.5 c 128,-1,23
 39 -76 39 -76 25 -52 c 1,24,25
 25 -29 25 -29 39 -14.5 c 128,-1,26
 53 0 53 0 76 0 c 0,27,28
 105 0 105 0 132 -16.5 c 128,-1,29
 159 -33 159 -33 178 -53 c 2,30,-1
 291 -171 l 1,31,-1
 291 -38 l 1,32,33
 280 -29 280 -29 262.5 -11 c 128,-1,34
 245 7 245 7 226 25 c 128,-1,35
 207 43 207 43 188 56.5 c 128,-1,36
 169 70 169 70 155 70 c 0,37,38
 138 70 138 70 126 59 c 128,-1,39
 114 48 114 48 114 31 c 0,40,41
 114 24 114 24 115 20 c 1,42,43
 92 35 92 35 65.5 60.5 c 128,-1,44
 39 86 39 86 25 109 c 1,45,46
 25 132 25 132 39 147 c 128,-1,47
 53 162 53 162 76 162 c 0,48,49
 105 162 105 162 132 145.5 c 128,-1,50
 159 129 159 129 178 109 c 2,51,-1
 291 -10 l 1,52,-1
 291 123 l 1,53,54
 280 132 280 132 262.5 150.5 c 128,-1,55
 245 169 245 169 226 187 c 128,-1,56
 207 205 207 205 188 218.5 c 128,-1,57
 169 232 169 232 155 232 c 0,58,59
 138 232 138 232 126 220.5 c 128,-1,60
 114 209 114 209 114 192 c 0,61,62
 114 185 114 185 115 181 c 1,63,64
 92 196 92 196 65.5 221.5 c 128,-1,65
 39 247 39 247 25 271 c 1,66,67
 25 294 25 294 39 308.5 c 128,-1,68
 53 323 53 323 76 323 c 0,69,70
 105 323 105 323 132 306.5 c 128,-1,71
 159 290 159 290 178 270 c 2,72,-1
 291 151 l 1,73,-1
 291 390 l 1,74,-1
 15 390 l 1,75,-1
 -94 480 l 1,0,-1
EndSplineSet
Validated: 1
EndChar

StartChar: y
Encoding: 121 121 85
Width: 467
GlyphClass: 2
Flags: W
AnchorPoint: "SZLeft" 105 40 basechar 0
AnchorPoint: "SZRight" 395 -40 basechar 0
AnchorPoint: "Nasal" 191 127 basechar 0
AnchorPoint: "TBottom" 225 -530 basechar 0
AnchorPoint: "TTop" 225 720 basechar 0
LayerCount: 2
Back
Fore
SplineSet
-94 480 m 1,0,-1
 452 480 l 1,1,-1
 561 390 l 1,2,-1
 396 390 l 1,3,-1
 397 -11 l 2,4,5
 397 -88 397 -88 399 -166 c 128,-1,6
 401 -244 401 -244 413 -320 c 1,7,8
 381 -309 381 -309 345 -286.5 c 128,-1,9
 309 -264 309 -264 281 -244 c 1,10,-1
 281 -11 l 1,11,12
 261 -20 261 -20 239 -20 c 0,13,14
 199 -20 199 -20 160.5 -3 c 128,-1,15
 122 14 122 14 92 42.5 c 128,-1,16
 62 71 62 71 43.5 108 c 128,-1,17
 25 145 25 145 25 184 c 0,18,19
 25 207 25 207 35.5 223 c 128,-1,20
 46 239 46 239 62.5 248.5 c 128,-1,21
 79 258 79 258 99.5 262 c 128,-1,22
 120 266 120 266 139 266 c 256,23,24
 158 266 158 266 180 261.5 c 128,-1,25
 202 257 202 257 222 247.5 c 128,-1,26
 242 238 242 238 257.5 224 c 128,-1,27
 273 210 273 210 281 191 c 1,28,-1
 281 390 l 1,29,-1
 15 390 l 1,30,-1
 -94 480 l 1,0,-1
101 129 m 0,31,32
 101 85 101 85 128 54.5 c 128,-1,33
 155 24 155 24 203 24 c 0,34,35
 228 24 228 24 243 32 c 128,-1,36
 258 40 258 40 266.5 53.5 c 128,-1,37
 275 67 275 67 278 85.5 c 128,-1,38
 281 104 281 104 281 125 c 0,39,40
 281 168 281 168 252.5 198 c 128,-1,41
 224 228 224 228 179 228 c 0,42,43
 159 228 159 228 144.5 219.5 c 128,-1,44
 130 211 130 211 120.5 197 c 128,-1,45
 111 183 111 183 106 165.5 c 128,-1,46
 101 148 101 148 101 129 c 0,31,32
EndSplineSet
Validated: 1
EndChar

